<svg version="1.1" id="Layer_1" xmlns="http://www.w3.org/2000/svg" xmlns:xlink="http://www.w3.org/1999/xlink" x="0px" y="0px"
	 width="100%" viewBox="0 0 1500 1500" enable-background="new 0 0 1500 1500" xml:space="preserve">
<path fill="#FFFFFF" opacity="1.000000" stroke="none" 
	d="
M1.000000,536.000000 
	C1.000000,357.333374 1.000000,179.166733 1.000000,1.000072 
	C500.999878,1.000048 1000.999756,1.000048 1500.999756,1.000024 
	C1500.999756,500.999786 1500.999756,1000.999573 1500.999878,1500.999512 
	C1001.000305,1500.999756 501.000610,1500.999756 1.000450,1500.999878 
	C1.000000,1179.500000 1.000000,858.000000 1.000000,536.000000 
M1350.687500,875.500122 
	C1350.687500,649.017395 1350.687378,422.534698 1350.687378,196.052002 
	C1350.687378,194.552124 1350.747803,193.048843 1350.669312,191.552948 
	C1350.191650,182.449875 1347.557617,174.473343 1339.621094,168.910141 
	C1334.084961,165.029510 1327.870728,164.033997 1321.443848,164.033340 
	C959.470215,163.995865 597.496582,163.999741 235.522980,164.000748 
	C217.326828,164.000793 206.976532,174.343842 206.976517,192.517059 
	C206.976181,554.823975 206.976242,917.130920 206.976700,1279.437866 
	C206.976700,1280.937744 207.032074,1282.439331 206.979263,1283.937256 
	C206.536774,1296.487915 220.938675,1308.035889 231.380005,1308.034546 
	C595.353394,1307.989014 959.326782,1308.003174 1323.300171,1307.925659 
	C1326.626465,1307.924927 1330.128662,1307.277344 1333.247803,1306.120483 
	C1345.463013,1301.589600 1350.683472,1292.813965 1350.684204,1277.470947 
	C1350.690186,1143.813965 1350.687622,1010.157043 1350.687500,875.500122 
z"/>
<path fill="#232323" opacity="1.000000" stroke="none" 
	d="
M1350.687500,876.000122 
	C1350.687622,1010.157043 1350.690186,1143.813965 1350.684204,1277.470947 
	C1350.683472,1292.813965 1345.463013,1301.589600 1333.247803,1306.120483 
	C1330.128662,1307.277344 1326.626465,1307.924927 1323.300171,1307.925659 
	C959.326782,1308.003174 595.353394,1307.989014 231.380005,1308.034546 
	C220.938675,1308.035889 206.536774,1296.487915 206.979263,1283.937256 
	C207.032074,1282.439331 206.976700,1280.937744 206.976700,1279.437866 
	C206.976242,917.130920 206.976181,554.823975 206.976517,192.517059 
	C206.976532,174.343842 217.326828,164.000793 235.522980,164.000748 
	C597.496582,163.999741 959.470215,163.995865 1321.443848,164.033340 
	C1327.870728,164.033997 1334.084961,165.029510 1339.621094,168.910141 
	C1347.557617,174.473343 1350.191650,182.449875 1350.669312,191.552948 
	C1350.747803,193.048843 1350.687378,194.552124 1350.687378,196.052002 
	C1350.687378,422.534698 1350.687500,649.017395 1350.687500,876.000122 
M1298.153076,345.500000 
	C1298.153076,302.554352 1298.153076,259.608704 1298.153076,216.416962 
	C1133.526733,216.416962 969.459778,216.416962 805.126587,216.416962 
	C805.126587,380.897705 805.126587,545.118896 805.126587,709.588501 
	C969.473083,709.588501 1133.539917,709.588501 1298.153198,709.588501 
	C1298.153198,588.386963 1298.153198,467.443481 1298.153076,345.500000 
M804.848877,1125.500000 
	C804.848877,1168.637695 804.848877,1211.775391 804.848877,1255.169678 
	C969.428772,1255.169678 1133.604858,1255.169678 1297.827881,1255.169678 
	C1297.827881,1090.700439 1297.827881,926.652222 1297.827881,762.431396 
	C1133.458618,762.431396 969.412476,762.431396 804.848816,762.431396 
	C804.848816,883.305115 804.848816,1003.902527 804.848877,1125.500000 
M727.499939,1255.589844 
	C735.630066,1255.589844 743.760193,1255.589844 752.138184,1255.589844 
	C752.138184,1090.916504 752.138184,926.832031 752.138184,762.525085 
	C587.662048,762.525085 423.458618,762.525085 259.302734,762.525085 
	C259.302734,926.979980 259.302734,1091.064575 259.302734,1255.589355 
	C415.236725,1255.589355 570.868286,1255.589355 727.499939,1255.589844 
M752.455933,363.500122 
	C752.455933,314.558441 752.455933,265.616730 752.455933,216.503052 
	C587.663452,216.503052 423.465332,216.503052 259.331451,216.503052 
	C259.331451,381.066742 259.331451,545.289795 259.331451,709.575684 
	C423.737640,709.575684 587.812378,709.575684 751.764038,709.575684 
	C752.037476,709.024475 752.307312,708.734558 752.307434,708.444519 
	C752.369202,593.796387 752.412537,479.148285 752.455933,363.500122 
z"/>
<path fill="#7E9EFF" opacity="1.000000" stroke="none" 
	d="
M1298.153076,346.000000 
	C1298.153198,467.443481 1298.153198,588.386963 1298.153198,709.588501 
	C1133.539917,709.588501 969.473083,709.588501 805.126587,709.588501 
	C805.126587,545.118896 805.126587,380.897705 805.126587,216.416962 
	C969.459778,216.416962 1133.526733,216.416962 1298.153076,216.416962 
	C1298.153076,259.608704 1298.153076,302.554352 1298.153076,346.000000 
M1043.052856,508.553040 
	C1048.826660,502.779266 1054.600586,497.005615 1060.374390,491.231781 
	C1089.709473,461.897003 1118.876099,432.390686 1148.487061,403.337189 
	C1156.814697,395.166229 1157.944580,381.631531 1154.330688,373.374207 
	C1146.895508,356.385376 1125.161987,352.573456 1111.845703,365.784882 
	C1093.749512,383.738403 1075.778076,401.817413 1057.753052,419.842560 
	C1023.470154,454.125610 989.184998,488.406311 954.906738,522.693909 
	C948.466064,529.136414 944.346436,536.973877 946.285583,545.971313 
	C948.480652,556.156311 954.443604,564.140137 965.248047,567.117859 
	C975.644775,569.983154 984.472229,567.210266 992.028076,559.609802 
	C1008.825317,542.713440 1025.706177,525.900208 1043.052856,508.553040 
M992.633606,415.199280 
	C1006.659607,405.894348 1011.291382,392.427887 1008.828308,376.459473 
	C1005.906860,357.518707 985.380249,344.112000 966.300171,347.389191 
	C945.073669,351.035065 932.510071,373.081757 935.788452,390.162933 
	C940.528870,414.861389 968.136292,430.044617 992.633606,415.199280 
M1114.245117,575.362000 
	C1128.029541,581.651062 1141.126465,580.378235 1153.251343,571.359680 
	C1165.899292,561.952026 1169.103516,548.612183 1166.705200,534.010437 
	C1163.759033,516.072754 1145.586060,503.173035 1126.871338,505.116516 
	C1106.188477,507.264404 1093.411255,524.429871 1093.193726,540.996338 
	C1092.996338,556.035645 1100.176514,567.638000 1114.245117,575.362000 
z"/>
<path fill="#FF847E" opacity="1.000000" stroke="none" 
	d="
M804.848877,1125.000000 
	C804.848816,1003.902527 804.848816,883.305115 804.848816,762.431396 
	C969.412476,762.431396 1133.458618,762.431396 1297.827881,762.431396 
	C1297.827881,926.652222 1297.827881,1090.700439 1297.827881,1255.169678 
	C1133.604858,1255.169678 969.428772,1255.169678 804.848877,1255.169678 
	C804.848877,1211.775391 804.848877,1168.637695 804.848877,1125.000000 
M1149.927002,1090.786743 
	C1151.388306,1090.464233 1152.890625,1090.265869 1154.304321,1089.799316 
	C1164.528198,1086.424438 1171.172607,1079.461182 1172.667603,1068.848389 
	C1174.153931,1058.297363 1170.956299,1048.702637 1161.348633,1043.183716 
	C1156.559814,1040.432983 1150.419800,1038.810791 1144.879395,1038.780396 
	C1088.265991,1038.468750 1031.650269,1038.589600 975.035095,1038.589844 
	C970.372681,1038.589844 965.708191,1038.683716 961.048218,1038.576660 
	C944.207397,1038.190308 928.543823,1058.331787 937.893799,1075.775024 
	C942.917664,1085.147339 950.455566,1090.849487 961.207153,1090.883789 
	C1012.160034,1091.046509 1063.113525,1090.992920 1114.066895,1090.992310 
	C1125.721558,1090.992188 1137.376221,1090.896729 1149.927002,1090.786743 
M1062.500000,979.155396 
	C1089.316162,979.108765 1116.146973,979.592041 1142.943726,978.848083 
	C1164.419189,978.251892 1173.250488,955.158569 1163.498657,938.967346 
	C1158.261597,930.272461 1149.959351,926.786987 1139.822998,926.802429 
	C1079.191528,926.894897 1018.559692,926.847290 957.927979,926.853394 
	C956.430420,926.853577 954.926758,926.858704 953.436218,926.984192 
	C938.414734,928.248535 927.296143,943.304382 930.532471,957.969482 
	C933.510010,971.462219 943.479614,979.103760 958.559448,979.133606 
	C992.872803,979.201416 1027.186523,979.155273 1062.500000,979.155396 
z"/>
<path fill="#7EFF86" opacity="1.000000" stroke="none" 
	d="
M726.999878,1255.589600 
	C570.868286,1255.589355 415.236725,1255.589355 259.302734,1255.589355 
	C259.302734,1091.064575 259.302734,926.979980 259.302734,762.525085 
	C423.458618,762.525085 587.662048,762.525085 752.138184,762.525085 
	C752.138184,926.832031 752.138184,1090.916504 752.138184,1255.589844 
	C743.760193,1255.589844 735.630066,1255.589844 726.999878,1255.589600 
M529.949402,935.449402 
	C517.949951,947.455750 505.950500,959.462036 492.652496,972.767700 
	C491.453674,970.826538 490.743347,969.002258 489.478210,967.729431 
	C471.151001,949.289612 452.692200,930.980408 434.397644,912.508484 
	C428.267975,906.319336 421.161041,903.259644 412.432587,903.847961 
	C396.637695,904.912537 387.346466,919.430298 388.181793,931.703369 
	C388.647339,938.543518 392.197998,944.500061 397.252411,949.505798 
	C415.724518,967.800171 434.040710,986.251892 452.468781,1004.591003 
	C453.747040,1005.863098 455.459167,1006.699158 457.401001,1008.034668 
	C449.665680,1015.756653 442.961426,1022.435425 436.272430,1029.129517 
	C422.843658,1042.568726 409.204498,1055.806519 396.055908,1069.514648 
	C380.333527,1085.906128 390.133362,1107.467773 406.870941,1112.794922 
	C417.627838,1116.218506 426.767609,1112.834961 434.541565,1105.061523 
	C452.925659,1086.678345 471.308899,1068.294312 489.700897,1049.919189 
	C490.956055,1048.665161 492.281311,1047.481201 494.600311,1045.298584 
	C495.924316,1047.160156 496.886505,1049.000244 498.285126,1050.405884 
	C516.622375,1068.835693 535.022400,1087.203003 553.403931,1105.588867 
	C558.256958,1110.442993 563.932007,1113.782349 570.912354,1113.952515 
	C582.950134,1114.245850 593.049011,1108.276123 596.730225,1097.948975 
	C599.816284,1089.291260 599.089355,1076.726074 590.256592,1068.219116 
	C571.413940,1050.071777 553.169983,1031.303467 534.602600,1012.868286 
	C533.333923,1011.608643 531.415405,1011.003418 529.304260,1009.815369 
	C535.081299,1004.236267 539.325989,1000.246033 543.450073,996.134827 
	C559.029663,980.603638 574.444153,964.904358 590.175171,949.528625 
	C598.820984,941.078064 600.377625,930.865906 596.846313,920.344360 
	C591.001038,902.928345 567.865723,898.451843 555.325134,910.339172 
	C546.861816,918.361755 538.729736,926.733826 529.949402,935.449402 
z"/>
<path fill="#FFE47E" opacity="1.000000" stroke="none" 
	d="
M752.456055,364.000122 
	C752.412537,479.148285 752.369202,593.796387 752.307434,708.444519 
	C752.307312,708.734558 752.037476,709.024475 751.764038,709.575684 
	C587.812378,709.575684 423.737640,709.575684 259.331451,709.575684 
	C259.331451,545.289795 259.331451,381.066742 259.331451,216.503052 
	C423.465332,216.503052 587.663452,216.503052 752.455933,216.503052 
	C752.455933,265.616730 752.455933,314.558441 752.456055,364.000122 
M404.500000,489.163330 
	C425.284546,489.163330 446.069092,489.163330 467.454681,489.163330 
	C467.454681,491.445557 467.454681,493.225037 467.454681,495.004547 
	C467.454773,520.827209 467.321960,546.651184 467.577454,572.471252 
	C467.623413,577.119751 468.450287,582.121582 470.343750,586.316101 
	C474.399689,595.301086 484.030243,602.220093 496.702942,601.018127 
	C506.637115,600.075867 515.969727,592.172546 518.685547,581.579712 
	C519.650085,577.817383 519.928711,573.794128 519.945496,569.887512 
	C520.052979,544.898315 520.000305,519.908386 520.000305,494.918732 
	C520.000305,493.140686 520.000305,491.362640 520.000305,489.163300 
	C522.327881,489.163300 524.126526,489.163300 525.925110,489.163300 
	C552.414185,489.163208 578.903442,489.226013 605.392151,489.132538 
	C616.220032,489.094299 624.527710,484.099274 628.858521,474.289154 
	C633.236389,464.372406 632.414001,454.470490 625.088806,445.791412 
	C619.267761,438.894318 611.357178,436.908508 602.844666,436.875641 
	C577.188965,436.776581 551.532654,436.839691 525.876587,436.839569 
	C524.086548,436.839569 522.296509,436.839508 520.000305,436.839508 
	C520.000305,434.602295 520.000305,432.819336 520.000305,431.036377 
	C520.000305,406.046722 520.045227,381.056885 519.951965,356.067566 
	C519.937927,352.313965 519.755676,348.439819 518.828125,344.833130 
	C515.814697,333.116302 508.027405,327.450287 499.311646,326.093079 
	C487.840179,324.306763 477.891418,327.144409 471.247833,337.755585 
	C468.099884,342.783478 467.450958,348.215912 467.452667,353.896088 
	C467.460419,380.051941 467.462585,406.207764 467.450043,432.363617 
	C467.449371,433.787018 467.297729,435.210358 467.204590,436.839508 
	C464.905548,436.839508 463.087891,436.836731 461.270233,436.839935 
	C434.449677,436.887421 407.629089,436.967560 380.808533,436.969818 
	C368.132996,436.970917 355.307343,449.173981 355.758972,463.311310 
	C356.214935,477.582275 367.074493,488.868622 381.509521,489.136932 
	C388.837311,489.273132 396.169708,489.162445 404.500000,489.163330 
z"/>
<path fill="#232324" opacity="1.000000" stroke="none" 
	d="
M1042.802979,508.803070 
	C1025.706177,525.900208 1008.825317,542.713440 992.028076,559.609802 
	C984.472229,567.210266 975.644775,569.983154 965.248047,567.117859 
	C954.443604,564.140137 948.480652,556.156311 946.285583,545.971313 
	C944.346436,536.973877 948.466064,529.136414 954.906738,522.693909 
	C989.184998,488.406311 1023.470154,454.125610 1057.753052,419.842560 
	C1075.778076,401.817413 1093.749512,383.738403 1111.845703,365.784882 
	C1125.161987,352.573456 1146.895508,356.385376 1154.330688,373.374207 
	C1157.944580,381.631531 1156.814697,395.166229 1148.487061,403.337189 
	C1118.876099,432.390686 1089.709473,461.897003 1060.374390,491.231781 
	C1054.600586,497.005615 1048.826660,502.779266 1042.802979,508.803070 
z"/>
<path fill="#232424" opacity="1.000000" stroke="none" 
	d="
M992.332825,415.410583 
	C968.136292,430.044617 940.528870,414.861389 935.788452,390.162933 
	C932.510071,373.081757 945.073669,351.035065 966.300171,347.389191 
	C985.380249,344.112000 1005.906860,357.518707 1008.828308,376.459473 
	C1011.291382,392.427887 1006.659607,405.894348 992.332825,415.410583 
z"/>
<path fill="#232424" opacity="1.000000" stroke="none" 
	d="
M1113.904663,575.201782 
	C1100.176514,567.638000 1092.996338,556.035645 1093.193726,540.996338 
	C1093.411255,524.429871 1106.188477,507.264404 1126.871338,505.116516 
	C1145.586060,503.173035 1163.759033,516.072754 1166.705200,534.010437 
	C1169.103516,548.612183 1165.899292,561.952026 1153.251343,571.359680 
	C1141.126465,580.378235 1128.029541,581.651062 1113.904663,575.201782 
z"/>
<path fill="#232323" opacity="1.000000" stroke="none" 
	d="
M1149.479004,1090.815918 
	C1137.376221,1090.896729 1125.721558,1090.992188 1114.066895,1090.992310 
	C1063.113525,1090.992920 1012.160034,1091.046509 961.207153,1090.883789 
	C950.455566,1090.849487 942.917664,1085.147339 937.893799,1075.775024 
	C928.543823,1058.331787 944.207397,1038.190308 961.048218,1038.576660 
	C965.708191,1038.683716 970.372681,1038.589844 975.035095,1038.589844 
	C1031.650269,1038.589600 1088.265991,1038.468750 1144.879395,1038.780396 
	C1150.419800,1038.810791 1156.559814,1040.432983 1161.348633,1043.183716 
	C1170.956299,1048.702637 1174.153931,1058.297363 1172.667603,1068.848389 
	C1171.172607,1079.461182 1164.528198,1086.424438 1154.304321,1089.799316 
	C1152.890625,1090.265869 1151.388306,1090.464233 1149.479004,1090.815918 
z"/>
<path fill="#232323" opacity="1.000000" stroke="none" 
	d="
M1062.000000,979.155396 
	C1027.186523,979.155273 992.872803,979.201416 958.559448,979.133606 
	C943.479614,979.103760 933.510010,971.462219 930.532471,957.969482 
	C927.296143,943.304382 938.414734,928.248535 953.436218,926.984192 
	C954.926758,926.858704 956.430420,926.853577 957.927979,926.853394 
	C1018.559692,926.847290 1079.191528,926.894897 1139.822998,926.802429 
	C1149.959351,926.786987 1158.261597,930.272461 1163.498657,938.967346 
	C1173.250488,955.158569 1164.419189,978.251892 1142.943726,978.848083 
	C1116.146973,979.592041 1089.316162,979.108765 1062.000000,979.155396 
z"/>
<path fill="#232423" opacity="1.000000" stroke="none" 
	d="
M530.199463,935.199463 
	C538.729736,926.733826 546.861816,918.361755 555.325134,910.339172 
	C567.865723,898.451843 591.001038,902.928345 596.846313,920.344360 
	C600.377625,930.865906 598.820984,941.078064 590.175171,949.528625 
	C574.444153,964.904358 559.029663,980.603638 543.450073,996.134827 
	C539.325989,1000.246033 535.081299,1004.236267 529.304260,1009.815369 
	C531.415405,1011.003418 533.333923,1011.608643 534.602600,1012.868286 
	C553.169983,1031.303467 571.413940,1050.071777 590.256592,1068.219116 
	C599.089355,1076.726074 599.816284,1089.291260 596.730225,1097.948975 
	C593.049011,1108.276123 582.950134,1114.245850 570.912354,1113.952515 
	C563.932007,1113.782349 558.256958,1110.442993 553.403931,1105.588867 
	C535.022400,1087.203003 516.622375,1068.835693 498.285126,1050.405884 
	C496.886505,1049.000244 495.924316,1047.160156 494.600311,1045.298584 
	C492.281311,1047.481201 490.956055,1048.665161 489.700897,1049.919189 
	C471.308899,1068.294312 452.925659,1086.678345 434.541565,1105.061523 
	C426.767609,1112.834961 417.627838,1116.218506 406.870941,1112.794922 
	C390.133362,1107.467773 380.333527,1085.906128 396.055908,1069.514648 
	C409.204498,1055.806519 422.843658,1042.568726 436.272430,1029.129517 
	C442.961426,1022.435425 449.665680,1015.756653 457.401001,1008.034668 
	C455.459167,1006.699158 453.747040,1005.863098 452.468781,1004.591003 
	C434.040710,986.251892 415.724518,967.800171 397.252411,949.505798 
	C392.197998,944.500061 388.647339,938.543518 388.181793,931.703369 
	C387.346466,919.430298 396.637695,904.912537 412.432587,903.847961 
	C421.161041,903.259644 428.267975,906.319336 434.397644,912.508484 
	C452.692200,930.980408 471.151001,949.289612 489.478210,967.729431 
	C490.743347,969.002258 491.453674,970.826538 492.652496,972.767700 
	C505.950500,959.462036 517.949951,947.455750 530.199463,935.199463 
z"/>
<path fill="#232323" opacity="1.000000" stroke="none" 
	d="
M404.000000,489.163361 
	C396.169708,489.162445 388.837311,489.273132 381.509521,489.136932 
	C367.074493,488.868622 356.214935,477.582275 355.758972,463.311310 
	C355.307343,449.173981 368.132996,436.970917 380.808533,436.969818 
	C407.629089,436.967560 434.449677,436.887421 461.270233,436.839935 
	C463.087891,436.836731 464.905548,436.839508 467.204590,436.839508 
	C467.297729,435.210358 467.449371,433.787018 467.450043,432.363617 
	C467.462585,406.207764 467.460419,380.051941 467.452667,353.896088 
	C467.450958,348.215912 468.099884,342.783478 471.247833,337.755585 
	C477.891418,327.144409 487.840179,324.306763 499.311646,326.093079 
	C508.027405,327.450287 515.814697,333.116302 518.828125,344.833130 
	C519.755676,348.439819 519.937927,352.313965 519.951965,356.067566 
	C520.045227,381.056885 520.000305,406.046722 520.000305,431.036377 
	C520.000305,432.819336 520.000305,434.602295 520.000305,436.839508 
	C522.296509,436.839508 524.086548,436.839569 525.876587,436.839569 
	C551.532654,436.839691 577.188965,436.776581 602.844666,436.875641 
	C611.357178,436.908508 619.267761,438.894318 625.088806,445.791412 
	C632.414001,454.470490 633.236389,464.372406 628.858521,474.289154 
	C624.527710,484.099274 616.220032,489.094299 605.392151,489.132538 
	C578.903442,489.226013 552.414185,489.163208 525.925110,489.163300 
	C524.126526,489.163300 522.327881,489.163300 520.000305,489.163300 
	C520.000305,491.362640 520.000305,493.140686 520.000305,494.918732 
	C520.000305,519.908386 520.052979,544.898315 519.945496,569.887512 
	C519.928711,573.794128 519.650085,577.817383 518.685547,581.579712 
	C515.969727,592.172546 506.637115,600.075867 496.702942,601.018127 
	C484.030243,602.220093 474.399689,595.301086 470.343750,586.316101 
	C468.450287,582.121582 467.623413,577.119751 467.577454,572.471252 
	C467.321960,546.651184 467.454773,520.827209 467.454681,495.004547 
	C467.454681,493.225037 467.454681,491.445557 467.454681,489.163330 
	C446.069092,489.163330 425.284546,489.163330 404.000000,489.163361 
z"/>
</svg>