<svg version="1.1" id="Layer_1" xmlns="http://www.w3.org/2000/svg" xmlns:xlink="http://www.w3.org/1999/xlink" x="0px" y="0px"
	 width="100%" viewBox="0 0 1500 1500" enable-background="new 0 0 1500 1500" xml:space="preserve">
<path fill="#FFFFFF" opacity="1.000000" stroke="none" 
	d="
M999.000000,1501.000000 
	C666.000061,1501.000000 333.500122,1501.000000 1.000134,1501.000000 
	C1.000089,1001.000122 1.000089,501.000305 1.000045,1.000335 
	C500.999756,1.000223 1000.999512,1.000223 1500.999512,1.000112 
	C1500.999634,500.999664 1500.999634,1000.999329 1500.999756,1500.999512 
	C1333.833374,1501.000000 1166.666626,1501.000000 999.000000,1501.000000 
M1183.085327,630.926270 
	C1183.085327,630.926270 1183.106323,630.908508 1183.225464,630.160522 
	C1182.522095,628.481506 1181.981445,626.710266 1181.091064,625.137024 
	C1163.412720,593.896606 1145.983398,562.508423 1127.757202,531.590271 
	C1123.748901,524.790894 1116.880371,519.677551 1111.593262,513.108337 
	C1112.793091,511.118988 1114.010986,509.140198 1115.190063,507.138672 
	C1123.805420,492.515076 1131.642700,477.533569 1136.981445,460.906952 
	C1137.968140,459.479675 1138.973389,458.064819 1139.938599,456.623169 
	C1152.606689,437.702637 1153.246460,417.948975 1144.185913,397.337524 
	C1177.127563,362.126709 1155.487305,306.506348 1107.090942,302.708557 
	C1106.856323,302.283752 1106.514526,301.874481 1106.388672,301.407013 
	C1097.759155,269.363403 1057.897095,250.056274 1023.954651,270.257568 
	C1022.534058,271.103058 1019.836731,271.009003 1018.279846,270.243256 
	C981.601501,252.204117 940.127075,275.754700 937.417969,316.562744 
	C937.042603,322.216003 936.653625,326.163452 929.918518,326.314728 
	C928.746521,326.341064 927.521240,327.409485 926.454224,328.181396 
	C910.694641,339.582672 903.660461,367.684845 912.051270,385.938965 
	C909.933594,397.400513 911.005371,408.785675 918.747559,417.494812 
	C923.654114,423.014160 923.674133,427.464722 921.467102,433.268494 
	C921.174255,434.038757 921.065735,434.879120 919.952881,435.715668 
	C901.899475,435.477417 884.131653,437.500336 866.616272,441.995911 
	C840.505310,448.697662 816.847107,459.322083 798.712158,480.401215 
	C781.890381,499.954132 764.382629,518.922424 746.981934,537.969971 
	C735.075806,551.002869 722.892578,563.737610 707.635010,573.126038 
	C703.206665,575.850891 699.230469,579.616760 695.760193,583.536743 
	C684.076721,596.734314 675.216797,611.829529 668.210632,627.906738 
	C657.611755,652.228088 651.101501,677.246521 657.140259,704.133362 
	C653.789490,704.070068 650.438782,704.006775 647.085144,703.013428 
	C647.085144,687.176270 647.085144,671.339111 647.085144,655.806091 
	C635.076721,655.806091 623.832275,655.806091 612.683472,654.922913 
	C613.579041,644.518433 614.474609,634.113892 615.395630,623.413879 
	C524.030396,623.413879 433.188721,623.413879 341.715149,623.413879 
	C343.188416,635.536560 344.627502,647.378052 345.348633,659.465210 
	C343.568848,659.621521 341.789093,659.777771 339.118469,659.726013 
	C336.079437,659.827820 333.040405,659.929626 329.078461,659.933533 
	C325.486084,659.933533 321.893738,659.933533 317.821106,659.933533 
	C318.933990,675.038086 319.999420,689.498413 320.133179,704.132446 
	C310.134033,704.142456 300.130127,703.959595 290.136749,704.204224 
	C271.639130,704.657043 260.042847,720.967712 266.252777,737.532959 
	C270.035156,747.622620 279.153351,753.152649 292.129120,753.163696 
	C437.944794,753.288269 583.760437,753.486755 729.576111,753.499329 
	C843.727722,753.509155 957.879272,753.263733 1072.030884,753.175720 
	C1135.859497,753.126526 1199.688110,753.168274 1263.516724,753.161133 
	C1265.682007,753.160889 1267.861938,753.220886 1270.010010,753.004822 
	C1279.587036,752.041687 1286.800781,747.266357 1290.424072,738.398315 
	C1294.057739,729.504944 1293.057007,720.770813 1286.741211,713.091125 
	C1281.361450,706.549744 1274.194458,704.155090 1265.956177,704.146118 
	C1246.962402,704.125366 1227.968628,704.033447 1208.890137,703.189636 
	C1208.590454,701.904602 1208.242188,700.628662 1207.998047,699.333191 
	C1204.086304,678.568481 1196.795898,658.947937 1188.050781,639.274963 
	C1186.713623,636.868347 1185.376343,634.461731 1183.963623,631.483154 
	C1183.665283,631.297913 1183.366943,631.112610 1183.085327,630.926270 
M940.674194,1258.640137 
	C972.996277,1258.676392 1005.318420,1258.716553 1037.640503,1258.726929 
	C1038.439209,1258.727173 1039.238037,1258.398193 1040.657593,1258.145264 
	C1041.379272,1257.784546 1042.101074,1257.423706 1043.562988,1257.060181 
	C1048.351685,1253.820801 1049.983154,1250.193115 1047.817627,1245.299683 
	C1043.682007,1235.953979 1040.273926,1226.526245 1040.427979,1216.107788 
	C1040.474487,1212.962769 1039.988525,1209.812012 1039.801636,1206.660645 
	C1039.615479,1203.522827 1038.424194,1201.925537 1034.859375,1202.129272 
	C1029.550903,1202.432617 1024.189087,1201.897583 1018.892822,1202.293823 
	C1013.380493,1202.706177 1009.520935,1201.876831 1009.525330,1195.155029 
	C1009.526306,1193.664062 1008.363464,1192.064087 1007.458374,1190.698486 
	C1002.283752,1182.890625 994.331909,1182.172363 986.177673,1183.106323 
	C978.016174,1184.040894 972.658569,1188.979126 969.977295,1196.735107 
	C969.394714,1198.420288 969.017639,1200.176514 968.433289,1202.311279 
	C959.039062,1202.311279 949.787354,1202.311279 939.928467,1202.311279 
	C939.928467,1205.739990 939.868469,1208.690186 939.939087,1211.637207 
	C940.214905,1223.153931 940.531372,1234.665161 932.039551,1244.052002 
	C931.615112,1244.521240 931.408081,1245.226318 931.211548,1245.856445 
	C929.561340,1251.149536 931.620544,1255.347900 937.309692,1257.728149 
	C938.169189,1257.947144 939.028748,1258.166138 940.674194,1258.640137 
M739.926453,1253.731689 
	C772.633118,1253.741699 805.339844,1253.751831 838.718689,1253.972046 
	C839.768982,1253.577515 840.819214,1253.183105 842.548035,1252.667847 
	C846.619263,1251.062622 848.721680,1247.723633 848.384949,1243.711914 
	C848.150818,1240.923096 846.611816,1237.937866 844.863708,1235.644165 
	C840.949524,1230.508301 839.372070,1225.053955 839.625366,1218.562866 
	C839.894775,1211.659302 839.103699,1204.714478 838.748169,1197.208130 
	C833.889954,1197.208130 829.279541,1197.208130 824.669067,1197.208130 
	C819.896057,1197.208130 815.122986,1197.208130 810.526550,1197.208130 
	C806.892944,1182.404785 799.894043,1177.086548 785.961121,1178.000000 
	C777.078857,1178.582397 769.876953,1184.547729 769.069275,1192.747681 
	C768.686890,1196.630737 767.051147,1197.338623 763.678101,1197.262939 
	C755.907898,1197.088379 748.131042,1197.207642 740.202759,1197.207642 
	C739.786926,1199.896118 739.241211,1202.009521 739.166748,1204.139404 
	C738.740723,1216.321289 737.667969,1228.339478 731.604431,1239.310425 
	C731.137390,1240.155396 730.934082,1241.193604 730.802795,1242.168335 
	C730.195068,1246.681152 731.260559,1250.376587 736.302246,1252.667480 
	C737.197632,1253.027344 738.093079,1253.387085 739.926453,1253.731689 
M404.615295,498.942444 
	C403.750732,498.452454 402.777100,498.089325 402.037842,497.453644 
	C388.395233,485.722168 373.666779,491.161591 363.683563,501.006958 
	C353.635834,510.916046 353.403259,523.896179 355.719696,536.480164 
	C358.990479,554.248779 368.776276,568.175354 383.314850,577.935669 
	C375.424042,578.349609 367.533234,578.763550 358.801147,578.933594 
	C349.265625,579.184326 339.730103,579.435120 329.959381,579.692017 
	C329.065125,593.823730 328.223419,607.125305 327.359589,620.775879 
	C331.268036,620.775879 335.652100,622.115234 337.619629,620.503906 
	C342.053955,616.872375 346.681274,618.531860 351.222382,618.061157 
	C353.519989,617.822998 355.845062,617.849731 359.039917,618.030273 
	C361.036163,618.075806 363.032410,618.160950 365.028656,618.161133 
	C446.981537,618.167847 528.934387,618.164856 610.887268,618.180481 
	C612.704712,618.180786 615.047791,617.692017 616.250732,618.607361 
	C622.164856,623.107788 628.589050,619.697388 635.240356,621.011719 
	C634.353699,603.386719 633.504700,586.509888 632.671875,569.954163 
	C625.913574,569.954163 619.623596,569.773865 613.346619,569.983948 
	C577.891479,571.170593 542.440186,572.474243 506.985992,573.690491 
	C486.015869,574.409851 465.042755,575.041626 444.527252,575.271729 
	C455.008942,565.228516 459.761932,552.100037 463.981750,538.749268 
	C468.487152,524.495178 465.544769,511.802551 455.115784,501.034393 
	C442.442780,487.949341 428.077850,482.735168 411.999786,494.928131 
	C411.985413,492.100220 412.111694,489.263306 411.931152,486.446045 
	C411.301910,476.626678 408.771667,467.453796 402.325989,459.718842 
	C400.150635,457.108398 397.522858,456.767242 394.881165,458.859650 
	C392.224884,460.963654 392.093079,463.602173 394.023834,466.330505 
	C394.597046,467.140472 395.291748,467.865753 395.944580,468.617920 
	C403.586243,477.422333 405.883728,487.862915 404.615295,498.942444 
M1045.038208,1155.571533 
	C1071.717651,1055.156860 1098.411743,954.745911 1125.062988,854.323792 
	C1129.836426,836.337280 1127.035034,819.490723 1115.828125,804.628418 
	C1102.587402,787.069153 1085.765503,773.095947 1068.503174,759.688904 
	C1067.338745,758.784363 1065.414673,758.524902 1063.843628,758.524231 
	C948.677429,758.472168 833.511230,758.466980 718.345093,758.557617 
	C716.361267,758.559143 713.908508,759.237427 712.468140,760.503052 
	C699.214050,772.149658 685.551575,783.417297 673.150879,795.928101 
	C657.120178,812.101379 650.944092,831.480652 656.552124,854.454102 
	C679.619080,948.948486 702.316101,1043.533081 725.162048,1138.081543 
	C727.650024,1148.378052 730.221375,1158.654297 732.780151,1169.045898 
	C769.842834,1168.433960 806.440247,1167.829834 843.611938,1167.216064 
	C828.872131,1068.442627 814.241272,970.399475 799.594238,872.247681 
	C800.857361,871.826355 801.770752,871.421936 802.726868,871.217285 
	C828.097717,865.788025 853.471680,860.373413 878.848328,854.971069 
	C885.453430,853.564880 891.796265,851.952026 898.887207,853.725098 
	C914.851196,857.716858 931.054077,860.749756 947.148438,864.225281 
	C958.981567,866.780457 970.796814,869.418640 983.227051,872.153442 
	C965.839417,970.626953 948.526428,1068.677368 931.124207,1167.233276 
	C968.106628,1167.834839 1004.851440,1168.432495 1041.454834,1169.027832 
	C1042.714233,1164.404175 1043.806641,1160.393677 1045.038208,1155.571533 
M1179.529297,758.523132 
	C1178.100830,758.597473 1176.672363,758.671814 1175.330078,758.741699 
	C1175.330078,938.986694 1175.330078,1118.811157 1175.330078,1298.527344 
	C1191.165527,1298.527344 1206.593262,1298.527344 1222.119141,1298.527344 
	C1222.119141,1118.500610 1222.119141,938.785156 1222.119141,758.522827 
	C1208.082275,758.522827 1194.305664,758.522827 1179.529297,758.523132 
M375.036133,1121.500000 
	C375.036133,1000.580322 375.036133,879.660583 375.036133,758.792725 
	C358.977417,758.792725 343.536530,758.792725 327.921753,758.792725 
	C327.921753,938.873352 327.921753,1118.684082 327.921753,1298.587402 
	C343.753113,1298.587402 359.173248,1298.587402 375.036133,1298.587402 
	C375.036133,1239.724731 375.036133,1181.112305 375.036133,1121.500000 
M701.112244,337.127075 
	C691.219971,336.101990 683.213196,339.856476 676.663635,347.001404 
	C674.014160,349.891785 673.460754,353.306549 676.078308,356.521576 
	C678.698914,359.740295 681.918823,360.530823 685.807373,358.374207 
	C689.431580,356.364105 693.145325,354.423187 697.014465,352.970764 
	C701.664429,351.225220 704.356262,353.126831 705.056030,357.959839 
	C705.570435,361.512390 704.948730,364.690918 701.880493,366.846283 
	C698.217163,369.419678 694.382874,371.748077 690.665039,374.245728 
	C685.840881,377.486664 680.579163,380.271149 676.357056,384.173157 
	C667.301208,392.542389 669.022095,404.595490 680.020142,410.178925 
	C690.521973,415.510468 701.848206,417.242065 713.508728,415.168060 
	C722.481506,413.572113 725.969177,405.115021 721.175415,397.314850 
	C717.704895,391.667755 710.957947,391.507996 707.251221,396.958038 
	C706.639648,397.857239 705.808838,399.389496 705.150574,399.352722 
	C699.118408,399.015900 692.848145,399.524200 686.318909,395.057373 
	C689.471313,392.728363 691.952454,390.728577 694.597168,388.975708 
	C700.275818,385.212128 706.221924,381.827942 711.724915,377.829285 
	C720.289551,371.605896 723.325745,363.124512 720.643005,352.781067 
	C718.147705,343.160126 711.372742,338.616089 701.112244,337.127075 
M848.076355,276.564575 
	C856.440552,279.754883 861.769531,276.162750 861.999512,267.151184 
	C862.343201,253.680573 862.588867,240.206879 863.032410,226.739655 
	C863.212952,221.259521 864.139282,215.791412 864.115295,210.320496 
	C864.089600,204.446838 859.074524,201.577240 853.607849,203.733582 
	C849.882507,205.203033 848.195923,208.077667 847.926636,211.810364 
	C847.447632,218.449097 846.985413,225.099182 846.873657,231.750534 
	C846.805115,235.832657 844.721008,236.883530 841.223145,236.675873 
	C835.816711,236.354889 834.361145,234.755859 834.673340,229.064163 
	C834.992249,223.251022 835.795410,217.447601 835.802551,211.639206 
	C835.808960,206.444962 832.720154,203.234665 828.547485,203.023209 
	C824.677673,202.827103 820.657349,206.207397 820.254272,210.848572 
	C819.578369,218.629684 818.896484,226.474136 819.169617,234.258514 
	C819.559448,245.367020 825.531982,251.056793 836.705872,252.184662 
	C839.332642,252.449814 841.969360,252.615845 844.875671,252.849518 
	C844.875671,257.861420 844.584717,262.851746 844.988281,267.785248 
	C845.218384,270.599518 846.581299,273.321106 848.076355,276.564575 
M750.434937,265.089661 
	C748.095581,270.906708 749.998901,274.725861 756.269470,276.797180 
	C761.309998,278.462128 761.959412,280.480072 758.605347,284.480072 
	C757.657349,285.610626 756.380493,286.462769 755.271362,287.461273 
	C748.777893,293.306885 749.993103,299.694794 758.183228,302.526978 
	C760.214600,303.229401 762.377930,303.549774 764.410278,304.249817 
	C767.534607,305.325989 771.137207,305.937988 773.526245,307.948029 
	C775.649048,309.733978 777.425659,313.173981 777.372925,315.844666 
	C777.340454,317.488373 773.755127,320.039734 771.464905,320.432312 
	C768.008728,321.024719 764.294983,319.979156 760.682373,319.826111 
	C755.554871,319.608948 752.065857,321.999969 751.551758,326.407074 
	C751.029785,330.881897 753.759338,333.414520 757.660645,334.954559 
	C766.247681,338.344391 774.671570,337.554565 782.750366,333.534149 
	C787.786377,331.027924 791.619873,327.222565 793.119446,321.444000 
	C795.647217,311.703003 789.520081,298.119537 779.311523,292.291290 
	C775.936768,290.364624 774.302490,288.897430 775.700256,284.669495 
	C776.643677,281.816040 776.387573,278.332764 775.853271,275.273499 
	C774.800293,269.244324 771.784302,264.250061 765.694519,262.119141 
	C760.481628,260.295013 755.227661,259.887115 750.434937,265.089661 
M617.851074,459.287048 
	C616.292969,460.168304 614.831299,461.411285 613.157227,461.857910 
	C609.289001,462.889832 607.025085,465.017975 606.910889,469.138824 
	C606.786804,473.620636 609.533813,476.269196 613.385681,476.746887 
	C620.635010,477.645966 627.982605,478.017670 635.292480,478.059601 
	C639.373718,478.083008 642.759277,475.238861 642.557129,471.289520 
	C642.419006,468.590485 639.609619,465.907684 637.658997,463.487976 
	C636.986145,462.653290 635.300415,462.635071 632.934265,461.878265 
	C632.595215,445.429230 632.129333,428.855865 631.954102,412.279419 
	C631.830139,400.550537 627.768860,396.202820 616.113220,396.115173 
	C611.819214,396.082886 608.074646,397.101807 606.730225,401.833405 
	C605.674072,405.550323 608.030640,409.955963 612.632629,411.532776 
	C615.881592,412.646057 615.773987,414.583496 615.877625,417.218170 
	C616.418640,430.966644 617.147095,444.707703 617.851074,459.287048 
z"/>
<path fill="#4F233F" opacity="1.000000" stroke="none" 
	d="
M1044.968628,1155.977417 
	C1043.806641,1160.393677 1042.714233,1164.404175 1041.454834,1169.027832 
	C1004.851440,1168.432495 968.106628,1167.834839 931.124207,1167.233276 
	C948.526428,1068.677368 965.839417,970.626953 983.227051,872.153442 
	C970.796814,869.418640 958.981567,866.780457 947.148438,864.225281 
	C931.054077,860.749756 914.851196,857.716858 898.887207,853.725098 
	C891.796265,851.952026 885.453430,853.564880 878.848328,854.971069 
	C853.471680,860.373413 828.097717,865.788025 802.726868,871.217285 
	C801.770752,871.421936 800.857361,871.826355 799.594238,872.247681 
	C814.241272,970.399475 828.872131,1068.442627 843.611938,1167.216064 
	C806.440247,1167.829834 769.842834,1168.433960 732.780151,1169.045898 
	C730.221375,1158.654297 727.650024,1148.378052 725.162048,1138.081543 
	C702.316101,1043.533081 679.619080,948.948486 656.552124,854.454102 
	C650.944092,831.480652 657.120178,812.101379 673.150879,795.928101 
	C685.551575,783.417297 699.214050,772.149658 712.468140,760.503052 
	C713.908508,759.237427 716.361267,758.559143 718.345093,758.557617 
	C833.511230,758.466980 948.677429,758.472168 1063.843628,758.524231 
	C1065.414673,758.524902 1067.338745,758.784363 1068.503174,759.688904 
	C1085.765503,773.095947 1102.587402,787.069153 1115.828125,804.628418 
	C1127.035034,819.490723 1129.836426,836.337280 1125.062988,854.323792 
	C1098.411743,954.745911 1071.717651,1055.156860 1044.968628,1155.977417 
z"/>
<path fill="#502440" opacity="1.000000" stroke="none" 
	d="
M647.088013,703.943481 
	C650.438782,704.006775 653.789490,704.070068 658.050049,704.152893 
	C680.367126,704.122437 701.774475,704.072449 723.625916,704.075806 
	C728.093018,704.068542 732.116089,704.007935 736.587769,704.026428 
	C853.276428,704.117432 969.516479,704.129395 1086.239868,704.165894 
	C1116.168213,704.195374 1145.613281,704.221985 1175.058228,704.194214 
	C1186.363770,704.183533 1197.669312,704.048706 1208.974854,703.970459 
	C1227.968628,704.033447 1246.962402,704.125366 1265.956177,704.146118 
	C1274.194458,704.155090 1281.361450,706.549744 1286.741211,713.091125 
	C1293.057007,720.770813 1294.057739,729.504944 1290.424072,738.398315 
	C1286.800781,747.266357 1279.587036,752.041687 1270.010010,753.004822 
	C1267.861938,753.220886 1265.682007,753.160889 1263.516724,753.161133 
	C1199.688110,753.168274 1135.859497,753.126526 1072.030884,753.175720 
	C957.879272,753.263733 843.727722,753.509155 729.576111,753.499329 
	C583.760437,753.486755 437.944794,753.288269 292.129120,753.163696 
	C279.153351,753.152649 270.035156,747.622620 266.252777,737.532959 
	C260.042847,720.967712 271.639130,704.657043 290.136749,704.204224 
	C300.130127,703.959595 310.134033,704.142456 321.052612,704.112915 
	C325.225586,704.093384 328.479095,704.093384 332.418823,704.093384 
	C331.588196,688.953491 330.794769,674.492432 330.001373,660.031433 
	C333.040405,659.929626 336.079437,659.827820 339.599823,660.259949 
	C340.402985,663.873962 340.724792,666.953979 340.978088,670.489502 
	C341.364777,678.620911 341.819916,686.296936 342.219299,694.396667 
	C342.463135,697.760437 342.762665,700.700500 343.110565,704.114868 
	C345.402191,704.114868 347.362366,704.114929 349.322540,704.114929 
	C446.748932,704.114929 544.175354,704.115845 641.601746,704.107788 
	C643.430481,704.107605 645.259277,704.000610 647.088013,703.943481 
z"/>
<path fill="#80C7A7" opacity="1.000000" stroke="none" 
	d="
M723.181885,704.022522 
	C701.774475,704.072449 680.367126,704.122437 658.504211,704.077271 
	C651.101501,677.246521 657.611755,652.228088 668.210632,627.906738 
	C675.216797,611.829529 684.076721,596.734314 695.760193,583.536743 
	C699.230469,579.616760 703.206665,575.850891 707.635010,573.126038 
	C722.892578,563.737610 735.075806,551.002869 746.981934,537.969971 
	C764.382629,518.922424 781.890381,499.954132 798.712158,480.401215 
	C816.847107,459.322083 840.505310,448.697662 866.616272,441.995911 
	C884.131653,437.500336 901.899475,435.477417 920.444946,436.150452 
	C921.333984,444.387177 921.730957,452.189087 922.097656,460.459473 
	C921.833557,475.290375 923.036133,489.553558 927.028137,503.350159 
	C934.414062,528.876343 949.716736,546.615173 977.370544,550.079773 
	C986.971619,551.282654 996.876099,550.064026 1006.906250,550.136963 
	C1011.387085,556.569824 1015.436035,562.941650 1019.923157,568.988220 
	C1021.260193,570.789917 1023.825745,571.679871 1025.896973,573.370728 
	C1030.453857,587.800293 1034.942261,601.846619 1039.083252,616.068542 
	C1028.535889,620.309143 1023.353027,627.565857 1023.770630,638.809570 
	C1023.947571,643.570496 1023.243408,648.364136 1022.500854,653.111572 
	C1016.427856,652.657776 1010.788513,652.294861 1005.160400,651.802856 
	C976.430054,649.290771 948.753479,652.454651 923.122192,666.521606 
	C922.403442,664.063232 921.714050,661.990601 921.162231,659.619507 
	C920.503906,657.340576 919.708008,655.360107 918.872009,653.066772 
	C918.540222,652.498840 918.248596,652.243835 917.980103,651.988159 
	C918.003235,651.987549 918.000732,652.033264 918.074707,651.621948 
	C918.073669,650.385254 918.183960,649.488098 917.896179,648.745117 
	C912.219421,634.089600 906.888977,619.282593 900.667175,604.860596 
	C895.005310,591.736389 885.015320,584.583008 869.843262,585.940552 
	C859.432495,570.158936 849.203003,554.677673 839.213318,538.880981 
	C841.900574,526.389526 844.459106,514.233582 846.674988,502.015564 
	C847.005249,500.194702 845.723877,498.081604 845.188110,496.103729 
	C844.097046,497.676056 842.403809,499.112518 842.013428,500.842896 
	C839.575745,511.648468 837.429199,522.519775 834.938293,533.109741 
	C828.882812,524.761230 822.436890,522.744324 816.359619,527.114624 
	C810.073547,531.635071 809.611450,538.182617 814.967224,546.305664 
	C819.711426,553.501099 824.424072,560.717346 828.929443,568.250244 
	C826.581177,579.435242 824.454102,590.294373 822.127686,601.430542 
	C818.935303,604.129578 815.942444,606.551758 812.876282,608.590088 
	C811.782227,606.588989 811.115051,604.039490 809.686462,603.497803 
	C794.025208,597.558716 778.433289,591.316833 762.433411,586.431580 
	C751.160706,582.989685 739.466125,583.512756 728.304077,588.492432 
	C714.766235,594.531982 702.987427,603.095764 692.315857,613.239380 
	C691.131958,614.364685 690.946777,616.540649 690.298401,618.229370 
	C692.102112,617.698792 694.214355,617.600037 695.659302,616.567444 
	C704.843689,610.003967 713.520813,602.659851 723.060669,596.683044 
	C734.134216,589.745300 746.441772,587.930908 759.491577,590.665649 
	C776.059448,594.137817 791.510620,600.557922 806.880249,607.335266 
	C808.779480,608.172668 810.936401,608.425842 812.904785,609.283325 
	C808.763672,615.746887 802.874756,618.379028 795.813904,620.242920 
	C786.408936,622.725403 776.908142,625.826416 768.356873,630.370972 
	C745.703125,642.410278 731.284302,661.721130 723.849365,686.000732 
	C722.148438,691.555298 723.328003,697.991882 723.181885,704.022522 
z"/>
<path fill="#502440" opacity="1.000000" stroke="none" 
	d="
M1025.828491,572.987549 
	C1023.825745,571.679871 1021.260193,570.789917 1019.923157,568.988220 
	C1015.436035,562.941650 1011.387085,556.569824 1006.985352,549.676270 
	C1006.985657,543.674072 1007.171021,538.318176 1007.578491,532.710022 
	C1012.891785,518.434998 1023.306702,509.938568 1036.854004,504.925537 
	C1044.796631,501.986450 1052.978271,499.696686 1060.942139,496.810608 
	C1068.104004,494.215118 1073.395264,489.484924 1076.067993,482.078827 
	C1068.043213,479.588562 1064.875732,474.764709 1067.470825,465.845825 
	C1071.165894,453.146484 1075.799683,440.692078 1080.602295,428.354858 
	C1083.034058,422.108185 1083.732788,422.107941 1077.958740,418.605408 
	C1063.925659,410.093292 1057.133179,397.676208 1056.912231,381.375519 
	C1056.828247,375.178711 1053.681030,372.886810 1047.273804,374.233551 
	C1036.286499,376.543030 1028.103394,372.203156 1021.846680,363.576111 
	C1017.512451,357.599731 1016.823181,357.215393 1009.937866,359.565063 
	C994.616211,364.793793 979.887268,363.963043 965.903625,355.259705 
	C961.783630,352.695404 959.328857,353.471893 957.192688,357.980713 
	C955.485962,361.583038 954.161438,365.371277 952.373779,368.929565 
	C944.645508,384.312744 936.809387,399.641754 929.012390,414.990417 
	C928.200378,415.009979 927.388428,415.029510 926.576416,415.049042 
	C925.033325,412.394409 922.774170,409.914825 922.074707,407.053894 
	C919.446594,396.305359 921.843750,385.952850 925.567017,375.827362 
	C926.733765,372.654236 927.953491,369.500549 929.148987,366.337982 
	C926.446350,366.638336 924.066650,367.237885 922.959167,368.761902 
	C919.124939,374.038452 915.733337,379.636627 912.173279,385.112396 
	C903.660461,367.684845 910.694641,339.582672 926.454224,328.181396 
	C927.521240,327.409485 928.746521,326.341064 929.918518,326.314728 
	C936.653625,326.163452 937.042603,322.216003 937.417969,316.562744 
	C940.127075,275.754700 981.601501,252.204117 1018.279846,270.243256 
	C1019.836731,271.009003 1022.534058,271.103058 1023.954651,270.257568 
	C1057.897095,250.056274 1097.759155,269.363403 1106.388672,301.407013 
	C1106.514526,301.874481 1106.856323,302.283752 1107.090942,302.708557 
	C1155.487305,306.506348 1177.127563,362.126709 1144.185913,397.337524 
	C1153.246460,417.948975 1152.606689,437.702637 1139.938599,456.623169 
	C1138.973389,458.064819 1137.968140,459.479675 1136.334229,460.780975 
	C1135.419800,458.514648 1134.999512,456.379944 1134.920898,454.232697 
	C1134.796143,450.828400 1135.957886,446.835205 1131.850220,445.060760 
	C1126.816528,442.886230 1115.098877,449.214020 1113.636841,454.549103 
	C1108.856812,471.990875 1102.807983,488.977448 1091.378052,503.237793 
	C1086.355469,509.503998 1079.723511,514.505310 1073.624146,519.855225 
	C1072.742798,520.628418 1070.747925,520.132263 1069.268311,520.223450 
	C1069.891602,518.750061 1070.244873,517.055664 1071.217041,515.867798 
	C1072.115845,514.769409 1073.771606,514.330811 1074.933716,513.401367 
	C1094.481812,497.766724 1102.506104,475.637177 1108.949463,452.664734 
	C1109.182983,451.832001 1108.260742,450.128174 1107.407715,449.623169 
	C1099.868530,445.159607 1096.264404,445.834625 1091.805176,453.356995 
	C1089.297485,457.587463 1087.674438,462.388489 1086.011353,467.060120 
	C1084.453247,471.437195 1083.433472,476.002808 1082.061768,480.450012 
	C1078.490234,492.029602 1070.586304,499.295563 1059.234497,502.978699 
	C1054.650024,504.466156 1049.963867,505.638428 1045.365845,507.086609 
	C1033.547119,510.808807 1022.745117,516.138550 1015.766968,527.006409 
	C1009.015381,537.521301 1009.197937,546.558044 1016.422119,556.674194 
	C1019.123657,560.457336 1022.155579,564.029053 1025.282959,567.473816 
	C1026.992920,569.357239 1027.864014,570.921387 1025.828491,572.987549 
z"/>
<path fill="#4F233F" opacity="1.000000" stroke="none" 
	d="
M1180.029175,758.522949 
	C1194.305664,758.522827 1208.082275,758.522827 1222.119141,758.522827 
	C1222.119141,938.785156 1222.119141,1118.500610 1222.119141,1298.527344 
	C1206.593262,1298.527344 1191.165527,1298.527344 1175.330078,1298.527344 
	C1175.330078,1118.811157 1175.330078,938.986694 1175.330078,758.741699 
	C1176.672363,758.671814 1178.100830,758.597473 1180.029175,758.522949 
z"/>
<path fill="#4F233F" opacity="1.000000" stroke="none" 
	d="
M375.036133,1122.000000 
	C375.036133,1181.112305 375.036133,1239.724731 375.036133,1298.587402 
	C359.173248,1298.587402 343.753113,1298.587402 327.921753,1298.587402 
	C327.921753,1118.684082 327.921753,938.873352 327.921753,758.792725 
	C343.536530,758.792725 358.977417,758.792725 375.036133,758.792725 
	C375.036133,879.660583 375.036133,1000.580322 375.036133,1122.000000 
z"/>
<path fill="#FE9D76" opacity="1.000000" stroke="none" 
	d="
M912.112305,385.525696 
	C915.733337,379.636627 919.124939,374.038452 922.959167,368.761902 
	C924.066650,367.237885 926.446350,366.638336 929.148987,366.337982 
	C927.953491,369.500549 926.733765,372.654236 925.567017,375.827362 
	C921.843750,385.952850 919.446594,396.305359 922.074707,407.053894 
	C922.774170,409.914825 925.033325,412.394409 926.576416,415.049042 
	C927.388428,415.029510 928.200378,415.009979 929.012390,414.990417 
	C936.809387,399.641754 944.645508,384.312744 952.373779,368.929565 
	C954.161438,365.371277 955.485962,361.583038 957.192688,357.980713 
	C959.328857,353.471893 961.783630,352.695404 965.903625,355.259705 
	C979.887268,363.963043 994.616211,364.793793 1009.937866,359.565063 
	C1016.823181,357.215393 1017.512451,357.599731 1021.846680,363.576111 
	C1028.103394,372.203156 1036.286499,376.543030 1047.273804,374.233551 
	C1053.681030,372.886810 1056.828247,375.178711 1056.912231,381.375519 
	C1057.133179,397.676208 1063.925659,410.093292 1077.958740,418.605408 
	C1083.732788,422.107941 1083.034058,422.108185 1080.602295,428.354858 
	C1075.799683,440.692078 1071.165894,453.146484 1067.470825,465.845825 
	C1064.875732,474.764709 1068.043213,479.588562 1076.067993,482.078827 
	C1073.395264,489.484924 1068.104004,494.215118 1060.942139,496.810608 
	C1052.978271,499.696686 1044.796631,501.986450 1036.854004,504.925537 
	C1023.306702,509.938568 1012.891785,518.434998 1007.125854,532.700195 
	C995.559753,534.674866 984.600342,535.542908 973.868347,532.451721 
	C949.545166,525.445557 940.524841,505.986206 935.313110,483.987000 
	C937.898071,486.076935 940.108032,488.097931 942.464783,489.930298 
	C954.705322,499.447540 967.641113,507.770569 982.610046,512.369080 
	C983.977722,512.789246 985.760742,511.857208 987.350891,511.553040 
	C986.280151,510.348724 985.436951,508.662323 984.096436,508.029663 
	C979.909119,506.053467 975.161438,505.065491 971.303223,502.629669 
	C960.815918,496.008453 950.632080,488.900757 940.424377,481.846313 
	C937.759583,480.004730 935.514099,477.936798 934.531311,482.964539 
	C933.752808,481.356903 933.379822,479.913452 932.679138,478.651978 
	C929.209534,472.405273 925.653503,466.206635 922.127930,459.991028 
	C921.730957,452.189087 921.333984,444.387177 920.904541,436.136139 
	C921.065735,434.879120 921.174255,434.038757 921.467102,433.268494 
	C923.674133,427.464722 923.654114,423.014160 918.747559,417.494812 
	C911.005371,408.785675 909.933594,397.400513 912.112305,385.525696 
M994.492188,475.121521 
	C990.373962,474.019684 985.804688,473.687439 982.258789,471.609100 
	C978.371277,469.330505 975.527161,465.325226 972.016541,462.319733 
	C970.868286,461.336639 969.056824,461.128235 967.548645,460.565552 
	C967.769287,462.182037 967.438232,464.218109 968.297974,465.348541 
	C975.011597,474.175934 983.299072,480.493347 995.068848,480.059753 
	C997.525024,479.969269 1002.087585,478.510376 1002.040466,478.083282 
	C1001.576599,473.875549 997.795959,475.884216 994.492188,475.121521 
M981.023132,388.019440 
	C987.925537,389.058472 993.284607,392.688751 997.959839,397.708740 
	C998.782959,398.592621 1000.711060,398.447357 1002.128967,398.777405 
	C1001.919556,397.329315 1002.245239,395.220123 1001.410583,394.544678 
	C997.203674,391.140167 993.050049,387.275146 988.183350,385.200623 
	C983.981628,383.409546 978.857361,383.640503 974.118713,383.375183 
	C973.208496,383.324249 972.194885,385.118988 971.229004,386.062256 
	C972.376953,386.723694 973.462402,387.749176 974.687805,387.959808 
	C976.454468,388.263458 978.322876,387.975220 981.023132,388.019440 
M1029.644409,411.757538 
	C1038.462036,411.195099 1045.354858,414.820984 1051.107788,421.288574 
	C1051.965576,422.252838 1053.890381,422.267853 1055.321533,422.722015 
	C1055.282471,421.397247 1055.782959,419.640686 1055.121460,418.814301 
	C1048.224976,410.198944 1039.322998,405.820343 1028.144775,407.094452 
	C1026.968018,407.228607 1025.970947,408.939667 1024.890503,409.919128 
	C1026.177490,410.563293 1027.464600,411.207489 1029.644409,411.757538 
M994.928833,433.521149 
	C995.614319,432.015350 996.562561,430.562317 996.879944,428.982544 
	C997.051208,428.130219 996.370483,426.773010 995.638550,426.195801 
	C995.186584,425.839386 993.693420,426.252563 993.049438,426.783356 
	C989.906738,429.373779 988.344299,436.999420 990.060608,440.632538 
	C991.939026,444.608826 997.742676,447.755127 1002.151978,446.952911 
	C1003.061646,446.787384 1004.362183,445.758026 1004.465515,444.990051 
	C1004.576538,444.164185 1003.697571,442.775757 1002.878784,442.353241 
	C1001.599976,441.693329 999.974609,441.748413 998.555603,441.308563 
	C995.038452,440.218445 993.116577,438.151123 994.928833,433.521149 
M1034.798706,439.410309 
	C1036.111816,436.587219 1037.979248,433.866241 1038.525391,430.901825 
	C1038.841675,429.185364 1037.465454,426.021301 1036.055054,425.440216 
	C1034.628662,424.852631 1031.719604,426.157501 1030.375854,427.530029 
	C1028.866455,429.071686 1027.953247,431.545319 1027.583740,433.748199 
	C1027.268921,435.625610 1027.453857,438.334351 1028.606079,439.484467 
	C1029.608276,440.484772 1032.273193,439.819092 1034.798706,439.410309 
M985.780579,402.864014 
	C983.669373,400.614258 980.792358,400.411011 979.303589,402.657898 
	C977.273987,405.720947 976.089417,409.450073 975.136902,413.050842 
	C974.878784,414.026703 976.509094,416.167084 977.733032,416.684967 
	C978.982422,417.213623 981.574097,416.973938 982.229797,416.080780 
	C984.914185,412.424042 987.714111,408.579071 985.780579,402.864014 
z"/>
<path fill="#FE9D76" opacity="1.000000" stroke="none" 
	d="
M1025.896973,573.370728 
	C1027.864014,570.921387 1026.992920,569.357239 1025.282959,567.473816 
	C1022.155579,564.029053 1019.123657,560.457336 1016.422119,556.674194 
	C1009.197937,546.558044 1009.015381,537.521301 1015.766968,527.006409 
	C1022.745117,516.138550 1033.547119,510.808807 1045.365845,507.086609 
	C1049.963867,505.638428 1054.650024,504.466156 1059.234497,502.978699 
	C1070.586304,499.295563 1078.490234,492.029602 1082.061768,480.450012 
	C1083.433472,476.002808 1084.453247,471.437195 1086.011353,467.060120 
	C1087.674438,462.388489 1089.297485,457.587463 1091.805176,453.356995 
	C1096.264404,445.834625 1099.868530,445.159607 1107.407715,449.623169 
	C1108.260742,450.128174 1109.182983,451.832001 1108.949463,452.664734 
	C1102.506104,475.637177 1094.481812,497.766724 1074.933716,513.401367 
	C1073.771606,514.330811 1072.115845,514.769409 1071.217041,515.867798 
	C1070.244873,517.055664 1069.891602,518.750061 1069.268311,520.223450 
	C1070.747925,520.132263 1072.742798,520.628418 1073.624146,519.855225 
	C1079.723511,514.505310 1086.355469,509.503998 1091.378052,503.237793 
	C1102.807983,488.977448 1108.856812,471.990875 1113.636841,454.549103 
	C1115.098877,449.214020 1126.816528,442.886230 1131.850220,445.060760 
	C1135.957886,446.835205 1134.796143,450.828400 1134.920898,454.232697 
	C1134.999512,456.379944 1135.419800,458.514648 1136.004272,460.878876 
	C1131.642700,477.533569 1123.805420,492.515076 1115.190063,507.138672 
	C1114.010986,509.140198 1112.793091,511.118988 1111.231689,513.631775 
	C1107.041626,520.179321 1103.530273,526.438477 1099.288574,532.155945 
	C1095.650879,537.059204 1095.998901,541.751038 1098.760132,546.422729 
	C1108.377075,562.693665 1118.206299,578.839172 1128.039307,595.341125 
	C1129.123657,596.989502 1130.123413,598.329041 1131.223633,600.001892 
	C1136.151489,606.985962 1140.979126,613.636597 1145.610474,620.519287 
	C1137.837769,624.832153 1130.601074,629.812134 1122.621948,632.826782 
	C1097.631836,642.268311 1071.918823,641.708008 1046.056885,636.237671 
	C1044.361816,630.824646 1042.695679,625.830627 1041.059326,620.493408 
	C1040.536133,618.731079 1039.983398,617.312073 1039.430664,615.893005 
	C1034.942261,601.846619 1030.453857,587.800293 1025.896973,573.370728 
z"/>
<path fill="#502440" opacity="1.000000" stroke="none" 
	d="
M444.070984,575.712830 
	C465.042755,575.041626 486.015869,574.409851 506.985992,573.690491 
	C542.440186,572.474243 577.891479,571.170593 613.346619,569.983948 
	C619.623596,569.773865 625.913574,569.954163 632.671875,569.954163 
	C633.504700,586.509888 634.353699,603.386719 635.240356,621.011719 
	C628.589050,619.697388 622.164856,623.107788 616.250732,618.607361 
	C615.047791,617.692017 612.704712,618.180786 610.887268,618.180481 
	C528.934387,618.164856 446.981537,618.167847 365.028656,618.161133 
	C363.032410,618.160950 361.036163,618.075806 358.676239,617.503418 
	C358.755859,604.376892 359.199127,591.777222 359.642426,579.177490 
	C367.533234,578.763550 375.424042,578.349609 384.224762,577.947510 
	C392.008057,577.617737 398.881409,577.276123 406.243927,576.983215 
	C412.832916,576.709229 418.931946,576.367188 425.034393,576.105042 
	C425.469055,576.086426 425.928864,576.653748 426.988770,576.775940 
	C433.090698,576.306396 438.580841,576.009644 444.070984,575.712830 
z"/>
<path fill="#80C7A7" opacity="1.000000" stroke="none" 
	d="
M1145.806763,620.287231 
	C1140.979126,613.636597 1136.151489,606.985962 1131.649170,600.052734 
	C1137.816650,599.458374 1142.394653,601.808838 1146.672241,605.757812 
	C1158.379028,616.564941 1170.312866,627.128723 1182.295288,637.630859 
	C1183.720337,638.879883 1186.003784,639.149719 1187.889282,639.873352 
	C1196.795898,658.947937 1204.086304,678.568481 1207.998047,699.333191 
	C1208.242188,700.628662 1208.590454,701.904602 1208.932495,703.580078 
	C1197.669312,704.048706 1186.363770,704.183533 1175.058228,704.194214 
	C1145.613281,704.221985 1116.168213,704.195374 1086.425049,703.840942 
	C1089.553711,700.696167 1091.133301,697.239441 1089.378052,692.943542 
	C1087.689087,688.809753 1084.164307,687.683044 1080.016968,687.854797 
	C1079.359619,687.882019 1078.695679,687.749817 1077.993896,687.247620 
	C1077.944336,684.815857 1077.928711,682.827881 1077.928223,680.839844 
	C1077.925659,669.233643 1078.099487,668.711975 1066.940918,665.016968 
	C1054.150269,660.781616 1041.012939,657.593689 1028.056641,653.524292 
	C1028.325806,647.977356 1028.632446,642.858826 1028.788818,637.735718 
	C1029.083374,628.078857 1031.767822,624.317444 1041.029663,620.836670 
	C1042.695679,625.830627 1044.361816,630.824646 1045.687622,636.169067 
	C1044.042603,637.403015 1042.737671,638.286560 1041.432861,639.170044 
	C1042.871094,640.084412 1044.207886,641.539001 1045.762939,641.831116 
	C1065.175415,645.477783 1084.672241,646.377930 1104.228394,642.978149 
	C1119.825684,640.266724 1134.316772,634.786499 1147.140015,625.342590 
	C1148.193848,624.566467 1148.693970,623.038269 1149.451294,621.859497 
	C1148.236450,621.335388 1147.021606,620.811340 1145.806763,620.287231 
z"/>
<path fill="#512541" opacity="1.000000" stroke="none" 
	d="
M346.066620,659.219482 
	C344.627502,647.378052 343.188416,635.536560 341.715149,623.413879 
	C433.188721,623.413879 524.030396,623.413879 615.395630,623.413879 
	C614.474609,634.113892 613.579041,644.518433 612.202393,655.361755 
	C591.084900,656.119690 570.448608,656.450684 549.811890,656.754639 
	C527.010559,657.090332 504.208771,657.403564 481.407135,657.722412 
	C456.441101,658.071594 431.475586,658.464661 406.508789,658.747192 
	C386.362183,658.975159 366.214081,659.067139 346.066620,659.219482 
z"/>
<path fill="#F75555" opacity="1.000000" stroke="none" 
	d="
M405.754791,576.934570 
	C398.881409,577.276123 392.008057,577.617737 384.707916,577.891602 
	C368.776276,568.175354 358.990479,554.248779 355.719696,536.480164 
	C353.403259,523.896179 353.635834,510.916046 363.683563,501.006958 
	C373.666779,491.161591 388.395233,485.722168 402.037842,497.453644 
	C402.777100,498.089325 403.750732,498.452454 404.989166,499.486450 
	C405.520020,502.407593 405.189331,504.154388 402.082092,504.297974 
	C399.989929,504.394623 397.825134,505.103149 395.910095,506.001160 
	C394.822235,506.511230 394.171814,507.954163 393.324402,508.976990 
	C394.677460,509.532623 396.228455,510.824677 397.351196,510.523010 
	C404.052002,508.722443 410.595215,507.798798 417.213165,510.917419 
	C418.047913,511.310822 419.513306,510.365875 420.686523,510.041016 
	C420.181458,508.952820 419.965881,507.352539 419.116913,506.872589 
	C416.576813,505.436493 413.788910,504.438721 410.908051,503.187500 
	C411.308929,500.702087 411.701691,498.266937 412.094482,495.831787 
	C428.077850,482.735168 442.442780,487.949341 455.115784,501.034393 
	C465.544769,511.802551 468.487152,524.495178 463.981750,538.749268 
	C459.761932,552.100037 455.008942,565.228516 444.299133,575.492310 
	C438.580841,576.009644 433.090698,576.306396 426.876282,576.849121 
	C423.476288,576.652649 420.460144,576.850708 418.190704,575.644226 
	C412.135590,572.425232 411.088379,572.296021 405.754791,576.934570 
z"/>
<path fill="#F65556" opacity="1.000000" stroke="none" 
	d="
M345.707642,659.342346 
	C366.214081,659.067139 386.362183,658.975159 406.508789,658.747192 
	C431.475586,658.464661 456.441101,658.071594 481.407135,657.722412 
	C504.208771,657.403564 527.010559,657.090332 549.811890,656.754639 
	C570.448608,656.450684 591.084900,656.119690 612.154541,655.803345 
	C623.832275,655.806091 635.076721,655.806091 647.085144,655.806091 
	C647.085144,671.339111 647.085144,687.176270 647.086548,703.478455 
	C645.259277,704.000610 643.430481,704.107605 641.601746,704.107788 
	C544.175354,704.115845 446.748932,704.114929 349.322540,704.114929 
	C347.362366,704.114929 345.402191,704.114868 343.110565,704.114868 
	C342.762665,700.700500 342.463135,697.760437 342.666687,694.392029 
	C438.712799,693.963684 534.255798,693.963684 629.690796,693.963684 
	C629.690796,684.845459 629.690796,676.428162 629.690796,667.606995 
	C533.238342,668.418030 437.142456,669.226013 341.046570,670.034058 
	C340.724792,666.953979 340.402985,663.873962 340.045227,660.363953 
	C341.789093,659.777771 343.568848,659.621521 345.707642,659.342346 
z"/>
<path fill="#81C7A8" opacity="1.000000" stroke="none" 
	d="
M735.947998,1252.189941 
	C731.260559,1250.376587 730.195068,1246.681152 730.802795,1242.168335 
	C730.934082,1241.193604 731.137390,1240.155396 731.604431,1239.310425 
	C737.667969,1228.339478 738.740723,1216.321289 739.166748,1204.139404 
	C739.241211,1202.009521 739.786926,1199.896118 740.202759,1197.207642 
	C748.131042,1197.207642 755.907898,1197.088379 763.678101,1197.262939 
	C767.051147,1197.338623 768.686890,1196.630737 769.069275,1192.747681 
	C769.876953,1184.547729 777.078857,1178.582397 785.961121,1178.000000 
	C799.894043,1177.086548 806.892944,1182.404785 810.526550,1197.208130 
	C815.122986,1197.208130 819.896057,1197.208130 824.669067,1197.208130 
	C829.279541,1197.208130 833.889954,1197.208130 838.748169,1197.208130 
	C839.103699,1204.714478 839.894775,1211.659302 839.625366,1218.562866 
	C839.372070,1225.053955 840.949524,1230.508301 844.863708,1235.644165 
	C846.611816,1237.937866 848.150818,1240.923096 848.384949,1243.711914 
	C848.721680,1247.723633 846.619263,1251.062622 842.263550,1252.354492 
	C841.377808,1250.400879 841.243225,1248.250854 840.099121,1247.203735 
	C833.008789,1240.714722 826.205627,1233.720215 818.320374,1228.339722 
	C808.333496,1221.525146 796.817078,1218.801392 784.547485,1220.726929 
	C765.702087,1223.684204 751.154602,1234.151245 738.233582,1247.365479 
	C737.057373,1248.568481 736.690613,1250.562988 735.947998,1252.189941 
M797.406433,1210.717041 
	C798.903931,1210.716919 800.495850,1211.039795 801.875549,1210.636597 
	C803.676453,1210.110352 805.309448,1209.009277 807.014709,1208.155518 
	C805.394531,1207.198486 803.795288,1205.457031 802.150818,1205.413330 
	C792.340637,1205.152588 782.516968,1205.156128 772.705994,1205.401489 
	C770.950195,1205.445435 769.232971,1207.032837 767.497925,1207.907593 
	C769.321350,1208.844116 771.116211,1210.516846 772.973145,1210.588989 
	C780.781799,1210.892090 788.608948,1210.716797 797.406433,1210.717041 
z"/>
<path fill="#81C7A8" opacity="1.000000" stroke="none" 
	d="
M936.800293,1257.306274 
	C931.620544,1255.347900 929.561340,1251.149536 931.211548,1245.856445 
	C931.408081,1245.226318 931.615112,1244.521240 932.039551,1244.052002 
	C940.531372,1234.665161 940.214905,1223.153931 939.939087,1211.637207 
	C939.868469,1208.690186 939.928467,1205.739990 939.928467,1202.311279 
	C949.787354,1202.311279 959.039062,1202.311279 968.433289,1202.311279 
	C969.017639,1200.176514 969.394714,1198.420288 969.977295,1196.735107 
	C972.658569,1188.979126 978.016174,1184.040894 986.177673,1183.106323 
	C994.331909,1182.172363 1002.283752,1182.890625 1007.458374,1190.698486 
	C1008.363464,1192.064087 1009.526306,1193.664062 1009.525330,1195.155029 
	C1009.520935,1201.876831 1013.380493,1202.706177 1018.892822,1202.293823 
	C1024.189087,1201.897583 1029.550903,1202.432617 1034.859375,1202.129272 
	C1038.424194,1201.925537 1039.615479,1203.522827 1039.801636,1206.660645 
	C1039.988525,1209.812012 1040.474487,1212.962769 1040.427979,1216.107788 
	C1040.273926,1226.526245 1043.682007,1235.953979 1047.817627,1245.299683 
	C1049.983154,1250.193115 1048.351685,1253.820801 1043.204590,1256.693848 
	C1042.088501,1254.912231 1041.662720,1253.098267 1040.519409,1252.146606 
	C1033.378784,1246.202759 1026.501953,1239.792358 1018.728821,1234.794678 
	C1007.628174,1227.657715 995.329529,1223.689819 981.770996,1225.646851 
	C963.529114,1228.279785 950.156860,1238.809937 938.708313,1252.351685 
	C937.628967,1253.628418 937.415649,1255.637329 936.800293,1257.306274 
M1009.485229,1215.513672 
	C1010.170471,1214.368164 1010.855713,1213.222656 1011.541077,1212.077026 
	C1010.154236,1211.420044 1008.776245,1210.216309 1007.379150,1210.193604 
	C997.264893,1210.030151 987.143799,1209.980957 977.032837,1210.226685 
	C975.346436,1210.267700 972.365540,1211.805664 972.277283,1212.846436 
	C971.981262,1216.340332 975.110901,1215.688354 977.313538,1215.695312 
	C987.761658,1215.728027 998.210022,1215.685303 1009.485229,1215.513672 
z"/>
<path fill="#81C7A8" opacity="1.000000" stroke="none" 
	d="
M1127.954834,595.032288 
	C1118.206299,578.839172 1108.377075,562.693665 1098.760132,546.422729 
	C1095.998901,541.751038 1095.650879,537.059204 1099.288574,532.155945 
	C1103.530273,526.438477 1107.041626,520.179321 1111.099487,513.971558 
	C1116.880371,519.677551 1123.748901,524.790894 1127.757202,531.590271 
	C1145.983398,562.508423 1163.412720,593.896606 1181.091064,625.137024 
	C1181.981445,626.710266 1182.522095,628.481506 1182.820435,630.516174 
	C1171.899414,621.480774 1161.312134,612.167786 1150.893188,602.670288 
	C1144.318359,596.676880 1137.002197,593.374146 1127.954834,595.032288 
z"/>
<path fill="#F75757" opacity="1.000000" stroke="none" 
	d="
M701.546753,337.186951 
	C711.372742,338.616089 718.147705,343.160126 720.643005,352.781067 
	C723.325745,363.124512 720.289551,371.605896 711.724915,377.829285 
	C706.221924,381.827942 700.275818,385.212128 694.597168,388.975708 
	C691.952454,390.728577 689.471313,392.728363 686.318909,395.057373 
	C692.848145,399.524200 699.118408,399.015900 705.150574,399.352722 
	C705.808838,399.389496 706.639648,397.857239 707.251221,396.958038 
	C710.957947,391.507996 717.704895,391.667755 721.175415,397.314850 
	C725.969177,405.115021 722.481506,413.572113 713.508728,415.168060 
	C701.848206,417.242065 690.521973,415.510468 680.020142,410.178925 
	C669.022095,404.595490 667.301208,392.542389 676.357056,384.173157 
	C680.579163,380.271149 685.840881,377.486664 690.665039,374.245728 
	C694.382874,371.748077 698.217163,369.419678 701.880493,366.846283 
	C704.948730,364.690918 705.570435,361.512390 705.056030,357.959839 
	C704.356262,353.126831 701.664429,351.225220 697.014465,352.970764 
	C693.145325,354.423187 689.431580,356.364105 685.807373,358.374207 
	C681.918823,360.530823 678.698914,359.740295 676.078308,356.521576 
	C673.460754,353.306549 674.014160,349.891785 676.663635,347.001404 
	C683.213196,339.856476 691.219971,336.101990 701.546753,337.186951 
z"/>
<path fill="#F75757" opacity="1.000000" stroke="none" 
	d="
M847.755249,276.324493 
	C846.581299,273.321106 845.218384,270.599518 844.988281,267.785248 
	C844.584717,262.851746 844.875671,257.861420 844.875671,252.849518 
	C841.969360,252.615845 839.332642,252.449814 836.705872,252.184662 
	C825.531982,251.056793 819.559448,245.367020 819.169617,234.258514 
	C818.896484,226.474136 819.578369,218.629684 820.254272,210.848572 
	C820.657349,206.207397 824.677673,202.827103 828.547485,203.023209 
	C832.720154,203.234665 835.808960,206.444962 835.802551,211.639206 
	C835.795410,217.447601 834.992249,223.251022 834.673340,229.064163 
	C834.361145,234.755859 835.816711,236.354889 841.223145,236.675873 
	C844.721008,236.883530 846.805115,235.832657 846.873657,231.750534 
	C846.985413,225.099182 847.447632,218.449097 847.926636,211.810364 
	C848.195923,208.077667 849.882507,205.203033 853.607849,203.733582 
	C859.074524,201.577240 864.089600,204.446838 864.115295,210.320496 
	C864.139282,215.791412 863.212952,221.259521 863.032410,226.739655 
	C862.588867,240.206879 862.343201,253.680573 861.999512,267.151184 
	C861.769531,276.162750 856.440552,279.754883 847.755249,276.324493 
z"/>
<path fill="#80C7A7" opacity="1.000000" stroke="none" 
	d="
M838.046509,1253.761963 
	C805.339844,1253.751831 772.633118,1253.741699 739.604004,1253.453247 
	C740.532959,1252.120483 741.741943,1251.010376 743.042908,1250.020996 
	C750.680176,1244.212769 757.842590,1237.576904 766.080383,1232.798096 
	C794.725220,1216.180664 821.954834,1231.139893 838.046509,1253.761963 
z"/>
<path fill="#80C7A7" opacity="1.000000" stroke="none" 
	d="
M1040.036743,1258.222656 
	C1039.238037,1258.398193 1038.439209,1258.727173 1037.640503,1258.726929 
	C1005.318420,1258.716553 972.996277,1258.676392 940.547607,1258.277832 
	C944.881714,1253.467773 949.049133,1248.669312 953.862915,1244.643799 
	C964.731018,1235.555542 976.966187,1229.662720 991.639465,1230.879517 
	C1002.530090,1231.782715 1012.191284,1236.223022 1020.897705,1242.451172 
	C1027.605591,1247.249512 1033.680420,1252.932861 1040.036743,1258.222656 
z"/>
<path fill="#81C7A8" opacity="1.000000" stroke="none" 
	d="
M750.678223,264.792419 
	C755.227661,259.887115 760.481628,260.295013 765.694519,262.119141 
	C771.784302,264.250061 774.800293,269.244324 775.853271,275.273499 
	C776.387573,278.332764 776.643677,281.816040 775.700256,284.669495 
	C774.302490,288.897430 775.936768,290.364624 779.311523,292.291290 
	C789.520081,298.119537 795.647217,311.703003 793.119446,321.444000 
	C791.619873,327.222565 787.786377,331.027924 782.750366,333.534149 
	C774.671570,337.554565 766.247681,338.344391 757.660645,334.954559 
	C753.759338,333.414520 751.029785,330.881897 751.551758,326.407074 
	C752.065857,321.999969 755.554871,319.608948 760.682373,319.826111 
	C764.294983,319.979156 768.008728,321.024719 771.464905,320.432312 
	C773.755127,320.039734 777.340454,317.488373 777.372925,315.844666 
	C777.425659,313.173981 775.649048,309.733978 773.526245,307.948029 
	C771.137207,305.937988 767.534607,305.325989 764.410278,304.249817 
	C762.377930,303.549774 760.214600,303.229401 758.183228,302.526978 
	C749.993103,299.694794 748.777893,293.306885 755.271362,287.461273 
	C756.380493,286.462769 757.657349,285.610626 758.605347,284.480072 
	C761.959412,280.480072 761.309998,278.462128 756.269470,276.797180 
	C749.998901,274.725861 748.095581,270.906708 750.678223,264.792419 
z"/>
<path fill="#81C7A8" opacity="1.000000" stroke="none" 
	d="
M617.830688,458.869202 
	C617.147095,444.707703 616.418640,430.966644 615.877625,417.218170 
	C615.773987,414.583496 615.881592,412.646057 612.632629,411.532776 
	C608.030640,409.955963 605.674072,405.550323 606.730225,401.833405 
	C608.074646,397.101807 611.819214,396.082886 616.113220,396.115173 
	C627.768860,396.202820 631.830139,400.550537 631.954102,412.279419 
	C632.129333,428.855865 632.595215,445.429230 632.934265,461.878265 
	C635.300415,462.635071 636.986145,462.653290 637.658997,463.487976 
	C639.609619,465.907684 642.419006,468.590485 642.557129,471.289520 
	C642.759277,475.238861 639.373718,478.083008 635.292480,478.059601 
	C627.982605,478.017670 620.635010,477.645966 613.385681,476.746887 
	C609.533813,476.269196 606.786804,473.620636 606.910889,469.138824 
	C607.025085,465.017975 609.289001,462.889832 613.157227,461.857910 
	C614.831299,461.411285 616.292969,460.168304 617.830688,458.869202 
z"/>
<path fill="#F65556" opacity="1.000000" stroke="none" 
	d="
M359.221802,579.055542 
	C359.199127,591.777222 358.755859,604.376892 358.235138,617.366699 
	C355.845062,617.849731 353.519989,617.822998 351.222382,618.061157 
	C346.681274,618.531860 342.053955,616.872375 337.619629,620.503906 
	C335.652100,622.115234 331.268036,620.775879 327.359589,620.775879 
	C328.223419,607.125305 329.065125,593.823730 329.959381,579.692017 
	C339.730103,579.435120 349.265625,579.184326 359.221802,579.055542 
z"/>
<path fill="#542B43" opacity="1.000000" stroke="none" 
	d="
M838.382568,1253.866943 
	C821.954834,1231.139893 794.725220,1216.180664 766.080383,1232.798096 
	C757.842590,1237.576904 750.680176,1244.212769 743.042908,1250.020996 
	C741.741943,1251.010376 740.532959,1252.120483 739.135010,1253.460815 
	C738.093079,1253.387085 737.197632,1253.027344 736.125122,1252.428711 
	C736.690613,1250.562988 737.057373,1248.568481 738.233582,1247.365479 
	C751.154602,1234.151245 765.702087,1223.684204 784.547485,1220.726929 
	C796.817078,1218.801392 808.333496,1221.525146 818.320374,1228.339722 
	C826.205627,1233.720215 833.008789,1240.714722 840.099121,1247.203735 
	C841.243225,1248.250854 841.377808,1250.400879 841.924255,1252.414917 
	C840.819214,1253.183105 839.768982,1253.577515 838.382568,1253.866943 
z"/>
<path fill="#542B43" opacity="1.000000" stroke="none" 
	d="
M1040.347168,1258.183960 
	C1033.680420,1252.932861 1027.605591,1247.249512 1020.897705,1242.451172 
	C1012.191284,1236.223022 1002.530090,1231.782715 991.639465,1230.879517 
	C976.966187,1229.662720 964.731018,1235.555542 953.862915,1244.643799 
	C949.049133,1248.669312 944.881714,1253.467773 940.154663,1258.150269 
	C939.028748,1258.166138 938.169189,1257.947144 937.054993,1257.517212 
	C937.415649,1255.637329 937.628967,1253.628418 938.708313,1252.351685 
	C950.156860,1238.809937 963.529114,1228.279785 981.770996,1225.646851 
	C995.329529,1223.689819 1007.628174,1227.657715 1018.728821,1234.794678 
	C1026.501953,1239.792358 1033.378784,1246.202759 1040.519409,1252.146606 
	C1041.662720,1253.098267 1042.088501,1254.912231 1042.834473,1256.695190 
	C1042.101074,1257.423706 1041.379272,1257.784546 1040.347168,1258.183960 
z"/>
<path fill="#542B43" opacity="1.000000" stroke="none" 
	d="
M412.047119,495.379944 
	C411.701691,498.266937 411.308929,500.702087 410.908051,503.187500 
	C413.788910,504.438721 416.576813,505.436493 419.116913,506.872589 
	C419.965881,507.352539 420.181458,508.952820 420.686523,510.041016 
	C419.513306,510.365875 418.047913,511.310822 417.213165,510.917419 
	C410.595215,507.798798 404.052002,508.722443 397.351196,510.523010 
	C396.228455,510.824677 394.677460,509.532623 393.324402,508.976990 
	C394.171814,507.954163 394.822235,506.511230 395.910095,506.001160 
	C397.825134,505.103149 399.989929,504.394623 402.082092,504.297974 
	C405.189331,504.154388 405.520020,502.407593 405.336243,499.607178 
	C405.883728,487.862915 403.586243,477.422333 395.944580,468.617920 
	C395.291748,467.865753 394.597046,467.140472 394.023834,466.330505 
	C392.093079,463.602173 392.224884,460.963654 394.881165,458.859650 
	C397.522858,456.767242 400.150635,457.108398 402.325989,459.718842 
	C408.771667,467.453796 411.301910,476.626678 411.931152,486.446045 
	C412.111694,489.263306 411.985413,492.100220 412.047119,495.379944 
z"/>
<path fill="#F65556" opacity="1.000000" stroke="none" 
	d="
M329.539917,659.982483 
	C330.794769,674.492432 331.588196,688.953491 332.418823,704.093384 
	C328.479095,704.093384 325.225586,704.093384 321.518463,704.026123 
	C319.999420,689.498413 318.933990,675.038086 317.821106,659.933533 
	C321.893738,659.933533 325.486084,659.933533 329.539917,659.982483 
z"/>
<path fill="#542B43" opacity="1.000000" stroke="none" 
	d="
M1128.039307,595.341125 
	C1137.002197,593.374146 1144.318359,596.676880 1150.893188,602.670288 
	C1161.312134,612.167786 1171.899414,621.480774 1182.760864,630.890137 
	C1183.106323,630.908508 1183.085327,630.926270 1183.088135,631.211426 
	C1183.407104,631.682739 1183.723022,631.868958 1184.039062,632.055176 
	C1185.376343,634.461731 1186.713623,636.868347 1187.969971,639.574158 
	C1186.003784,639.149719 1183.720337,638.879883 1182.295288,637.630859 
	C1170.312866,627.128723 1158.379028,616.564941 1146.672241,605.757812 
	C1142.394653,601.808838 1137.816650,599.458374 1131.548828,599.719360 
	C1130.123413,598.329041 1129.123657,596.989502 1128.039307,595.341125 
z"/>
<path fill="#81C7A8" opacity="1.000000" stroke="none" 
	d="
M1184.001343,631.769165 
	C1183.723022,631.868958 1183.407104,631.682739 1183.079834,631.211914 
	C1183.366943,631.112610 1183.665283,631.297913 1184.001343,631.769165 
z"/>
<path fill="#FFFEFE" opacity="1.000000" stroke="none" 
	d="
M340.978088,670.489502 
	C437.142456,669.226013 533.238342,668.418030 629.690796,667.606995 
	C629.690796,676.428162 629.690796,684.845459 629.690796,693.963684 
	C534.255798,693.963684 438.712799,693.963684 342.722412,693.968323 
	C341.819916,686.296936 341.364777,678.620911 340.978088,670.489502 
z"/>
<path fill="#FE9D76" opacity="1.000000" stroke="none" 
	d="
M921.024658,659.917908 
	C921.714050,661.990601 922.403442,664.063232 922.881653,666.777832 
	C918.409119,670.490417 914.147705,673.561096 910.996460,675.831848 
	C900.258118,669.987305 890.027405,664.419128 879.899841,658.547974 
	C879.280457,656.433472 879.068970,654.003967 877.750183,652.913574 
	C870.597351,646.999512 863.653381,640.595215 855.714294,635.931152 
	C846.189270,630.335205 835.761353,626.262390 825.642700,621.711975 
	C824.662842,621.271362 823.106812,622.111816 821.818359,622.357544 
	C822.541382,623.596191 823.096619,624.990417 824.048218,626.017334 
	C824.654236,626.671204 825.891235,626.696045 826.772339,627.145874 
	C837.688660,632.719788 848.831787,637.909546 859.394470,644.090332 
	C864.513855,647.085876 868.538391,651.952393 872.646362,656.063904 
	C859.449158,654.454224 846.689270,651.638184 833.872559,651.350525 
	C819.851929,651.035828 805.703552,652.461670 791.748535,654.220642 
	C776.091370,656.194214 760.930664,660.472961 746.722290,667.690674 
	C743.417725,669.369324 741.576294,671.312500 741.997498,675.340942 
	C742.427551,679.455322 742.165710,683.642090 741.799561,687.855103 
	C733.690186,688.970459 730.088135,693.530762 732.673889,699.197754 
	C733.470886,700.944397 734.964478,702.373108 736.139099,703.947388 
	C732.116089,704.007935 728.093018,704.068542 723.625977,704.075806 
	C723.328003,697.991882 722.148438,691.555298 723.849365,686.000732 
	C731.284302,661.721130 745.703125,642.410278 768.356873,630.370972 
	C776.908142,625.826416 786.408936,622.725403 795.813904,620.242920 
	C802.874756,618.379028 808.763672,615.746887 812.917847,609.308472 
	C813.000000,609.000061 812.949585,608.973938 812.949585,608.973938 
	C815.942444,606.551758 818.935303,604.129578 822.427124,601.315674 
	C824.679443,599.633240 826.432800,598.342529 828.511658,596.995422 
	C830.066711,596.534119 831.296387,596.129211 832.849365,596.040833 
	C833.956238,596.573059 834.749817,597.007751 835.521667,596.971985 
	C850.045166,596.299316 861.399414,602.568054 871.277039,612.669250 
	C885.923096,627.646912 900.785828,642.413818 915.670593,657.155090 
	C917.032104,658.503357 919.220398,659.016785 921.024658,659.917908 
z"/>
<path fill="#F75454" opacity="1.000000" stroke="none" 
	d="
M736.587769,704.026428 
	C734.964478,702.373108 733.470886,700.944397 732.673889,699.197754 
	C730.088135,693.530762 733.690186,688.970459 742.251099,687.911560 
	C853.759216,687.929382 964.408508,687.949463 1075.057739,687.956604 
	C1076.050049,687.956665 1077.042480,687.783569 1078.034790,687.691345 
	C1078.695679,687.749817 1079.359619,687.882019 1080.016968,687.854797 
	C1084.164307,687.683044 1087.689087,688.809753 1089.378052,692.943542 
	C1091.133301,697.239441 1089.553711,700.696167 1085.941650,703.816406 
	C969.516479,704.129395 853.276428,704.117432 736.587769,704.026428 
z"/>
<path fill="#FFFEFE" opacity="1.000000" stroke="none" 
	d="
M1077.993896,687.247620 
	C1077.042480,687.783569 1076.050049,687.956665 1075.057739,687.956604 
	C964.408508,687.949463 853.759216,687.929382 742.658447,687.853577 
	C742.165710,683.642090 742.427551,679.455322 741.997498,675.340942 
	C741.576294,671.312500 743.417725,669.369324 746.722290,667.690674 
	C760.930664,660.472961 776.091370,656.194214 791.748535,654.220642 
	C805.703552,652.461670 819.851929,651.035828 833.872559,651.350525 
	C846.689270,651.638184 859.449158,654.454224 872.626404,656.075562 
	C873.018677,655.995117 873.014038,655.950256 873.096985,656.276733 
	C873.612061,656.675415 874.044189,656.747559 874.745056,657.007202 
	C876.608093,657.746704 878.202393,658.298828 879.796692,658.850952 
	C890.027405,664.419128 900.258118,669.987305 910.996460,675.831848 
	C914.147705,673.561096 918.409119,670.490417 922.911011,667.163574 
	C948.753479,652.454651 976.430054,649.290771 1005.160400,651.802856 
	C1010.788513,652.294861 1016.427856,652.657776 1022.736572,653.410461 
	C1024.949463,653.810669 1026.487915,653.880676 1028.026245,653.950684 
	C1041.012939,657.593689 1054.150269,660.781616 1066.940918,665.016968 
	C1078.099487,668.711975 1077.925659,669.233643 1077.928223,680.839844 
	C1077.928711,682.827881 1077.944336,684.815857 1077.993896,687.247620 
z"/>
<path fill="#F65556" opacity="1.000000" stroke="none" 
	d="
M838.973450,539.196350 
	C849.203003,554.677673 859.432495,570.158936 869.982178,586.229797 
	C878.079956,598.569641 885.919983,610.279358 893.597168,622.094910 
	C895.901733,625.641663 897.752563,629.483337 899.478882,633.130615 
	C892.608276,626.673401 886.021973,620.323486 879.542786,613.866089 
	C869.563293,603.920288 859.457275,594.221558 844.595093,591.754028 
	C840.703308,585.567505 836.832825,579.719788 832.899414,573.549683 
	C831.607788,571.459717 830.379211,569.692078 829.150635,567.924438 
	C824.424072,560.717346 819.711426,553.501099 814.967224,546.305664 
	C809.611450,538.182617 810.073547,531.635071 816.359619,527.114624 
	C822.436890,522.744324 828.882812,524.761230 834.981689,533.403625 
	C836.506592,535.703491 837.739990,537.449951 838.973450,539.196350 
z"/>
<path fill="#FFFEFE" opacity="1.000000" stroke="none" 
	d="
M922.097656,460.459473 
	C925.653503,466.206635 929.209534,472.405273 932.679138,478.651978 
	C933.379822,479.913452 933.752808,481.356903 934.593140,483.116089 
	C934.909363,483.515686 935.005920,483.831024 935.005920,483.831024 
	C940.524841,505.986206 949.545166,525.445557 973.868347,532.451721 
	C984.600342,535.542908 995.559753,534.674866 1006.903809,532.952393 
	C1007.171021,538.318176 1006.985657,543.674072 1006.721130,549.490723 
	C996.876099,550.064026 986.971619,551.282654 977.370544,550.079773 
	C949.716736,546.615173 934.414062,528.876343 927.028137,503.350159 
	C923.036133,489.553558 921.833557,475.290375 922.097656,460.459473 
z"/>
<path fill="#FE9D76" opacity="1.000000" stroke="none" 
	d="
M899.811218,633.189880 
	C897.752563,629.483337 895.901733,625.641663 893.597168,622.094910 
	C885.919983,610.279358 878.079956,598.569641 870.163452,586.530090 
	C885.015320,584.583008 895.005310,591.736389 900.667175,604.860596 
	C906.888977,619.282593 912.219421,634.089600 917.896179,648.745117 
	C918.183960,649.488098 918.073669,650.385254 917.742065,651.551270 
	C912.234619,646.546936 907.133789,641.201843 901.955322,635.643799 
	C901.715088,635.152710 901.477234,634.976135 901.117188,634.913818 
	C901.070374,634.926758 901.132141,634.851746 901.098633,634.552002 
	C900.667236,633.855591 900.269348,633.458862 899.876953,633.103760 
	C899.882385,633.145325 899.811218,633.189880 899.811218,633.189880 
z"/>
<path fill="#542B43" opacity="1.000000" stroke="none" 
	d="
M812.986938,608.974915 
	C810.936401,608.425842 808.779480,608.172668 806.880249,607.335266 
	C791.510620,600.557922 776.059448,594.137817 759.491577,590.665649 
	C746.441772,587.930908 734.134216,589.745300 723.060669,596.683044 
	C713.520813,602.659851 704.843689,610.003967 695.659302,616.567444 
	C694.214355,617.600037 692.102112,617.698792 690.298401,618.229370 
	C690.946777,616.540649 691.131958,614.364685 692.315857,613.239380 
	C702.987427,603.095764 714.766235,594.531982 728.304077,588.492432 
	C739.466125,583.512756 751.160706,582.989685 762.433411,586.431580 
	C778.433289,591.316833 794.025208,597.558716 809.686462,603.497803 
	C811.115051,604.039490 811.782227,606.588989 812.876282,608.590088 
	C812.949585,608.973938 813.000000,609.000061 812.986938,608.974915 
z"/>
<path fill="#542B43" opacity="1.000000" stroke="none" 
	d="
M902.032959,635.856750 
	C907.133789,641.201843 912.234619,646.546936 917.668091,651.962646 
	C918.000732,652.033264 918.003235,651.987549 918.020996,652.285400 
	C918.329895,652.848755 918.621033,653.114197 918.912109,653.379639 
	C919.708008,655.360107 920.503906,657.340576 921.162231,659.619507 
	C919.220398,659.016785 917.032104,658.503357 915.670593,657.155090 
	C900.785828,642.413818 885.923096,627.646912 871.277039,612.669250 
	C861.399414,602.568054 850.045166,596.299316 835.521667,596.971985 
	C834.749817,597.007751 833.956238,596.573059 832.892517,595.643494 
	C834.016541,593.947571 835.317810,592.386902 836.848450,592.114319 
	C839.359436,591.667236 842.019287,592.056396 844.616394,592.092773 
	C859.457275,594.221558 869.563293,603.920288 879.542786,613.866089 
	C886.021973,620.323486 892.608276,626.673401 899.478882,633.130615 
	C899.811218,633.189880 899.882385,633.145325 899.864685,633.409912 
	C900.275391,634.066956 900.703735,634.459351 901.132141,634.851746 
	C901.132141,634.851746 901.070374,634.926758 901.157959,635.151978 
	C901.412048,635.694641 901.674500,635.854492 902.032959,635.856750 
z"/>
<path fill="#542B43" opacity="1.000000" stroke="none" 
	d="
M1028.056641,653.524292 
	C1026.487915,653.880676 1024.949463,653.810669 1023.175415,653.441772 
	C1023.243408,648.364136 1023.947571,643.570496 1023.770630,638.809570 
	C1023.353027,627.565857 1028.535889,620.309143 1039.083252,616.068542 
	C1039.983398,617.312073 1040.536133,618.731079 1041.059326,620.493408 
	C1031.767822,624.317444 1029.083374,628.078857 1028.788818,637.735718 
	C1028.632446,642.858826 1028.325806,647.977356 1028.056641,653.524292 
z"/>
<path fill="#542B43" opacity="1.000000" stroke="none" 
	d="
M839.213318,538.880981 
	C837.739990,537.449951 836.506592,535.703491 835.229736,533.663208 
	C837.429199,522.519775 839.575745,511.648468 842.013428,500.842896 
	C842.403809,499.112518 844.097046,497.676056 845.188110,496.103729 
	C845.723877,498.081604 847.005249,500.194702 846.674988,502.015564 
	C844.459106,514.233582 841.900574,526.389526 839.213318,538.880981 
z"/>
<path fill="#542B43" opacity="1.000000" stroke="none" 
	d="
M828.929443,568.250244 
	C830.379211,569.692078 831.607788,571.459717 832.717529,573.905884 
	C831.127747,582.073486 829.656982,589.562683 828.186218,597.051819 
	C826.432800,598.342529 824.679443,599.633240 822.626587,601.038757 
	C824.454102,590.294373 826.581177,579.435242 828.929443,568.250244 
z"/>
<path fill="#FE9D76" opacity="1.000000" stroke="none" 
	d="
M918.872009,653.066772 
	C918.621033,653.114197 918.329895,652.848755 917.997864,652.286072 
	C918.248596,652.243835 918.540222,652.498840 918.872009,653.066772 
z"/>
<path fill="#542B43" opacity="1.000000" stroke="none" 
	d="
M935.313110,483.987000 
	C935.005920,483.831024 934.909363,483.515686 934.847534,483.364166 
	C935.514099,477.936798 937.759583,480.004730 940.424377,481.846313 
	C950.632080,488.900757 960.815918,496.008453 971.303223,502.629669 
	C975.161438,505.065491 979.909119,506.053467 984.096436,508.029663 
	C985.436951,508.662323 986.280151,510.348724 987.350891,511.553040 
	C985.760742,511.857208 983.977722,512.789246 982.610046,512.369080 
	C967.641113,507.770569 954.705322,499.447540 942.464783,489.930298 
	C940.108032,488.097931 937.898071,486.076935 935.313110,483.987000 
z"/>
<path fill="#542B43" opacity="1.000000" stroke="none" 
	d="
M994.930542,475.128723 
	C997.795959,475.884216 1001.576599,473.875549 1002.040466,478.083282 
	C1002.087585,478.510376 997.525024,479.969269 995.068848,480.059753 
	C983.299072,480.493347 975.011597,474.175934 968.297974,465.348541 
	C967.438232,464.218109 967.769287,462.182037 967.548645,460.565552 
	C969.056824,461.128235 970.868286,461.336639 972.016541,462.319733 
	C975.527161,465.325226 978.371277,469.330505 982.258789,471.609100 
	C985.804688,473.687439 990.373962,474.019684 994.930542,475.128723 
z"/>
<path fill="#542B43" opacity="1.000000" stroke="none" 
	d="
M980.585449,387.979492 
	C978.322876,387.975220 976.454468,388.263458 974.687805,387.959808 
	C973.462402,387.749176 972.376953,386.723694 971.229004,386.062256 
	C972.194885,385.118988 973.208496,383.324249 974.118713,383.375183 
	C978.857361,383.640503 983.981628,383.409546 988.183350,385.200623 
	C993.050049,387.275146 997.203674,391.140167 1001.410583,394.544678 
	C1002.245239,395.220123 1001.919556,397.329315 1002.128906,398.777405 
	C1000.711060,398.447357 998.782959,398.592621 997.959839,397.708740 
	C993.284607,392.688751 987.925537,389.058472 980.585449,387.979492 
z"/>
<path fill="#542B43" opacity="1.000000" stroke="none" 
	d="
M1029.197998,411.804596 
	C1027.464600,411.207489 1026.177490,410.563293 1024.890503,409.919128 
	C1025.970947,408.939667 1026.968018,407.228607 1028.144775,407.094452 
	C1039.322998,405.820343 1048.224976,410.198944 1055.121460,418.814301 
	C1055.782959,419.640686 1055.282471,421.397247 1055.321533,422.722015 
	C1053.890381,422.267853 1051.965576,422.252838 1051.107788,421.288574 
	C1045.354858,414.820984 1038.462036,411.195099 1029.197998,411.804596 
z"/>
<path fill="#542B43" opacity="1.000000" stroke="none" 
	d="
M994.763672,433.874023 
	C993.116577,438.151123 995.038452,440.218445 998.555603,441.308563 
	C999.974609,441.748413 1001.599976,441.693329 1002.878784,442.353241 
	C1003.697571,442.775757 1004.576538,444.164185 1004.465515,444.990051 
	C1004.362183,445.758026 1003.061646,446.787384 1002.151978,446.952911 
	C997.742676,447.755127 991.939026,444.608826 990.060608,440.632538 
	C988.344299,436.999420 989.906738,429.373779 993.049438,426.783356 
	C993.693420,426.252563 995.186584,425.839386 995.638550,426.195801 
	C996.370483,426.773010 997.051208,428.130219 996.879944,428.982544 
	C996.562561,430.562317 995.614319,432.015350 994.763672,433.874023 
z"/>
<path fill="#542B43" opacity="1.000000" stroke="none" 
	d="
M1034.500977,439.649963 
	C1032.273193,439.819092 1029.608276,440.484772 1028.606079,439.484467 
	C1027.453857,438.334351 1027.268921,435.625610 1027.583740,433.748199 
	C1027.953247,431.545319 1028.866455,429.071686 1030.375854,427.530029 
	C1031.719604,426.157501 1034.628662,424.852631 1036.055054,425.440216 
	C1037.465454,426.021301 1038.841675,429.185364 1038.525391,430.901825 
	C1037.979248,433.866241 1036.111816,436.587219 1034.500977,439.649963 
z"/>
<path fill="#542B43" opacity="1.000000" stroke="none" 
	d="
M985.979919,403.187683 
	C987.714111,408.579071 984.914185,412.424042 982.229797,416.080780 
	C981.574097,416.973938 978.982422,417.213623 977.733032,416.684967 
	C976.509094,416.167084 974.878784,414.026703 975.136902,413.050842 
	C976.089417,409.450073 977.273987,405.720947 979.303589,402.657898 
	C980.792358,400.411011 983.669373,400.614258 985.979919,403.187683 
z"/>
<path fill="#542B43" opacity="1.000000" stroke="none" 
	d="
M1145.610474,620.519287 
	C1147.021606,620.811340 1148.236450,621.335388 1149.451294,621.859497 
	C1148.693970,623.038269 1148.193848,624.566467 1147.140015,625.342590 
	C1134.316772,634.786499 1119.825684,640.266724 1104.228394,642.978149 
	C1084.672241,646.377930 1065.175415,645.477783 1045.762939,641.831116 
	C1044.207886,641.539001 1042.871094,640.084412 1041.432861,639.170044 
	C1042.737671,638.286560 1044.042603,637.403015 1045.716553,636.588135 
	C1071.918823,641.708008 1097.631836,642.268311 1122.621948,632.826782 
	C1130.601074,629.812134 1137.837769,624.832153 1145.610474,620.519287 
z"/>
<path fill="#FFFEFE" opacity="1.000000" stroke="none" 
	d="
M406.243927,576.983215 
	C411.088379,572.296021 412.135590,572.425232 418.190704,575.644226 
	C420.460144,576.850708 423.476288,576.652649 426.264465,577.021851 
	C425.928864,576.653748 425.469055,576.086426 425.034393,576.105042 
	C418.931946,576.367188 412.832916,576.709229 406.243927,576.983215 
z"/>
<path fill="#542B43" opacity="1.000000" stroke="none" 
	d="
M796.917847,1210.716797 
	C788.608948,1210.716797 780.781799,1210.892090 772.973145,1210.588989 
	C771.116211,1210.516846 769.321350,1208.844116 767.497925,1207.907593 
	C769.232971,1207.032837 770.950195,1205.445435 772.705994,1205.401489 
	C782.516968,1205.156128 792.340637,1205.152588 802.150818,1205.413330 
	C803.795288,1205.457031 805.394531,1207.198486 807.014709,1208.155518 
	C805.309448,1209.009277 803.676453,1210.110352 801.875549,1210.636597 
	C800.495850,1211.039795 798.903931,1210.716919 796.917847,1210.716797 
z"/>
<path fill="#542B43" opacity="1.000000" stroke="none" 
	d="
M1009.071777,1215.591553 
	C998.210022,1215.685303 987.761658,1215.728027 977.313538,1215.695312 
	C975.110901,1215.688354 971.981262,1216.340332 972.277283,1212.846436 
	C972.365540,1211.805664 975.346436,1210.267700 977.032837,1210.226685 
	C987.143799,1209.980957 997.264893,1210.030151 1007.379150,1210.193604 
	C1008.776245,1210.216309 1010.154236,1211.420044 1011.541016,1212.077148 
	C1010.855713,1213.222656 1010.170471,1214.368164 1009.071777,1215.591553 
z"/>
<path fill="#542B43" opacity="1.000000" stroke="none" 
	d="
M879.899841,658.547974 
	C878.202393,658.298828 876.608093,657.746704 874.584351,656.725891 
	C873.774597,656.154907 873.394287,656.052612 873.014038,655.950317 
	C873.014038,655.950256 873.018677,655.995117 873.038696,655.983459 
	C868.538391,651.952393 864.513855,647.085876 859.394470,644.090332 
	C848.831787,637.909546 837.688660,632.719788 826.772339,627.145874 
	C825.891235,626.696045 824.654236,626.671204 824.048218,626.017334 
	C823.096619,624.990417 822.541382,623.596191 821.818359,622.357544 
	C823.106812,622.111816 824.662842,621.271362 825.642700,621.711975 
	C835.761353,626.262390 846.189270,630.335205 855.714294,635.931152 
	C863.653381,640.595215 870.597351,646.999512 877.750183,652.913574 
	C879.068970,654.003967 879.280457,656.433472 879.899841,658.547974 
z"/>
<path fill="#80C7A7" opacity="1.000000" stroke="none" 
	d="
M828.511658,596.995422 
	C829.656982,589.562683 831.127747,582.073486 832.780518,574.228149 
	C836.832825,579.719788 840.703308,585.567505 844.595093,591.754028 
	C842.019287,592.056396 839.359436,591.667236 836.848450,592.114319 
	C835.317810,592.386902 834.016541,593.947571 832.569153,595.326965 
	C831.296387,596.129211 830.066711,596.534119 828.511658,596.995422 
z"/>
<path fill="#FE9D76" opacity="1.000000" stroke="none" 
	d="
M873.096985,656.276733 
	C873.394287,656.052612 873.774597,656.154907 874.315552,656.538452 
	C874.044189,656.747559 873.612061,656.675415 873.096985,656.276733 
z"/>
<path fill="#F65556" opacity="1.000000" stroke="none" 
	d="
M901.098633,634.552002 
	C900.703735,634.459351 900.275391,634.066956 899.859253,633.368347 
	C900.269348,633.458862 900.667236,633.855591 901.098633,634.552002 
z"/>
<path fill="#F65556" opacity="1.000000" stroke="none" 
	d="
M901.955322,635.643799 
	C901.674500,635.854492 901.412048,635.694641 901.204773,635.139038 
	C901.477234,634.976135 901.715088,635.152710 901.955322,635.643799 
z"/>
</svg>