<svg version="1.1" id="Layer_1" xmlns="http://www.w3.org/2000/svg" xmlns:xlink="http://www.w3.org/1999/xlink" x="0px" y="0px"
	 width="100%" viewBox="0 0 1500 1500" enable-background="new 0 0 1500 1500" xml:space="preserve">
<path fill="#FFFFFF" opacity="1.000000" stroke="none" 
	d="
M953.000000,1501.000000 
	C635.333374,1501.000000 318.166779,1501.000000 1.000085,1501.000000 
	C1.000000,1251.000122 1.000000,1001.000183 1.000000,751.000305 
	C1.000000,501.000336 1.000000,251.000397 1.000000,1.000329 
	C500.999756,1.000219 1000.999512,1.000219 1500.999512,1.000110 
	C1500.999634,500.999664 1500.999634,1000.999329 1500.999756,1500.999512 
	C1318.500000,1501.000000 1136.000000,1501.000000 953.000000,1501.000000 
M475.632568,947.707336 
	C485.106720,941.263977 494.580841,934.820618 504.804779,928.421387 
	C516.177917,938.285339 527.551086,948.149292 538.418457,958.435120 
	C520.300049,984.863525 502.181732,1011.291992 483.862610,1038.013184 
	C515.223450,1061.393555 546.267761,1084.537964 577.625671,1107.916138 
	C580.503723,1103.836792 582.843994,1100.636230 585.063232,1097.353760 
	C593.427185,1084.982300 601.751587,1072.584229 610.732483,1059.837524 
	C610.655334,1058.997070 610.578125,1058.156616 611.284424,1057.292480 
	C612.648865,1055.955200 614.217590,1054.769287 615.341309,1053.253540 
	C619.618469,1047.484741 623.752075,1041.609375 628.555725,1036.090088 
	C631.073120,1038.151855 633.590576,1040.213745 635.847229,1042.876343 
	C628.909973,1054.028320 631.363098,1070.623413 641.237915,1079.344116 
	C650.958618,1087.928711 665.405457,1087.664429 677.548462,1078.986572 
	C680.430969,1081.489014 683.527100,1083.788818 686.143127,1086.544312 
	C689.590210,1090.175171 693.303223,1091.011963 698.296204,1089.326294 
	C708.705322,1098.347412 719.120178,1107.361816 729.519775,1116.393677 
	C732.280518,1118.791504 735.257202,1119.364624 737.893555,1116.598633 
	C740.835022,1113.512695 739.049683,1110.931763 736.385620,1108.618774 
	C725.232056,1098.934692 714.112610,1089.211548 703.021362,1078.796509 
	C703.560303,1077.423462 704.054626,1076.030884 704.645630,1074.680664 
	C707.904053,1067.235718 706.676208,1060.773804 700.836853,1055.194702 
	C699.036377,1053.474487 697.118347,1051.876465 695.239868,1050.238770 
	C679.096313,1036.164917 662.949646,1022.094849 646.981201,1007.333801 
	C650.998291,1001.213135 655.015381,995.092468 659.436707,988.577454 
	C659.647217,988.072998 659.857788,987.568604 660.672852,986.762146 
	C668.080200,976.217834 675.487488,965.673584 682.953918,955.939331 
	C681.550171,964.130554 680.219177,972.335022 678.728088,980.510315 
	C675.166382,1000.039062 686.208130,1016.328613 705.570312,1019.787170 
	C726.682861,1023.558350 747.817505,1027.206421 768.944275,1030.897827 
	C824.954956,1040.684570 880.973938,1050.423706 936.975830,1060.260864 
	C990.848267,1069.723877 1044.693726,1079.341064 1098.571655,1088.773193 
	C1116.431396,1091.899658 1132.783203,1080.232666 1135.991943,1062.360474 
	C1137.783936,1052.379028 1139.417603,1042.369385 1141.179932,1032.382446 
	C1151.089600,976.226440 1161.036133,920.076904 1170.932739,863.918579 
	C1182.127930,800.392700 1193.283569,736.859985 1204.868286,672.670349 
	C1205.258057,670.547607 1205.661743,668.427307 1206.035278,666.301758 
	C1214.309082,619.227600 1222.516846,572.141663 1230.880249,525.083496 
	C1234.459717,504.943542 1222.619385,488.018646 1202.534912,484.848297 
	C1194.010132,483.502655 1185.530273,481.872314 1177.028809,480.378510 
	C1143.842651,474.547180 1110.651978,468.743103 1077.471680,462.878845 
	C1060.640015,459.904114 1043.827393,456.822662 1027.300415,453.196594 
	C1032.569214,445.196808 1037.838013,437.197021 1043.642822,429.012970 
	C1044.004150,428.374878 1044.365356,427.736786 1045.329590,426.739990 
	C1052.934570,415.307129 1060.539429,403.874268 1068.730103,392.223907 
	C1069.083618,391.521881 1069.437256,390.819885 1070.440918,389.839874 
	C1077.958740,378.877686 1085.476685,367.915497 1093.438599,356.587891 
	C1093.674438,356.081512 1093.910278,355.575104 1094.714111,354.715485 
	C1105.820435,338.587250 1116.926636,322.458984 1128.265991,305.992249 
	C1095.968994,283.862427 1064.066772,262.003143 1031.963135,240.005798 
	C1031.172241,241.028412 1030.543823,241.764008 1029.998901,242.557022 
	C1007.017822,276.002350 984.048828,309.455963 961.068176,342.901581 
	C946.470093,364.147247 931.795227,385.340454 917.279968,406.642487 
	C911.681030,414.859161 906.428345,423.311707 900.122375,431.723297 
	C870.543457,426.490204 840.987061,421.124298 811.373108,416.097778 
	C801.333496,414.393707 791.935974,416.254303 783.769348,423.067596 
	C775.907837,429.626373 773.055908,438.384827 771.019409,448.019836 
	C760.944702,445.064758 750.869995,442.109680 740.208923,439.004242 
	C739.624695,439.021912 739.040405,439.039581 737.912842,438.447876 
	C713.553345,432.445984 688.838196,430.008759 663.116638,430.880096 
	C662.447754,430.937775 661.778931,430.995422 660.175415,430.963135 
	C636.225891,431.749176 612.803711,435.578094 589.404785,443.031189 
	C588.892883,443.337708 588.381042,443.644257 587.132385,444.040649 
	C578.895020,447.048340 570.409912,449.521027 562.479675,453.192139 
	C551.264526,458.383972 540.459106,464.460846 528.931091,470.020538 
	C528.238342,470.515076 527.545654,471.009583 526.139893,471.667572 
	C516.721008,478.059723 507.008789,484.067474 497.973785,490.962677 
	C490.412354,496.733246 483.642517,503.541138 475.961731,510.004791 
	C475.475189,510.540283 474.988647,511.075745 473.912689,511.898956 
	C456.950623,528.706543 441.799591,546.941772 429.342255,568.045898 
	C429.150269,568.639893 428.958282,569.233887 428.270386,570.290649 
	C422.775879,581.088501 416.574127,591.595459 411.979706,602.763550 
	C407.082031,614.668945 403.704102,627.199463 399.179626,639.742798 
	C398.900604,640.425598 398.621582,641.108398 398.147003,642.601685 
	C392.656433,664.711548 388.998138,687.067932 388.794373,710.525146 
	C388.927460,711.155640 389.060516,711.786194 389.047455,713.417480 
	C389.319122,720.715698 389.609924,728.013245 389.856049,735.312378 
	C390.038544,740.723511 390.162994,746.136536 389.955109,750.786255 
	C383.843750,739.621582 377.890259,728.366638 371.568146,717.322571 
	C366.997620,709.338440 359.391876,707.793152 351.714722,712.837097 
	C346.879456,716.013977 342.085022,719.252869 336.894501,722.059937 
	C336.710968,722.042786 336.527435,722.025696 335.968384,721.393372 
	C332.394836,715.399658 328.811096,709.412048 325.249756,703.411072 
	C317.704315,690.696655 310.232117,677.938171 302.608337,665.270935 
	C298.201660,657.948975 292.828644,656.299011 285.359985,660.418762 
	C281.196960,662.715149 277.296112,665.701599 273.796112,668.938232 
	C267.480072,674.778931 267.249817,679.886475 272.396484,686.927002 
	C280.642059,698.206909 288.933411,709.453430 297.197174,720.720032 
	C301.984100,727.246399 306.754913,733.784546 311.657166,740.487183 
	C307.080414,743.763000 302.865295,746.718872 298.715271,749.763489 
	C290.723755,755.626404 289.512329,762.707703 295.257385,770.810608 
	C314.171967,797.488403 334.486450,822.931763 360.005249,844.502563 
	C374.796082,887.949768 389.598206,931.393127 404.355164,974.851868 
	C405.470764,978.137268 406.265167,981.531860 406.570892,985.231140 
	C397.222565,991.559326 387.783630,997.761414 378.619324,1004.345703 
	C377.170624,1005.386536 376.961609,1008.152771 376.179382,1010.121216 
	C378.288300,1010.205872 380.420105,1010.505249 382.496460,1010.284119 
	C383.525787,1010.174561 384.461121,1009.119812 385.425385,1008.472351 
	C393.557220,1003.011719 401.685913,997.546387 410.337708,992.737366 
	C418.909027,1017.701294 427.502716,1042.657593 436.046814,1067.630859 
	C451.310608,1112.244873 466.596436,1156.851440 481.732544,1201.508789 
	C483.907471,1207.925781 487.799927,1212.174072 494.342651,1213.632690 
	C497.054047,1214.237183 499.963745,1213.952271 502.967041,1214.769531 
	C512.285156,1230.078491 521.603333,1245.387451 530.921448,1260.696411 
	C531.368896,1260.478516 531.816284,1260.260498 532.263733,1260.042603 
	C526.787598,1243.963135 521.311462,1227.883789 516.192261,1211.157959 
	C516.540222,1208.420898 517.640381,1205.516724 517.077637,1202.981812 
	C515.949890,1197.902344 513.912964,1193.024902 512.906555,1187.917725 
	C514.475830,1186.997925 516.063232,1186.107544 517.611206,1185.153198 
	C524.254517,1181.057739 529.674133,1169.318726 528.821106,1162.001099 
	C526.763916,1144.352783 510.424469,1133.756226 494.661346,1137.463501 
	C478.747070,1091.546021 462.806702,1045.637573 446.940704,999.703308 
	C443.807892,990.633423 440.961304,981.464722 438.679016,972.045349 
	C446.482422,967.007690 454.285858,961.970093 462.681183,957.257385 
	C470.273682,967.754395 477.862091,978.254333 485.459900,988.747437 
	C491.950684,997.711792 489.349426,998.400391 499.926514,991.295654 
	C500.301178,991.044067 500.500488,990.531494 501.005585,989.828796 
	C492.368469,975.928040 483.694977,961.968811 475.632568,947.707336 
z"/>
<path fill="#E87B69" opacity="1.000000" stroke="none" 
	d="
M1204.456421,673.330200 
	C1193.283569,736.859985 1182.127930,800.392700 1170.932739,863.918579 
	C1161.036133,920.076904 1151.089600,976.226440 1141.179932,1032.382446 
	C1139.417603,1042.369385 1137.783936,1052.379028 1135.991943,1062.360474 
	C1132.783203,1080.232666 1116.431396,1091.899658 1098.571655,1088.773193 
	C1044.693726,1079.341064 990.848267,1069.723877 936.975830,1060.260864 
	C880.973938,1050.423706 824.954956,1040.684570 768.944275,1030.897827 
	C747.817505,1027.206421 726.682861,1023.558350 705.570312,1019.787170 
	C686.208130,1016.328613 675.166382,1000.039062 678.728088,980.510315 
	C680.219177,972.335022 681.550171,964.130554 683.030334,955.202026 
	C683.333984,953.350220 683.561279,952.235718 683.885193,950.806519 
	C683.958862,949.843384 683.935852,949.195007 684.140991,948.188965 
	C684.737427,945.896851 685.154358,943.970215 685.466187,942.026672 
	C687.366516,930.182251 689.243042,918.334045 691.387451,906.267700 
	C691.732178,905.386597 691.816833,904.724854 692.015930,903.677368 
	C696.757812,877.294250 701.403748,851.300110 706.008362,825.298584 
	C712.292908,789.810364 718.588623,754.324036 724.789917,718.821289 
	C727.046631,705.901550 729.046326,692.936829 731.406921,679.700073 
	C732.773926,672.896851 733.870911,666.381531 735.025330,659.876404 
	C738.980774,637.588318 742.956299,615.303833 747.336243,593.054688 
	C777.663757,598.398987 807.575745,603.726501 837.495667,609.009216 
	C874.772644,615.590881 912.057617,622.126953 949.336304,628.698669 
	C982.038330,634.463562 1014.734131,640.263977 1047.436890,646.024475 
	C1082.590820,652.216797 1117.744873,658.409973 1152.908813,664.545044 
	C1170.079468,667.540833 1187.273193,670.405945 1204.456421,673.330200 
M1034.010864,926.587830 
	C1030.488770,946.776855 1026.910645,966.956360 1023.472961,987.159790 
	C1022.143311,994.974548 1020.838684,1002.815674 1020.089722,1010.698608 
	C1019.658386,1015.239136 1023.276306,1019.154053 1027.575195,1019.913330 
	C1046.618530,1023.276978 1065.639160,1026.786255 1084.732300,1029.841187 
	C1092.835327,1031.137573 1098.568481,1029.266846 1099.074463,1018.820984 
	C1099.105957,1018.172485 1099.426025,1017.543396 1099.543701,1016.893005 
	C1102.693359,999.488342 1105.871582,982.088745 1108.967163,964.674438 
	C1113.508911,939.125122 1117.893799,913.547363 1122.548096,888.018738 
	C1124.267334,878.588806 1121.813110,874.615112 1112.441650,872.986328 
	C1095.016113,869.957642 1077.591309,866.923462 1060.176392,863.834045 
	C1048.087646,861.689392 1044.825195,864.359741 1042.902100,876.421143 
	C1040.273926,892.904358 1037.037964,909.290588 1034.010864,926.587830 
M1027.250977,767.068542 
	C1009.155090,763.877075 991.048523,760.744934 972.969055,757.463074 
	C966.346008,756.260864 962.162781,759.023071 960.974792,765.864319 
	C958.255920,781.522278 955.612061,797.193420 952.827087,812.839539 
	C951.345032,821.165466 953.278076,824.719971 961.576294,826.264099 
	C980.289856,829.745911 999.078064,832.824951 1017.818665,836.164124 
	C1026.407227,837.694458 1030.192627,835.510376 1031.697021,827.269165 
	C1034.550903,811.635376 1037.240356,795.970947 1039.895508,780.301941 
	C1040.874146,774.527344 1038.586914,770.154114 1033.888794,768.526062 
	C1032.025879,767.880432 1030.025024,767.633301 1027.250977,767.068542 
M1052.910645,821.286926 
	C1052.314575,824.040344 1051.596802,826.773926 1051.145264,829.550842 
	C1049.770752,838.002625 1052.560547,842.233276 1060.918823,843.772644 
	C1079.804810,847.250916 1098.714600,850.604553 1117.637695,853.876282 
	C1124.523193,855.066772 1128.771606,851.832764 1129.976562,844.859680 
	C1132.738770,828.873901 1135.470703,812.882935 1138.207642,796.892822 
	C1139.260010,790.744629 1136.095825,786.145264 1129.901978,785.041321 
	C1110.834229,781.642700 1091.757446,778.294128 1072.680420,774.947449 
	C1065.107422,773.618835 1060.709839,776.296936 1059.308594,783.715454 
	C1057.004517,795.913086 1055.066772,808.179871 1052.910645,821.286926 
M757.025391,758.589294 
	C755.994751,764.796082 754.920410,770.995972 753.944275,777.211365 
	C752.642273,785.501587 756.204773,790.443542 764.524292,791.872925 
	C782.640259,794.985596 800.766052,798.041626 818.882690,801.150574 
	C825.831360,802.343079 831.546326,798.715820 832.826233,791.810486 
	C835.633118,776.667725 838.327515,761.502686 840.891724,746.317017 
	C842.206848,738.528198 839.366882,734.208984 831.469421,732.734192 
	C812.589478,729.208679 793.639282,726.060791 774.727173,722.705872 
	C768.458862,721.593872 763.167725,725.108398 762.001831,731.346375 
	C760.358704,740.137329 758.726013,748.930359 757.025391,758.589294 
M937.759949,900.156555 
	C935.763916,908.493103 939.200195,913.468201 947.815613,914.925415 
	C965.935120,917.990295 984.052124,921.070984 1002.153503,924.240234 
	C1010.026978,925.618713 1014.624146,922.936768 1016.134277,914.941650 
	C1019.021790,899.653442 1021.508850,884.289856 1024.199951,868.964111 
	C1025.405029,862.101685 1022.660278,857.296631 1016.014160,856.034790 
	C996.499207,852.329407 976.972168,848.653320 957.365051,845.492065 
	C952.563660,844.717896 947.060730,846.659058 945.914856,853.312622 
	C943.274109,868.646667 940.579712,883.971558 937.759949,900.156555 
M852.079529,680.715759 
	C853.758667,671.260925 855.415649,661.802002 857.123596,652.352417 
	C858.602173,644.171692 855.065125,638.672363 846.894653,637.223816 
	C828.801331,634.016113 810.688416,630.912354 792.554749,627.941956 
	C784.486206,626.620300 779.495056,630.410767 778.117188,638.497009 
	C775.670166,652.857483 773.837952,667.353516 770.637451,681.542236 
	C768.936523,689.082947 773.464050,695.538879 781.900269,696.958923 
	C799.695007,699.954346 817.471375,703.062134 835.236633,706.228394 
	C842.501953,707.523254 847.500427,704.499084 849.120605,697.202576 
	C850.267700,692.036560 851.062927,686.792480 852.079529,680.715759 
M854.302124,801.562622 
	C856.585022,806.959106 860.973816,808.558960 866.489929,809.463196 
	C883.957703,812.326843 901.319214,815.832397 918.758789,818.877747 
	C926.210999,820.179138 931.713928,816.112244 932.955627,809.063171 
	C935.538391,794.400208 938.141602,779.740784 940.787476,765.089111 
	C942.267761,756.892273 938.545227,751.416016 930.452393,749.989624 
	C912.042419,746.744812 893.633850,743.491028 875.229309,740.215332 
	C868.856567,739.081055 863.196411,742.927673 862.017761,749.316650 
	C860.787231,755.987000 859.444214,762.641907 858.432556,769.346130 
	C856.855408,779.797424 855.516418,790.284668 854.302124,801.562622 
M1070.125977,744.167419 
	C1072.916260,745.783813 1075.534790,748.294678 1078.525269,748.869080 
	C1095.919556,752.210205 1113.408813,755.052795 1130.850098,758.154419 
	C1139.715942,759.731018 1145.490479,755.932861 1147.015259,747.256165 
	C1149.450928,733.396240 1151.797119,719.520142 1154.311279,705.674561 
	C1155.848511,697.208679 1152.641357,691.519775 1144.258301,689.932251 
	C1126.693970,686.606262 1109.035156,683.782288 1091.444580,680.590149 
	C1083.039551,679.064941 1077.638794,682.088928 1075.978027,690.379944 
	C1073.149536,704.501587 1070.468872,718.662537 1068.236206,732.887085 
	C1067.708008,736.252197 1069.204956,739.935181 1070.125977,744.167419 
M954.969543,682.409790 
	C955.641602,678.495361 956.320740,674.582214 956.984192,670.666321 
	C958.713928,660.456665 956.072571,656.815613 945.775391,655.012329 
	C927.840210,651.871460 909.898743,648.762390 891.989441,645.479065 
	C884.657104,644.134888 880.338379,646.504150 878.917114,653.841614 
	C875.832947,669.764526 872.947327,685.727112 870.136169,701.700928 
	C869.021545,708.034607 872.562988,712.811951 878.868347,713.947144 
	C890.107666,715.970520 901.349365,717.983643 912.605652,719.909607 
	C921.086487,721.360718 929.552856,723.054321 938.098694,723.916443 
	C944.655090,724.577881 947.853943,721.472046 949.041992,715.016418 
	C950.989319,704.435120 952.950684,693.856323 954.969543,682.409790 
M841.911377,863.282349 
	C840.615601,870.281738 839.081787,877.247498 838.086243,884.289307 
	C836.928406,892.479675 839.892273,895.846436 848.086243,897.053345 
	C854.796814,898.041809 861.456421,899.376770 868.136902,900.567932 
	C880.033508,902.689148 891.907593,904.947021 903.831909,906.898560 
	C911.975891,908.231445 915.900513,904.980164 917.028198,896.719421 
	C917.452881,893.608337 918.153381,890.535461 918.703003,887.440735 
	C920.787292,875.704956 922.981262,863.987061 924.899719,852.224182 
	C926.338074,843.405029 923.382874,839.457336 915.151001,838.044617 
	C896.555420,834.853210 877.970520,831.597473 859.397339,828.278259 
	C852.430420,827.033264 847.540833,830.015381 846.252136,836.950439 
	C844.679871,845.411377 843.388000,853.924438 841.911377,863.282349 
M928.998474,947.552368 
	C926.543945,961.586182 924.159912,975.632874 921.604431,989.648254 
	C920.368469,996.426880 922.742432,1000.786194 929.544861,1002.047485 
	C948.435913,1005.550354 967.372742,1008.810059 986.308289,1012.067993 
	C995.315735,1013.617798 999.395203,1010.899414 1000.858521,1002.591003 
	C1003.559326,987.256470 1006.256348,971.920959 1008.862244,956.570190 
	C1010.077087,949.414246 1006.977600,945.240173 999.689087,943.915527 
	C988.932495,941.960449 978.188660,939.926270 967.405457,938.129517 
	C958.096130,936.578247 948.765442,935.081909 939.392395,934.017822 
	C934.911926,933.509094 931.137207,936.929626 930.109497,941.338196 
	C929.695923,943.112488 929.410095,944.916565 928.998474,947.552368 
M851.826538,988.768127 
	C864.063965,990.874817 876.305725,992.957153 888.537292,995.097351 
	C895.976379,996.398865 900.340088,993.664307 901.719116,986.142761 
	C904.584778,970.512390 907.288574,954.850830 909.888977,939.173950 
	C911.005188,932.445190 908.116760,928.183105 901.342285,926.948669 
	C882.292114,923.477356 863.208191,920.184326 844.108704,916.993591 
	C835.300903,915.522095 832.539917,917.679199 830.915527,926.551453 
	C829.693726,933.224854 828.394531,939.886597 827.325500,946.584839 
	C825.760681,956.388550 824.081665,966.189270 823.025513,976.052795 
	C822.476379,981.181274 825.513184,984.138367 830.447021,984.965271 
	C837.303223,986.114380 844.150940,987.313477 851.826538,988.768127 
M806.967102,936.409180 
	C807.833374,931.520752 808.625122,926.617676 809.583984,921.747437 
	C810.906189,915.032104 807.791931,910.235779 801.115723,909.035095 
	C794.436646,907.833923 787.744812,906.703918 781.059509,905.537231 
	C768.668213,903.374878 756.301819,901.055481 743.878296,899.098022 
	C735.709167,897.810913 732.399475,900.096680 730.851807,908.182007 
	C727.989380,923.135986 725.539124,938.168335 722.765259,953.139893 
	C721.087036,962.197937 723.817505,966.446228 732.608398,967.913940 
	C751.055847,970.993896 769.505737,974.060303 787.940613,977.214355 
	C795.812195,978.561035 799.437622,976.378479 801.030151,968.505981 
	C803.130127,958.124634 804.958313,947.688416 806.967102,936.409180 
M784.555054,885.988342 
	C789.451477,886.846802 794.369751,887.597473 799.239868,888.585510 
	C810.229187,890.814941 815.371277,887.745117 817.504944,876.898926 
	C820.159851,863.403442 822.558472,849.854675 824.865051,836.294495 
	C826.323730,827.719177 822.834839,821.748657 815.245117,820.346069 
	C797.483948,817.063782 779.686462,813.954834 761.849792,811.113770 
	C752.434937,809.614197 747.568481,813.342712 745.928406,822.488098 
	C743.500366,836.026733 741.220032,849.591980 738.753113,863.123352 
	C736.925598,873.146790 740.399414,878.258606 750.403748,880.006226 
	C761.503845,881.945190 772.592834,883.947388 784.555054,885.988342 
M976.076477,679.703979 
	C974.000916,691.780762 971.973022,703.866089 969.832703,715.931335 
	C968.464722,723.642395 972.277222,730.261230 979.736023,731.640198 
	C997.482483,734.921326 1015.268921,738.003662 1033.085571,740.878967 
	C1041.559326,742.246460 1046.624634,738.717957 1048.282227,730.390259 
	C1051.029419,716.589294 1053.629883,702.750305 1055.856812,688.857544 
	C1057.491577,678.659607 1053.480103,673.786987 1043.082397,671.956238 
	C1026.613281,669.056519 1010.166321,666.028870 993.682800,663.214294 
	C988.811951,662.382629 983.530823,662.240417 980.605957,667.019348 
	C978.451050,670.540283 977.634155,674.880127 976.076477,679.703979 
M946.611389,1044.804688 
	C1003.315613,1054.193237 1060.019897,1063.581665 1116.724121,1072.970093 
	C1116.855347,1072.158325 1116.986572,1071.346558 1117.117798,1070.534790 
	C978.728149,1047.487671 840.338501,1024.440430 701.948853,1001.393311 
	C701.805298,1002.108765 701.661804,1002.824219 701.518250,1003.539673 
	C703.016724,1003.915527 704.497314,1004.398376 706.016174,1004.651794 
	C752.786987,1012.453552 799.563904,1020.219177 846.334839,1028.020020 
	C879.477234,1033.547974 912.612549,1039.118774 946.611389,1044.804688 
z"/>
<path fill="#5D6C75" opacity="1.000000" stroke="none" 
	d="
M1204.662354,673.000244 
	C1187.273193,670.405945 1170.079468,667.540833 1152.908813,664.545044 
	C1117.744873,658.409973 1082.590820,652.216797 1047.436890,646.024475 
	C1014.734131,640.263977 982.038330,634.463562 949.336304,628.698669 
	C912.057617,622.126953 874.772644,615.590881 837.495667,609.009216 
	C807.575745,603.726501 777.663757,598.398987 747.270264,592.621155 
	C746.893005,590.108826 746.993774,588.066772 747.064819,586.013062 
	C747.035095,586.001526 747.023743,586.064148 747.279419,586.030212 
	C747.600159,585.668396 747.665222,585.340454 747.802551,584.595215 
	C750.449097,569.515503 753.023376,554.853149 755.706604,539.827881 
	C761.133606,508.976227 766.451538,478.487518 771.769470,447.998779 
	C773.055908,438.384827 775.907837,429.626373 783.769348,423.067596 
	C791.935974,416.254303 801.333496,414.393707 811.373108,416.097778 
	C840.987061,421.124298 870.543457,426.490204 900.915771,431.791992 
	C919.654175,435.027069 937.595398,438.215393 955.545227,441.354462 
	C979.362000,445.519531 1003.185486,449.646240 1027.006104,453.789429 
	C1043.827393,456.822662 1060.640015,459.904114 1077.471680,462.878845 
	C1110.651978,468.743103 1143.842651,474.547180 1177.028809,480.378510 
	C1185.530273,481.872314 1194.010132,483.502655 1202.534912,484.848297 
	C1222.619385,488.018646 1234.459717,504.943542 1230.880249,525.083496 
	C1222.516846,572.141663 1214.309082,619.227600 1206.035278,666.301758 
	C1205.661743,668.427307 1205.258057,670.547607 1204.662354,673.000244 
z"/>
<path fill="#F2DA66" opacity="1.000000" stroke="none" 
	d="
M747.094543,586.024658 
	C746.993774,588.066772 746.893005,590.108826 746.858154,592.584473 
	C742.956299,615.303833 738.980774,637.588318 735.025330,659.876404 
	C733.870911,666.381531 732.773926,672.896851 731.112671,679.809937 
	C729.392700,681.000793 728.210754,681.789124 726.685181,682.729126 
	C709.604065,692.807800 692.843018,702.695251 676.133484,712.669067 
	C621.999512,744.981262 567.873169,777.306274 513.768188,809.666931 
	C494.792297,821.016602 475.886627,832.483704 456.648987,843.768188 
	C450.363434,838.427795 444.425812,833.159851 438.380798,828.018188 
	C429.574799,820.528320 420.691559,813.129333 411.609741,805.428589 
	C409.680450,799.613403 407.982666,794.061218 406.220306,788.297852 
	C416.933136,785.553650 427.620819,782.815857 438.308502,780.078064 
	C438.143524,779.432129 437.978546,778.786133 437.813568,778.140198 
	C427.036438,780.671692 416.259308,783.203186 405.757019,785.670166 
	C400.427490,773.895081 395.370392,762.721924 390.313293,751.548767 
	C390.162994,746.136536 390.038544,740.723511 389.856049,735.312378 
	C389.609924,728.013245 389.319122,720.715698 389.583008,712.906006 
	C401.444336,712.394531 412.770081,712.394531 424.095856,712.394531 
	C424.102692,711.913879 424.109528,711.433167 424.116364,710.952515 
	C412.439911,710.611206 400.763458,710.269897 389.087006,709.928589 
	C388.998138,687.067932 392.656433,664.711548 398.585144,642.283752 
	C411.302979,646.270325 423.582672,650.574768 435.862396,654.879272 
	C436.117249,654.135803 436.372101,653.392334 436.626953,652.648865 
	C424.305542,648.251587 411.984100,643.854309 399.662659,639.457031 
	C403.704102,627.199463 407.082031,614.668945 411.979706,602.763550 
	C416.574127,591.595459 422.775879,581.088501 428.827637,570.234131 
	C440.021210,578.700867 450.657562,587.224121 461.293915,595.747314 
	C461.755890,595.182800 462.217896,594.618225 462.679901,594.053650 
	C451.751984,585.281494 440.824097,576.509277 429.896179,567.737061 
	C441.799591,546.941772 456.950623,528.706543 474.475586,512.036987 
	C485.288269,525.013428 495.538055,537.851746 505.787811,550.690125 
	C506.330933,550.261230 506.874054,549.832275 507.417206,549.403381 
	C497.118835,536.232117 486.820496,523.060913 476.522125,509.889679 
	C483.642517,503.541138 490.412354,496.733246 497.973785,490.962677 
	C507.008789,484.067474 516.721008,478.059723 526.815308,471.811127 
	C538.148071,489.780792 548.805298,507.606903 559.462585,525.433044 
	C560.026733,525.110962 560.590942,524.788879 561.155151,524.466736 
	C560.265137,522.810974 559.427734,521.124329 558.476990,519.504089 
	C548.821411,503.049683 539.147400,486.606079 529.478516,470.159454 
	C540.459106,464.460846 551.264526,458.383972 562.479675,453.192139 
	C570.409912,449.521027 578.895020,447.048340 587.589844,444.359619 
	C594.773376,460.223907 601.499451,475.769226 608.225586,491.314545 
	C608.934570,490.999023 609.643494,490.683502 610.352478,490.368011 
	C603.576660,474.618530 596.800781,458.869080 590.024902,443.119629 
	C612.803711,435.578094 636.225891,431.749176 660.651672,431.415100 
	C663.722168,445.568909 666.316406,459.270691 668.910706,472.972504 
	C669.617371,472.848145 670.324036,472.723785 671.030762,472.599426 
	C668.612488,458.750183 666.194153,444.900909 663.775879,431.051666 
	C688.838196,430.008759 713.553345,432.445984 738.145996,439.187592 
	C736.412231,452.541779 734.445374,465.156219 732.478516,477.770660 
	C733.250061,477.882141 734.021545,477.993591 734.793091,478.105042 
	C736.793823,465.121552 738.794556,452.138092 740.795288,439.154602 
	C750.869995,442.109680 760.944702,445.064758 771.394409,448.009308 
	C766.451538,478.487518 761.133606,508.976227 755.433044,539.569214 
	C733.683716,521.284424 708.361023,513.176331 680.711182,512.184814 
	C644.374329,510.881683 610.651184,520.827576 578.957153,538.043274 
	C543.445251,557.332703 513.773071,582.966980 493.931610,618.736511 
	C477.641907,648.103027 471.806030,679.106018 481.018402,712.062256 
	C483.515350,720.994812 487.005981,729.517334 492.469330,737.227539 
	C493.743408,736.590637 494.505890,736.269165 495.209717,735.849365 
	C563.395386,695.170532 631.564026,654.463074 699.767517,613.814209 
	C715.482117,604.448486 731.315735,595.282532 747.094543,586.024658 
z"/>
<path fill="#A7DDEA" opacity="1.000000" stroke="none" 
	d="
M1027.153320,453.493011 
	C1003.185486,449.646240 979.362000,445.519531 955.545227,441.354462 
	C937.595398,438.215393 919.654175,435.027069 901.363525,431.758728 
	C906.428345,423.311707 911.681030,414.859161 917.279968,406.642487 
	C931.795227,385.340454 946.470093,364.147247 961.068176,342.901581 
	C984.048828,309.455963 1007.017822,276.002350 1029.998901,242.557022 
	C1030.543823,241.764008 1031.172241,241.028412 1031.963135,240.005798 
	C1064.066772,262.003143 1095.968994,283.862427 1128.265991,305.992249 
	C1116.926636,322.458984 1105.820435,338.587250 1094.128662,354.718719 
	C1072.407715,341.152527 1051.307739,327.525177 1029.647095,314.809509 
	C1029.309937,315.803223 1029.303345,316.257263 1029.505005,316.386292 
	C1050.658081,329.924469 1071.826782,343.438141 1092.994629,356.953308 
	C1085.476685,367.915497 1077.958740,378.877686 1069.775635,389.918701 
	C1062.718262,385.947174 1056.326172,381.896851 1049.933960,377.846527 
	C1049.564453,378.419312 1049.194824,378.992126 1048.825317,379.564911 
	C1055.265015,383.857086 1061.704590,388.149231 1068.144287,392.441406 
	C1060.539429,403.874268 1052.934570,415.307129 1044.709839,426.820465 
	C1036.005249,421.290863 1027.920532,415.680786 1019.835754,410.070709 
	C1019.420654,410.691101 1019.005615,411.311523 1018.590515,411.931946 
	C1026.762695,417.687012 1034.934814,423.442108 1043.106934,429.197205 
	C1037.838013,437.197021 1032.569214,445.196808 1027.153320,453.493011 
z"/>
<path fill="#A7DDEA" opacity="1.000000" stroke="none" 
	d="
M727.028809,682.577393 
	C728.210754,681.789124 729.392700,681.000793 730.868896,680.102539 
	C729.046326,692.936829 727.046631,705.901550 724.789917,718.821289 
	C718.588623,754.324036 712.292908,789.810364 706.008362,825.298584 
	C701.403748,851.300110 696.757812,877.294250 691.692627,903.583374 
	C677.545044,895.161316 663.835144,886.447571 650.125305,877.733887 
	C649.729187,878.375977 649.333069,879.018066 648.936951,879.660156 
	C663.000427,888.602478 677.063965,897.544800 691.127441,906.487061 
	C689.243042,918.334045 687.366516,930.182251 685.466187,942.026672 
	C685.154358,943.970215 684.737427,945.896851 683.816650,948.010986 
	C678.625061,945.278442 673.985779,942.366211 669.346558,939.454041 
	C669.017456,939.959961 668.688354,940.465881 668.359253,940.971802 
	C673.502319,944.354980 678.645386,947.738159 683.788513,951.121277 
	C683.561279,952.235718 683.333984,953.350220 683.000793,954.796997 
	C675.487488,965.673584 668.080200,976.217834 660.041504,986.798828 
	C652.307251,982.006165 645.204285,977.176758 638.101318,972.347412 
	C637.697388,972.967041 637.293457,973.586670 636.889587,974.206299 
	C644.270508,979.128113 651.651489,984.049927 659.032471,988.971741 
	C655.015381,995.092468 650.998291,1001.213135 646.600830,1007.547241 
	C627.346741,991.488098 608.439758,975.253906 589.612427,958.927979 
	C578.956787,949.688049 568.431946,940.297180 557.927368,930.631409 
	C558.327454,929.710754 558.603149,929.101868 558.975769,928.559509 
	C595.572693,875.285522 632.173584,822.014160 668.782654,768.748413 
	C683.746704,746.975830 698.784607,725.253723 713.671814,703.428772 
	C718.321106,696.612671 722.587219,689.535217 727.028809,682.577393 
z"/>
<path fill="#D15182" opacity="1.000000" stroke="none" 
	d="
M407.208862,984.875671 
	C406.265167,981.531860 405.470764,978.137268 404.355164,974.851868 
	C389.598206,931.393127 374.796082,887.949768 360.374939,844.206238 
	C371.745575,851.745239 383.250824,858.036316 397.500122,856.329163 
	C405.768311,880.783691 413.986176,904.841614 422.333954,928.854370 
	C426.639130,941.238342 431.175293,953.541870 435.603271,966.282593 
	C436.393860,968.569397 437.188263,970.455505 437.982697,972.341553 
	C440.961304,981.464722 443.807892,990.633423 446.940704,999.703308 
	C462.806702,1045.637573 478.747070,1091.546021 494.866577,1138.151855 
	C500.798279,1155.248169 506.524811,1171.656128 512.251343,1188.063965 
	C513.912964,1193.024902 515.949890,1197.902344 517.077637,1202.981812 
	C517.640381,1205.516724 516.540222,1208.420898 515.627441,1211.586182 
	C510.969452,1212.700317 506.876343,1213.386108 502.783234,1214.071777 
	C499.963745,1213.952271 497.054047,1214.237183 494.342651,1213.632690 
	C487.799927,1212.174072 483.907471,1207.925781 481.732544,1201.508789 
	C466.596436,1156.851440 451.310608,1112.244873 436.046814,1067.630859 
	C427.502716,1042.657593 418.909027,1017.701294 410.144836,992.093872 
	C409.037628,989.258850 408.123260,987.067261 407.208862,984.875671 
z"/>
<path fill="#2A1E24" opacity="1.000000" stroke="none" 
	d="
M397.503571,855.913879 
	C383.250824,858.036316 371.745575,851.745239 360.400055,843.803955 
	C334.486450,822.931763 314.171967,797.488403 295.257385,770.810608 
	C289.512329,762.707703 290.723755,755.626404 298.715271,749.763489 
	C302.865295,746.718872 307.080414,743.763000 311.657166,740.487183 
	C306.754913,733.784546 301.984100,727.246399 297.197174,720.720032 
	C288.933411,709.453430 280.642059,698.206909 272.396484,686.927002 
	C267.249817,679.886475 267.480072,674.778931 273.796112,668.938232 
	C277.296112,665.701599 281.196960,662.715149 285.359985,660.418762 
	C292.828644,656.299011 298.201660,657.948975 302.608337,665.270935 
	C310.232117,677.938171 317.704315,690.696655 325.249756,703.411072 
	C328.811096,709.412048 332.394836,715.399658 336.033905,722.049561 
	C334.624695,723.642700 333.149963,724.579590 331.667877,725.521179 
	C320.275848,707.095520 309.178619,689.146667 298.081421,671.197815 
	C297.517029,671.543213 296.952637,671.888611 296.388214,672.234009 
	C307.463043,690.348267 318.537842,708.462524 329.781891,726.853577 
	C327.719604,728.125244 326.255310,729.028198 324.695648,729.989990 
	C312.101166,711.801758 300.235291,693.601196 286.930756,676.458740 
	C286.419525,676.817749 285.908295,677.176819 285.397064,677.535889 
	C297.816620,695.412842 310.236145,713.289734 322.806396,731.383667 
	C320.882233,732.605957 319.546997,733.454102 318.016113,734.426575 
	C314.624329,729.867188 311.446136,725.614990 308.289825,721.346558 
	C305.122284,717.063049 301.977631,712.762634 298.821014,708.471008 
	C295.565277,704.044617 292.452087,699.503174 289.007202,695.229187 
	C285.910248,691.386902 283.963470,686.416931 279.557556,683.775879 
	C279.184509,684.091492 278.811432,684.407043 278.438385,684.722595 
	C290.953827,701.678467 303.469269,718.634338 315.948853,735.541626 
	C314.680450,737.039001 313.626404,738.283325 311.843414,740.388184 
	C313.678436,740.035889 314.385193,740.091431 314.848846,739.782349 
	C321.632416,735.260498 328.429688,730.755493 335.094757,726.063354 
	C336.144806,725.324097 336.562286,723.686218 337.272278,722.463867 
	C342.085022,719.252869 346.879456,716.013977 351.714722,712.837097 
	C359.391876,707.793152 366.997620,709.338440 371.568146,717.322571 
	C377.890259,728.366638 383.843750,739.621582 390.134216,751.167480 
	C395.370392,762.721924 400.427490,773.895081 405.757019,785.670166 
	C416.259308,783.203186 427.036438,780.671692 437.813568,778.140198 
	C437.978546,778.786133 438.143524,779.432129 438.308502,780.078064 
	C427.620819,782.815857 416.933136,785.553650 406.220306,788.297852 
	C407.982666,794.061218 409.680450,799.613403 411.575378,805.889832 
	C414.137024,819.450867 416.077881,832.275146 410.394379,845.068115 
	C405.928864,848.806946 401.716217,852.360413 397.503571,855.913879 
M363.910461,764.219727 
	C361.858856,763.607727 360.721771,763.933289 361.139008,766.499878 
	C362.840820,776.968750 364.461548,787.450806 366.123749,798.001709 
	C372.862885,795.335754 376.965027,789.196716 377.065552,781.992004 
	C377.176971,774.005432 372.817566,767.889221 363.910461,764.219727 
M354.592743,785.846558 
	C353.587463,779.079468 352.582153,772.312439 351.552917,765.383911 
	C343.110687,769.667358 339.378296,777.057739 340.946991,785.665283 
	C342.269562,792.922302 348.710205,798.645020 356.739960,799.395996 
	C356.066864,795.111328 355.406677,790.908813 354.592743,785.846558 
M358.099487,794.429565 
	C358.478363,796.187622 358.857269,797.945618 359.313690,800.063354 
	C360.850281,799.859009 362.231964,799.675232 363.941620,799.447876 
	C362.130402,787.412231 360.383820,775.806030 358.581818,763.831299 
	C356.930817,763.964966 355.545654,764.077026 353.946320,764.206482 
	C353.946320,765.188110 353.866638,765.835022 353.958282,766.456787 
	C355.291321,775.499878 356.647278,784.539612 358.099487,794.429565 
z"/>
<path fill="#D15182" opacity="1.000000" stroke="none" 
	d="
M410.647247,844.882690 
	C416.077881,832.275146 414.137024,819.450867 411.806885,806.152832 
	C420.691559,813.129333 429.574799,820.528320 438.380798,828.018188 
	C444.425812,833.159851 450.363434,838.427795 456.834656,844.056152 
	C471.146637,856.428101 484.940765,868.420837 498.810760,880.325134 
	C508.127991,888.321777 517.552673,896.193237 527.056519,904.425110 
	C529.063477,906.188049 530.943298,907.646545 532.949219,909.420471 
	C541.333008,916.815369 549.590637,923.894836 557.848267,930.974304 
	C568.431946,940.297180 578.956787,949.688049 589.612427,958.927979 
	C608.439758,975.253906 627.346741,991.488098 646.512207,1007.892090 
	C662.949646,1022.094849 679.096313,1036.164917 695.239868,1050.238770 
	C697.118347,1051.876465 699.036377,1053.474487 700.836853,1055.194702 
	C706.676208,1060.773804 707.904053,1067.235718 704.645630,1074.680664 
	C704.054626,1076.030884 703.560303,1077.423462 702.680359,1079.331055 
	C700.812256,1082.861328 699.285217,1085.856934 697.758057,1088.852539 
	C693.303223,1091.011963 689.590210,1090.175171 686.143127,1086.544312 
	C683.527100,1083.788818 680.430969,1081.489014 677.140625,1078.640991 
	C676.646301,1078.010620 676.641968,1077.724609 676.993408,1077.179688 
	C687.937500,1066.088379 686.587769,1050.823242 680.241516,1042.728394 
	C668.770325,1028.096802 650.230591,1028.035767 637.172302,1042.508057 
	C636.681641,1042.384766 636.400391,1042.309204 636.107971,1042.275513 
	C633.590576,1040.213745 631.073120,1038.151855 628.097473,1035.659058 
	C611.262939,1020.886292 594.916687,1006.510071 578.500793,992.213806 
	C565.352539,980.763184 552.119629,969.409790 538.924255,958.013245 
	C527.551086,948.149292 516.177917,938.285339 504.388367,928.106873 
	C502.158386,926.205383 500.344879,924.618408 498.427429,922.684937 
	C479.090790,905.487000 459.823608,888.674744 440.639465,871.768127 
	C430.566986,862.891541 420.639923,853.849854 410.647247,844.882690 
z"/>
<path fill="#A7DDEA" opacity="1.000000" stroke="none" 
	d="
M538.671387,958.224182 
	C552.119629,969.409790 565.352539,980.763184 578.500793,992.213806 
	C594.916687,1006.510071 611.262939,1020.886292 627.789246,1035.500977 
	C623.752075,1041.609375 619.618469,1047.484741 615.341309,1053.253540 
	C614.217590,1054.769287 612.648865,1055.955200 610.572510,1057.209229 
	C592.412109,1045.308105 574.963684,1033.490234 557.515259,1021.672424 
	C557.106140,1022.268738 556.696960,1022.864990 556.287842,1023.461304 
	C574.222168,1035.706177 592.156494,1047.951172 610.090820,1060.196045 
	C601.751587,1072.584229 593.427185,1084.982300 585.063232,1097.353760 
	C582.843994,1100.636230 580.503723,1103.836792 577.625671,1107.916138 
	C546.267761,1084.537964 515.223450,1061.393555 483.862610,1038.013184 
	C502.181732,1011.291992 520.300049,984.863525 538.671387,958.224182 
z"/>
<path fill="#A7DDEA" opacity="1.000000" stroke="none" 
	d="
M475.021454,948.009583 
	C483.694977,961.968811 492.368469,975.928040 501.005585,989.828796 
	C500.500488,990.531494 500.301178,991.044067 499.926514,991.295654 
	C489.349426,998.400391 491.950684,997.711792 485.459900,988.747437 
	C477.862091,978.254333 470.273682,967.754395 462.396667,956.741394 
	C460.734039,954.375549 459.355896,952.525696 457.905701,950.353088 
	C451.767029,941.333618 445.789185,932.573242 439.612030,923.955750 
	C431.338837,912.414368 431.303986,912.514465 443.355408,905.317078 
	C445.713531,903.908691 447.216858,904.044128 448.646759,906.417236 
	C451.215302,910.680115 453.829590,914.918823 456.547760,919.087463 
	C461.423096,926.564270 466.389526,933.981628 471.322754,941.742615 
	C472.558899,944.044189 473.790192,946.026855 475.021454,948.009583 
z"/>
<path fill="#A7DDEA" opacity="1.000000" stroke="none" 
	d="
M512.578979,1187.990845 
	C506.524811,1171.656128 500.798279,1155.248169 495.058258,1138.474365 
	C510.424469,1133.756226 526.763916,1144.352783 528.821106,1162.001099 
	C529.674133,1169.318726 524.254517,1181.057739 517.611206,1185.153198 
	C516.063232,1186.107544 514.475830,1186.997925 512.578979,1187.990845 
z"/>
<path fill="#99C7D4" opacity="1.000000" stroke="none" 
	d="
M337.083374,722.261902 
	C336.562286,723.686218 336.144806,725.324097 335.094757,726.063354 
	C328.429688,730.755493 321.632416,735.260498 314.848846,739.782349 
	C314.385193,740.091431 313.678436,740.035889 311.843414,740.388184 
	C313.626404,738.283325 314.680450,737.039001 315.948853,735.541626 
	C303.469269,718.634338 290.953827,701.678467 278.438385,684.722595 
	C278.811432,684.407043 279.184509,684.091492 279.557556,683.775879 
	C283.963470,686.416931 285.910248,691.386902 289.007202,695.229187 
	C292.452087,699.503174 295.565277,704.044617 298.821014,708.471008 
	C301.977631,712.762634 305.122284,717.063049 308.289825,721.346558 
	C311.446136,725.614990 314.624329,729.867188 318.016113,734.426575 
	C319.546997,733.454102 320.882233,732.605957 322.806396,731.383667 
	C310.236145,713.289734 297.816620,695.412842 285.397064,677.535889 
	C285.908295,677.176819 286.419525,676.817749 286.930756,676.458740 
	C300.235291,693.601196 312.101166,711.801758 324.695648,729.989990 
	C326.255310,729.028198 327.719604,728.125244 329.781891,726.853577 
	C318.537842,708.462524 307.463043,690.348267 296.388214,672.234009 
	C296.952637,671.888611 297.517029,671.543213 298.081421,671.197815 
	C309.178619,689.146667 320.275848,707.095520 331.667877,725.521179 
	C333.149963,724.579590 334.624695,723.642700 336.221649,722.357178 
	C336.527435,722.025696 336.710968,722.042786 337.083374,722.261902 
z"/>
<path fill="#2A1E24" opacity="1.000000" stroke="none" 
	d="
M698.027161,1089.089355 
	C699.285217,1085.856934 700.812256,1082.861328 702.660034,1079.684082 
	C714.112610,1089.211548 725.232056,1098.934692 736.385620,1108.618774 
	C739.049683,1110.931763 740.835022,1113.512695 737.893555,1116.598633 
	C735.257202,1119.364624 732.280518,1118.791504 729.519775,1116.393677 
	C719.120178,1107.361816 708.705322,1098.347412 698.027161,1089.089355 
z"/>
<path fill="#A7DDEA" opacity="1.000000" stroke="none" 
	d="
M502.875122,1214.420654 
	C506.876343,1213.386108 510.969452,1212.700317 515.448975,1211.909424 
	C521.311462,1227.883789 526.787598,1243.963135 532.263733,1260.042603 
	C531.816284,1260.260498 531.368896,1260.478516 530.921448,1260.696411 
	C521.603333,1245.387451 512.285156,1230.078491 502.875122,1214.420654 
z"/>
<path fill="#30242A" opacity="1.000000" stroke="none" 
	d="
M406.889893,985.053406 
	C408.123260,987.067261 409.037628,989.258850 409.883759,991.766479 
	C401.685913,997.546387 393.557220,1003.011719 385.425385,1008.472351 
	C384.461121,1009.119812 383.525787,1010.174561 382.496460,1010.284119 
	C380.420105,1010.505249 378.288300,1010.205872 376.179382,1010.121216 
	C376.961609,1008.152771 377.170624,1005.386536 378.619324,1004.345703 
	C387.783630,997.761414 397.222565,991.559326 406.889893,985.053406 
z"/>
<path fill="#30242A" opacity="1.000000" stroke="none" 
	d="
M475.327026,947.858459 
	C473.790192,946.026855 472.558899,944.044189 471.639862,941.596924 
	C480.811890,935.098694 489.671631,929.065125 498.531372,923.031494 
	C500.344879,924.618408 502.158386,926.205383 504.013428,928.084839 
	C494.580841,934.820618 485.106720,941.263977 475.327026,947.858459 
z"/>
<path fill="#30242A" opacity="1.000000" stroke="none" 
	d="
M457.977753,950.675781 
	C459.355896,952.525696 460.734039,954.375549 462.100739,956.578979 
	C454.285858,961.970093 446.482422,967.007690 438.330872,972.193481 
	C437.188263,970.455505 436.393860,968.569397 435.842194,966.017822 
	C443.382538,960.460083 450.680145,955.567932 457.977753,950.675781 
z"/>
<path fill="#363138" opacity="1.000000" stroke="none" 
	d="
M1093.216553,356.770630 
	C1071.826782,343.438141 1050.658081,329.924469 1029.505005,316.386292 
	C1029.303345,316.257263 1029.309937,315.803223 1029.647095,314.809509 
	C1051.307739,327.525177 1072.407715,341.152527 1093.844604,354.895325 
	C1093.910278,355.575104 1093.674438,356.081512 1093.216553,356.770630 
z"/>
<path fill="#363138" opacity="1.000000" stroke="none" 
	d="
M676.719788,1077.437256 
	C676.641968,1077.724609 676.646301,1078.010620 676.820496,1078.493408 
	C665.405457,1087.664429 650.958618,1087.928711 641.237915,1079.344116 
	C631.363098,1070.623413 628.909973,1054.028320 635.977600,1042.575928 
	C636.400391,1042.309204 636.681641,1042.384766 637.277710,1042.812256 
	C637.429443,1043.745117 637.412231,1044.481079 637.057251,1044.973755 
	C630.619263,1053.909424 634.661682,1070.209106 642.394104,1077.354492 
	C650.562439,1084.902710 662.677673,1085.196777 673.588623,1078.387817 
	C674.482117,1077.830200 675.669189,1077.743042 676.719788,1077.437256 
z"/>
<path fill="#363138" opacity="1.000000" stroke="none" 
	d="
M610.411621,1060.016846 
	C592.156494,1047.951172 574.222168,1035.706177 556.287842,1023.461304 
	C556.696960,1022.864990 557.106140,1022.268738 557.515259,1021.672424 
	C574.963684,1033.490234 592.412109,1045.308105 610.180786,1057.221069 
	C610.578125,1058.156616 610.655334,1058.997070 610.411621,1060.016846 
z"/>
<path fill="#43362B" opacity="1.000000" stroke="none" 
	d="
M529.204834,470.089996 
	C539.147400,486.606079 548.821411,503.049683 558.476990,519.504089 
	C559.427734,521.124329 560.265137,522.810974 561.155151,524.466736 
	C560.590942,524.788879 560.026733,525.110962 559.462585,525.433044 
	C548.805298,507.606903 538.148071,489.780792 527.171875,471.729401 
	C527.545654,471.009583 528.238342,470.515076 529.204834,470.089996 
z"/>
<path fill="#43362B" opacity="1.000000" stroke="none" 
	d="
M589.714844,443.075409 
	C596.800781,458.869080 603.576660,474.618530 610.352478,490.368011 
	C609.643494,490.683502 608.934570,490.999023 608.225586,491.314545 
	C601.499451,475.769226 594.773376,460.223907 587.958191,444.314697 
	C588.381042,443.644257 588.892883,443.337708 589.714844,443.075409 
z"/>
<path fill="#43362B" opacity="1.000000" stroke="none" 
	d="
M476.241943,509.947235 
	C486.820496,523.060913 497.118835,536.232117 507.417206,549.403381 
	C506.874054,549.832275 506.330933,550.261230 505.787811,550.690125 
	C495.538055,537.851746 485.288269,525.013428 474.770325,511.893127 
	C474.988647,511.075745 475.475189,510.540283 476.241943,509.947235 
z"/>
<path fill="#43362B" opacity="1.000000" stroke="none" 
	d="
M663.446289,430.965881 
	C666.194153,444.900909 668.612488,458.750183 671.030762,472.599426 
	C670.324036,472.723785 669.617371,472.848145 668.910706,472.972504 
	C666.316406,459.270691 663.722168,445.568909 661.119019,431.460083 
	C661.778931,430.995422 662.447754,430.937775 663.446289,430.965881 
z"/>
<path fill="#43362B" opacity="1.000000" stroke="none" 
	d="
M399.421143,639.599915 
	C411.984100,643.854309 424.305542,648.251587 436.626953,652.648865 
	C436.372101,653.392334 436.117249,654.135803 435.862396,654.879272 
	C423.582672,650.574768 411.302979,646.270325 398.682892,641.878540 
	C398.621582,641.108398 398.900604,640.425598 399.421143,639.599915 
z"/>
<path fill="#3E272A" opacity="1.000000" stroke="none" 
	d="
M429.619202,567.891479 
	C440.824097,576.509277 451.751984,585.281494 462.679901,594.053650 
	C462.217896,594.618225 461.755890,595.182800 461.293915,595.747314 
	C450.657562,587.224121 440.021210,578.700867 429.075562,570.002808 
	C428.958282,569.233887 429.150269,568.639893 429.619202,567.891479 
z"/>
<path fill="#43362B" opacity="1.000000" stroke="none" 
	d="
M740.502075,439.079407 
	C738.794556,452.138092 736.793823,465.121552 734.793091,478.105042 
	C734.021545,477.993591 733.250061,477.882141 732.478516,477.770660 
	C734.445374,465.156219 736.412231,452.541779 738.417603,439.492279 
	C739.040405,439.039581 739.624695,439.021912 740.502075,439.079407 
z"/>
<path fill="#43362B" opacity="1.000000" stroke="none" 
	d="
M388.940674,710.226868 
	C400.763458,710.269897 412.439911,710.611206 424.116364,710.952515 
	C424.109528,711.433167 424.102692,711.913879 424.095856,712.394531 
	C412.770081,712.394531 401.444336,712.394531 389.656067,712.405640 
	C389.060516,711.786194 388.927460,711.155640 388.940674,710.226868 
z"/>
<path fill="#363138" opacity="1.000000" stroke="none" 
	d="
M1043.374878,429.105103 
	C1034.934814,423.442108 1026.762695,417.687012 1018.590515,411.931946 
	C1019.005615,411.311523 1019.420654,410.691101 1019.835754,410.070709 
	C1027.920532,415.680786 1036.005249,421.290863 1044.408325,426.999817 
	C1044.365356,427.736786 1044.004150,428.374878 1043.374878,429.105103 
z"/>
<path fill="#363138" opacity="1.000000" stroke="none" 
	d="
M659.234619,988.774597 
	C651.651489,984.049927 644.270508,979.128113 636.889587,974.206299 
	C637.293457,973.586670 637.697388,972.967041 638.101318,972.347412 
	C645.204285,977.176758 652.307251,982.006165 659.739258,986.949829 
	C659.857788,987.568604 659.647217,988.072998 659.234619,988.774597 
z"/>
<path fill="#363138" opacity="1.000000" stroke="none" 
	d="
M1068.437256,392.332642 
	C1061.704590,388.149231 1055.265015,383.857086 1048.825317,379.564911 
	C1049.194824,378.992126 1049.564453,378.419312 1049.933960,377.846527 
	C1056.326172,381.896851 1062.718262,385.947174 1069.450684,390.057678 
	C1069.437256,390.819885 1069.083618,391.521881 1068.437256,392.332642 
z"/>
<path fill="#D15081" opacity="1.000000" stroke="none" 
	d="
M1034.036621,926.153076 
	C1037.037964,909.290588 1040.273926,892.904358 1042.902100,876.421143 
	C1044.825195,864.359741 1048.087646,861.689392 1060.176392,863.834045 
	C1077.591309,866.923462 1095.016113,869.957642 1112.441650,872.986328 
	C1121.813110,874.615112 1124.267334,878.588806 1122.548096,888.018738 
	C1117.893799,913.547363 1113.508911,939.125122 1108.967163,964.674438 
	C1105.871582,982.088745 1102.693359,999.488342 1099.543701,1016.893005 
	C1099.426025,1017.543396 1099.105957,1018.172485 1099.074463,1018.820984 
	C1098.568481,1029.266846 1092.835327,1031.137573 1084.732300,1029.841187 
	C1065.639160,1026.786255 1046.618530,1023.276978 1027.575195,1019.913330 
	C1023.276306,1019.154053 1019.658386,1015.239136 1020.089722,1010.698608 
	C1020.838684,1002.815674 1022.143311,994.974548 1023.472961,987.159790 
	C1026.910645,966.956360 1030.488770,946.776855 1034.036621,926.153076 
M1064.439331,1012.133118 
	C1051.203491,1009.900330 1037.967651,1007.667480 1024.731812,1005.434692 
	C1024.618896,1006.150391 1024.505981,1006.866150 1024.393188,1007.581909 
	C1047.878418,1011.889587 1071.363525,1016.197266 1094.848755,1020.504944 
	C1094.980225,1019.847656 1095.111816,1019.190369 1095.243286,1018.533081 
	C1085.257446,1016.438660 1075.271484,1014.344299 1064.439331,1012.133118 
z"/>
<path fill="#F2D966" opacity="1.000000" stroke="none" 
	d="
M1027.668945,767.136658 
	C1030.025024,767.633301 1032.025879,767.880432 1033.888794,768.526062 
	C1038.586914,770.154114 1040.874146,774.527344 1039.895508,780.301941 
	C1037.240356,795.970947 1034.550903,811.635376 1031.697021,827.269165 
	C1030.192627,835.510376 1026.407227,837.694458 1017.818665,836.164124 
	C999.078064,832.824951 980.289856,829.745911 961.576294,826.264099 
	C953.278076,824.719971 951.345032,821.165466 952.827087,812.839539 
	C955.612061,797.193420 958.255920,781.522278 960.974792,765.864319 
	C962.162781,759.023071 966.346008,756.260864 972.969055,757.463074 
	C991.048523,760.744934 1009.155090,763.877075 1027.668945,767.136658 
M966.909485,818.676453 
	C985.018005,821.950684 1003.039307,825.830078 1021.528564,826.773315 
	C1020.536255,825.664307 1019.410645,825.189514 1018.238525,824.996338 
	C1007.922852,823.296448 997.588135,821.710022 987.281433,819.958496 
	C980.904541,818.874817 974.572815,817.527771 968.207947,816.369446 
	C965.492188,815.875305 965.477295,815.957031 966.909485,818.676453 
z"/>
<path fill="#F2D966" opacity="1.000000" stroke="none" 
	d="
M1052.942627,820.852234 
	C1055.066772,808.179871 1057.004517,795.913086 1059.308594,783.715454 
	C1060.709839,776.296936 1065.107422,773.618835 1072.680420,774.947449 
	C1091.757446,778.294128 1110.834229,781.642700 1129.901978,785.041321 
	C1136.095825,786.145264 1139.260010,790.744629 1138.207642,796.892822 
	C1135.470703,812.882935 1132.738770,828.873901 1129.976562,844.859680 
	C1128.771606,851.832764 1124.523193,855.066772 1117.637695,853.876282 
	C1098.714600,850.604553 1079.804810,847.250916 1060.918823,843.772644 
	C1052.560547,842.233276 1049.770752,838.002625 1051.145264,829.550842 
	C1051.596802,826.773926 1052.314575,824.040344 1052.942627,820.852234 
M1069.279663,835.408325 
	C1066.048706,834.984619 1062.817871,834.560852 1059.586914,834.137085 
	C1059.513184,834.847473 1059.439453,835.557922 1059.365723,836.268372 
	C1078.988892,839.396729 1098.591064,842.674194 1118.309082,845.125793 
	C1118.414185,844.415833 1118.519287,843.705811 1118.624390,842.995789 
	C1102.457275,840.533875 1086.290039,838.072021 1069.279663,835.408325 
z"/>
<path fill="#F2D966" opacity="1.000000" stroke="none" 
	d="
M757.057129,758.155884 
	C758.726013,748.930359 760.358704,740.137329 762.001831,731.346375 
	C763.167725,725.108398 768.458862,721.593872 774.727173,722.705872 
	C793.639282,726.060791 812.589478,729.208679 831.469421,732.734192 
	C839.366882,734.208984 842.206848,738.528198 840.891724,746.317017 
	C838.327515,761.502686 835.633118,776.667725 832.826233,791.810486 
	C831.546326,798.715820 825.831360,802.343079 818.882690,801.150574 
	C800.766052,798.041626 782.640259,794.985596 764.524292,791.872925 
	C756.204773,790.443542 752.642273,785.501587 753.944275,777.211365 
	C754.920410,770.995972 755.994751,764.796082 757.057129,758.155884 
M792.150513,788.019592 
	C797.703979,788.983398 803.269409,789.883972 808.807434,790.929382 
	C814.040710,791.917175 819.245239,793.057190 824.462402,794.130249 
	C824.543213,793.580994 824.624023,793.031738 824.704834,792.482483 
	C805.850708,785.727051 785.916443,785.616943 766.324951,783.367065 
	C774.158813,787.547363 782.875244,786.774841 792.150513,788.019592 
z"/>
<path fill="#F2D966" opacity="1.000000" stroke="none" 
	d="
M937.833496,899.728333 
	C940.579712,883.971558 943.274109,868.646667 945.914856,853.312622 
	C947.060730,846.659058 952.563660,844.717896 957.365051,845.492065 
	C976.972168,848.653320 996.499207,852.329407 1016.014160,856.034790 
	C1022.660278,857.296631 1025.405029,862.101685 1024.199951,868.964111 
	C1021.508850,884.289856 1019.021790,899.653442 1016.134277,914.941650 
	C1014.624146,922.936768 1010.026978,925.618713 1002.153503,924.240234 
	C984.052124,921.070984 965.935120,917.990295 947.815613,914.925415 
	C939.200195,913.468201 935.763916,908.493103 937.833496,899.728333 
M945.233887,904.217590 
	C943.570190,907.360657 946.436096,906.641846 947.648376,906.781555 
	C965.944458,908.890137 984.250549,910.911804 1002.558655,912.914246 
	C1003.995422,913.071411 1005.464294,912.934875 1006.918274,912.934875 
	C1006.932068,912.316711 1006.945801,911.698547 1006.959595,911.080383 
	C986.655334,908.772461 966.351074,906.464478 945.233887,904.217590 
z"/>
<path fill="#F2D966" opacity="1.000000" stroke="none" 
	d="
M852.047363,681.149536 
	C851.062927,686.792480 850.267700,692.036560 849.120605,697.202576 
	C847.500427,704.499084 842.501953,707.523254 835.236633,706.228394 
	C817.471375,703.062134 799.695007,699.954346 781.900269,696.958923 
	C773.464050,695.538879 768.936523,689.082947 770.637451,681.542236 
	C773.837952,667.353516 775.670166,652.857483 778.117188,638.497009 
	C779.495056,630.410767 784.486206,626.620300 792.554749,627.941956 
	C810.688416,630.912354 828.801331,634.016113 846.894653,637.223816 
	C855.065125,638.672363 858.602173,644.171692 857.123596,652.352417 
	C855.415649,661.802002 853.758667,671.260925 852.047363,681.149536 
M820.412231,692.259277 
	C816.121643,691.750000 811.825012,691.286072 807.542114,690.718384 
	C803.424255,690.172607 799.324280,689.492004 795.209473,688.921509 
	C791.268250,688.375000 787.317932,687.893738 783.371643,687.383850 
	C783.327759,688.039673 783.283813,688.695557 783.239868,689.351440 
	C802.748535,692.572510 822.278809,695.607056 842.054932,696.516479 
	C842.130859,695.911255 842.206848,695.306030 842.282837,694.700806 
	C835.291443,693.913635 828.300049,693.126465 820.412231,692.259277 
z"/>
<path fill="#F2D966" opacity="1.000000" stroke="none" 
	d="
M854.189331,801.159668 
	C855.516418,790.284668 856.855408,779.797424 858.432556,769.346130 
	C859.444214,762.641907 860.787231,755.987000 862.017761,749.316650 
	C863.196411,742.927673 868.856567,739.081055 875.229309,740.215332 
	C893.633850,743.491028 912.042419,746.744812 930.452393,749.989624 
	C938.545227,751.416016 942.267761,756.892273 940.787476,765.089111 
	C938.141602,779.740784 935.538391,794.400208 932.955627,809.063171 
	C931.713928,816.112244 926.210999,820.179138 918.758789,818.877747 
	C901.319214,815.832397 883.957703,812.326843 866.489929,809.463196 
	C860.973816,808.558960 856.585022,806.959106 854.189331,801.159668 
M869.299011,801.065186 
	C886.671570,803.635986 904.044189,806.206787 921.416748,808.777588 
	C921.485229,808.297485 921.553711,807.817383 921.622192,807.337280 
	C902.313416,803.007812 882.801453,800.025757 863.110901,798.228210 
	C863.012817,798.824341 862.914795,799.420410 862.816772,800.016541 
	C864.684631,800.351685 866.552429,800.686829 869.299011,801.065186 
z"/>
<path fill="#F2D966" opacity="1.000000" stroke="none" 
	d="
M1069.948242,743.819702 
	C1069.204956,739.935181 1067.708008,736.252197 1068.236206,732.887085 
	C1070.468872,718.662537 1073.149536,704.501587 1075.978027,690.379944 
	C1077.638794,682.088928 1083.039551,679.064941 1091.444580,680.590149 
	C1109.035156,683.782288 1126.693970,686.606262 1144.258301,689.932251 
	C1152.641357,691.519775 1155.848511,697.208679 1154.311279,705.674561 
	C1151.797119,719.520142 1149.450928,733.396240 1147.015259,747.256165 
	C1145.490479,755.932861 1139.715942,759.731018 1130.850098,758.154419 
	C1113.408813,755.052795 1095.919556,752.210205 1078.525269,748.869080 
	C1075.534790,748.294678 1072.916260,745.783813 1069.948242,743.819702 
M1084.722778,738.243958 
	C1101.954346,740.804871 1119.184814,743.373779 1136.423828,745.882935 
	C1136.864746,745.947083 1137.400879,745.357483 1138.170654,744.911865 
	C1137.385132,744.424622 1137.015991,744.022156 1136.596558,743.960449 
	C1119.811157,741.490173 1103.022827,739.037781 1086.223877,736.661438 
	C1085.640259,736.578857 1084.943848,737.294800 1084.722778,738.243958 
z"/>
<path fill="#F2D966" opacity="1.000000" stroke="none" 
	d="
M954.937805,682.843140 
	C952.950684,693.856323 950.989319,704.435120 949.041992,715.016418 
	C947.853943,721.472046 944.655090,724.577881 938.098694,723.916443 
	C929.552856,723.054321 921.086487,721.360718 912.605652,719.909607 
	C901.349365,717.983643 890.107666,715.970520 878.868347,713.947144 
	C872.562988,712.811951 869.021545,708.034607 870.136169,701.700928 
	C872.947327,685.727112 875.832947,669.764526 878.917114,653.841614 
	C880.338379,646.504150 884.657104,644.134888 891.989441,645.479065 
	C909.898743,648.762390 927.840210,651.871460 945.775391,655.012329 
	C956.072571,656.815613 958.713928,660.456665 956.984192,670.666321 
	C956.320740,674.582214 955.641602,678.495361 954.937805,682.843140 
M896.523682,707.091675 
	C892.279053,706.762451 888.034424,706.433228 883.789856,706.104004 
	C883.746155,706.793518 883.702454,707.483032 883.658752,708.172546 
	C902.803040,710.149780 921.947327,712.126953 941.091614,714.104187 
	C941.180420,713.368469 941.269165,712.632751 941.357910,711.897034 
	C926.716125,710.323547 912.074280,708.750000 896.523682,707.091675 
z"/>
<path fill="#F2D966" opacity="1.000000" stroke="none" 
	d="
M841.943115,862.848633 
	C843.388000,853.924438 844.679871,845.411377 846.252136,836.950439 
	C847.540833,830.015381 852.430420,827.033264 859.397339,828.278259 
	C877.970520,831.597473 896.555420,834.853210 915.151001,838.044617 
	C923.382874,839.457336 926.338074,843.405029 924.899719,852.224182 
	C922.981262,863.987061 920.787292,875.704956 918.703003,887.440735 
	C918.153381,890.535461 917.452881,893.608337 917.028198,896.719421 
	C915.900513,904.980164 911.975891,908.231445 903.831909,906.898560 
	C891.907593,904.947021 880.033508,902.689148 868.136902,900.567932 
	C861.456421,899.376770 854.796814,898.041809 848.086243,897.053345 
	C839.892273,895.846436 836.928406,892.479675 838.086243,884.289307 
	C839.081787,877.247498 840.615601,870.281738 841.943115,862.848633 
M887.233826,894.058594 
	C894.115051,894.752625 900.996277,895.446594 907.877502,896.140564 
	C907.940613,895.401367 908.003662,894.662170 908.066711,893.922974 
	C888.762085,891.732971 869.457458,889.543030 850.152771,887.353027 
	C850.056030,888.076050 849.959290,888.799133 849.862488,889.522156 
	C862.017456,891.019531 874.172363,892.516907 887.233826,894.058594 
z"/>
<path fill="#F2D966" opacity="1.000000" stroke="none" 
	d="
M929.032288,947.129761 
	C929.410095,944.916565 929.695923,943.112488 930.109497,941.338196 
	C931.137207,936.929626 934.911926,933.509094 939.392395,934.017822 
	C948.765442,935.081909 958.096130,936.578247 967.405457,938.129517 
	C978.188660,939.926270 988.932495,941.960449 999.689087,943.915527 
	C1006.977600,945.240173 1010.077087,949.414246 1008.862244,956.570190 
	C1006.256348,971.920959 1003.559326,987.256470 1000.858521,1002.591003 
	C999.395203,1010.899414 995.315735,1013.617798 986.308289,1012.067993 
	C967.372742,1008.810059 948.435913,1005.550354 929.544861,1002.047485 
	C922.742432,1000.786194 920.368469,996.426880 921.604431,989.648254 
	C924.159912,975.632874 926.543945,961.586182 929.032288,947.129761 
M950.469238,997.929688 
	C965.092346,1000.173279 979.635010,1003.172180 994.427002,1003.828918 
	C994.493530,1003.257751 994.560059,1002.686584 994.626587,1002.115417 
	C973.171326,998.771057 951.716064,995.426758 930.260803,992.082458 
	C930.148315,992.694031 930.035828,993.305664 929.923279,993.917236 
	C936.486511,995.221741 943.049683,996.526245 950.469238,997.929688 
z"/>
<path fill="#F2D966" opacity="1.000000" stroke="none" 
	d="
M851.414429,988.629639 
	C844.150940,987.313477 837.303223,986.114380 830.447021,984.965271 
	C825.513184,984.138367 822.476379,981.181274 823.025513,976.052795 
	C824.081665,966.189270 825.760681,956.388550 827.325500,946.584839 
	C828.394531,939.886597 829.693726,933.224854 830.915527,926.551453 
	C832.539917,917.679199 835.300903,915.522095 844.108704,916.993591 
	C863.208191,920.184326 882.292114,923.477356 901.342285,926.948669 
	C908.116760,928.183105 911.005188,932.445190 909.888977,939.173950 
	C907.288574,954.850830 904.584778,970.512390 901.719116,986.142761 
	C900.340088,993.664307 895.976379,996.398865 888.537292,995.097351 
	C876.305725,992.957153 864.063965,990.874817 851.414429,988.629639 
M879.382385,982.220276 
	C863.025269,979.421814 846.668091,976.623352 830.310974,973.824890 
	C830.191284,974.573730 830.071594,975.322510 829.951904,976.071350 
	C851.727173,979.831360 873.502441,983.591431 895.277710,987.351440 
	C895.408813,986.625305 895.539917,985.899170 895.671021,985.172974 
	C890.526794,984.241455 885.382507,983.309875 879.382385,982.220276 
z"/>
<path fill="#F2D966" opacity="1.000000" stroke="none" 
	d="
M806.935242,936.842468 
	C804.958313,947.688416 803.130127,958.124634 801.030151,968.505981 
	C799.437622,976.378479 795.812195,978.561035 787.940613,977.214355 
	C769.505737,974.060303 751.055847,970.993896 732.608398,967.913940 
	C723.817505,966.446228 721.087036,962.197937 722.765259,953.139893 
	C725.539124,938.168335 727.989380,923.135986 730.851807,908.182007 
	C732.399475,900.096680 735.709167,897.810913 743.878296,899.098022 
	C756.301819,901.055481 768.668213,903.374878 781.059509,905.537231 
	C787.744812,906.703918 794.436646,907.833923 801.115723,909.035095 
	C807.791931,910.235779 810.906189,915.032104 809.583984,921.747437 
	C808.625122,926.617676 807.833374,931.520752 806.935242,936.842468 
M795.137939,968.819763 
	C797.104553,965.005371 793.481934,966.302002 792.331970,966.090759 
	C773.887817,962.702454 755.419861,959.443237 736.948059,956.207336 
	C734.024170,955.695190 731.055237,955.439636 728.107178,955.065491 
	C728.016846,955.723389 727.926575,956.381348 727.836304,957.039307 
	C749.993591,960.979980 772.150879,964.920654 795.137939,968.819763 
z"/>
<path fill="#F2D966" opacity="1.000000" stroke="none" 
	d="
M784.120850,885.955200 
	C772.592834,883.947388 761.503845,881.945190 750.403748,880.006226 
	C740.399414,878.258606 736.925598,873.146790 738.753113,863.123352 
	C741.220032,849.591980 743.500366,836.026733 745.928406,822.488098 
	C747.568481,813.342712 752.434937,809.614197 761.849792,811.113770 
	C779.686462,813.954834 797.483948,817.063782 815.245117,820.346069 
	C822.834839,821.748657 826.323730,827.719177 824.865051,836.294495 
	C822.558472,849.854675 820.159851,863.403442 817.504944,876.898926 
	C815.371277,887.745117 810.229187,890.814941 799.239868,888.585510 
	C794.369751,887.597473 789.451477,886.846802 784.120850,885.955200 
M789.193176,876.069946 
	C792.978027,876.569641 796.754395,877.151489 800.550232,877.545288 
	C804.152649,877.919006 807.775513,878.095886 811.389343,878.359253 
	C811.440002,877.775208 811.490662,877.191101 811.541321,876.607056 
	C790.072144,873.640564 768.603027,870.674133 747.133850,867.707703 
	C747.031311,868.410339 746.928711,869.112976 746.826172,869.815613 
	C760.652954,871.881348 774.479797,873.947144 789.193176,876.069946 
z"/>
<path fill="#F2D966" opacity="1.000000" stroke="none" 
	d="
M976.148743,679.279541 
	C977.634155,674.880127 978.451050,670.540283 980.605957,667.019348 
	C983.530823,662.240417 988.811951,662.382629 993.682800,663.214294 
	C1010.166321,666.028870 1026.613281,669.056519 1043.082397,671.956238 
	C1053.480103,673.786987 1057.491577,678.659607 1055.856812,688.857544 
	C1053.629883,702.750305 1051.029419,716.589294 1048.282227,730.390259 
	C1046.624634,738.717957 1041.559326,742.246460 1033.085571,740.878967 
	C1015.268921,738.003662 997.482483,734.921326 979.736023,731.640198 
	C972.277222,730.261230 968.464722,723.642395 969.832703,715.931335 
	C971.973022,703.866089 974.000916,691.780762 976.148743,679.279541 
M988.674988,723.758850 
	C1005.844421,725.830139 1023.013916,727.901428 1040.183350,729.972717 
	C1040.267090,729.212158 1040.350952,728.451599 1040.434692,727.691040 
	C1020.849548,725.267822 1001.264343,722.844543 981.679199,720.421326 
	C981.563354,721.185852 981.447510,721.950439 981.331665,722.715027 
	C983.488403,723.037842 985.645203,723.360718 988.674988,723.758850 
z"/>
<path fill="#3E272A" opacity="1.000000" stroke="none" 
	d="
M946.181152,1044.737549 
	C912.612549,1039.118774 879.477234,1033.547974 846.334839,1028.020020 
	C799.563904,1020.219177 752.786987,1012.453552 706.016174,1004.651794 
	C704.497314,1004.398376 703.016724,1003.915527 701.518250,1003.539673 
	C701.661804,1002.824219 701.805298,1002.108765 701.948853,1001.393311 
	C840.338501,1024.440430 978.728149,1047.487671 1117.117798,1070.534790 
	C1116.986572,1071.346558 1116.855347,1072.158325 1116.724121,1072.970093 
	C1060.019897,1063.581665 1003.315613,1054.193237 946.181152,1044.737549 
z"/>
<path fill="#363138" opacity="1.000000" stroke="none" 
	d="
M691.387451,906.267700 
	C677.063965,897.544800 663.000427,888.602478 648.936951,879.660156 
	C649.333069,879.018066 649.729187,878.375977 650.125305,877.733887 
	C663.835144,886.447571 677.545044,895.161316 691.578247,903.969055 
	C691.816833,904.724854 691.732178,905.386597 691.387451,906.267700 
z"/>
<path fill="#363138" opacity="1.000000" stroke="none" 
	d="
M683.885193,950.806519 
	C678.645386,947.738159 673.502319,944.354980 668.359253,940.971802 
	C668.688354,940.465881 669.017456,939.959961 669.346558,939.454041 
	C673.985779,942.366211 678.625061,945.278442 683.588562,948.368652 
	C683.935852,949.195007 683.958862,949.843384 683.885193,950.806519 
z"/>
<path fill="#FFFFFF" opacity="1.000000" stroke="none" 
	d="
M747.064819,586.013062 
	C731.315735,595.282532 715.482117,604.448486 699.767517,613.814209 
	C631.564026,654.463074 563.395386,695.170532 495.209717,735.849365 
	C494.505890,736.269165 493.743408,736.590637 492.469330,737.227539 
	C487.005981,729.517334 483.515350,720.994812 481.018402,712.062256 
	C471.806030,679.106018 477.641907,648.103027 493.931610,618.736511 
	C513.773071,582.966980 543.445251,557.332703 578.957153,538.043274 
	C610.651184,520.827576 644.374329,510.881683 680.711182,512.184814 
	C708.361023,513.176331 733.683716,521.284424 755.324036,539.932129 
	C753.023376,554.853149 750.449097,569.515503 747.630676,584.730713 
	C747.155518,585.492554 747.034546,585.752747 747.023743,586.064148 
	C747.023743,586.064148 747.035095,586.001526 747.064819,586.013062 
z"/>
<path fill="#F2DA66" opacity="1.000000" stroke="none" 
	d="
M747.279419,586.030212 
	C747.034546,585.752747 747.155518,585.492554 747.558411,585.148010 
	C747.665222,585.340454 747.600159,585.668396 747.279419,586.030212 
z"/>
<path fill="#FFFFFF" opacity="1.000000" stroke="none" 
	d="
M526.929260,904.120667 
	C517.552673,896.193237 508.127991,888.321777 498.810760,880.325134 
	C484.940765,868.420837 471.146637,856.428101 457.134552,844.185059 
	C475.886627,832.483704 494.792297,821.016602 513.768188,809.666931 
	C567.873169,777.306274 621.999512,744.981262 676.133484,712.669067 
	C692.843018,702.695251 709.604065,692.807800 726.685181,682.729126 
	C722.587219,689.535217 718.321106,696.612671 713.671814,703.428772 
	C698.784607,725.253723 683.746704,746.975830 668.782654,768.748413 
	C632.173584,822.014160 595.572693,875.285522 558.975769,928.559509 
	C558.603149,929.101868 558.327454,929.710754 557.927368,930.631409 
	C549.590637,923.894836 541.333008,916.815369 533.248535,909.219238 
	C542.364624,902.655823 551.315552,896.621033 560.240845,890.548523 
	C561.466858,889.714355 562.968506,888.907410 563.611816,887.698853 
	C564.280884,886.441895 564.723267,884.209595 564.051697,883.329895 
	C563.355286,882.417603 561.165222,882.270142 559.701721,882.435730 
	C558.492859,882.572510 557.346619,883.587891 556.248535,884.326782 
	C546.465881,890.910522 536.700012,897.519226 526.929260,904.120667 
z"/>
<path fill="#FEFEFE" opacity="1.000000" stroke="none" 
	d="
M457.905670,950.353027 
	C450.680145,955.567932 443.382538,960.460083 435.846008,965.617004 
	C431.175293,953.541870 426.639130,941.238342 422.333954,928.854370 
	C413.986176,904.841614 405.768311,880.783691 397.500122,856.329163 
	C401.716217,852.360413 405.928864,848.806946 410.394379,845.068115 
	C420.639923,853.849854 430.566986,862.891541 440.639465,871.768127 
	C459.823608,888.674744 479.090790,905.487000 498.427429,922.684937 
	C489.671631,929.065125 480.811890,935.098694 471.635010,941.278076 
	C466.389526,933.981628 461.423096,926.564270 456.547760,919.087463 
	C453.829590,914.918823 451.215302,910.680115 448.646759,906.417236 
	C447.216858,904.044128 445.713531,903.908691 443.355408,905.317078 
	C431.303986,912.514465 431.338837,912.414368 439.612030,923.955750 
	C445.789185,932.573242 451.767029,941.333618 457.905670,950.353027 
z"/>
<path fill="#A3D7E4" opacity="1.000000" stroke="none" 
	d="
M364.272034,764.384949 
	C372.817566,767.889221 377.176971,774.005432 377.065552,781.992004 
	C376.965027,789.196716 372.862885,795.335754 366.123749,798.001709 
	C364.461548,787.450806 362.840820,776.968750 361.139008,766.499878 
	C360.721771,763.933289 361.858856,763.607727 364.272034,764.384949 
z"/>
<path fill="#A3D7E4" opacity="1.000000" stroke="none" 
	d="
M354.669617,786.276367 
	C355.406677,790.908813 356.066864,795.111328 356.739960,799.395996 
	C348.710205,798.645020 342.269562,792.922302 340.946991,785.665283 
	C339.378296,777.057739 343.110687,769.667358 351.552917,765.383911 
	C352.582153,772.312439 353.587463,779.079468 354.669617,786.276367 
z"/>
<path fill="#A3D7E4" opacity="1.000000" stroke="none" 
	d="
M358.048645,794.004883 
	C356.647278,784.539612 355.291321,775.499878 353.958282,766.456787 
	C353.866638,765.835022 353.946320,765.188110 353.946320,764.206482 
	C355.545654,764.077026 356.930817,763.964966 358.581818,763.831299 
	C360.383820,775.806030 362.130402,787.412231 363.941620,799.447876 
	C362.231964,799.675232 360.850281,799.859009 359.313690,800.063354 
	C358.857269,797.945618 358.478363,796.187622 358.048645,794.004883 
z"/>
<path fill="#A7DBE8" opacity="1.000000" stroke="none" 
	d="
M676.993408,1077.179810 
	C675.669189,1077.743042 674.482117,1077.830200 673.588623,1078.387817 
	C662.677673,1085.196777 650.562439,1084.902710 642.394104,1077.354492 
	C634.661682,1070.209106 630.619263,1053.909424 637.057251,1044.973755 
	C637.412231,1044.481079 637.429443,1043.745117 637.498413,1042.818115 
	C650.230591,1028.035767 668.770325,1028.096802 680.241516,1042.728394 
	C686.587769,1050.823242 687.937500,1066.088379 676.993408,1077.179810 
M653.835388,1062.667114 
	C658.846130,1066.974365 663.202942,1066.900879 665.906067,1062.273315 
	C668.083801,1058.545166 667.736755,1054.836426 664.470276,1051.903442 
	C661.409607,1049.155151 657.801514,1048.783569 654.506592,1051.440308 
	C650.734253,1054.481812 651.045227,1058.256470 653.835388,1062.667114 
z"/>
<path fill="#30242A" opacity="1.000000" stroke="none" 
	d="
M527.056519,904.425110 
	C536.700012,897.519226 546.465881,890.910522 556.248535,884.326782 
	C557.346619,883.587891 558.492859,882.572510 559.701721,882.435730 
	C561.165222,882.270142 563.355286,882.417603 564.051697,883.329895 
	C564.723267,884.209595 564.280884,886.441895 563.611816,887.698853 
	C562.968506,888.907410 561.466858,889.714355 560.240845,890.548523 
	C551.315552,896.621033 542.364624,902.655823 533.122437,908.903809 
	C530.943298,907.646545 529.063477,906.188049 527.056519,904.425110 
z"/>
<path fill="#3E272A" opacity="1.000000" stroke="none" 
	d="
M1064.862549,1012.191528 
	C1075.271484,1014.344299 1085.257446,1016.438660 1095.243286,1018.533081 
	C1095.111816,1019.190369 1094.980225,1019.847656 1094.848755,1020.504944 
	C1071.363525,1016.197266 1047.878418,1011.889587 1024.393188,1007.581909 
	C1024.505981,1006.866150 1024.618896,1006.150391 1024.731812,1005.434692 
	C1037.967651,1007.667480 1051.203491,1009.900330 1064.862549,1012.191528 
z"/>
<path fill="#43362B" opacity="1.000000" stroke="none" 
	d="
M966.532104,818.541504 
	C965.477295,815.957031 965.492188,815.875305 968.207947,816.369446 
	C974.572815,817.527771 980.904541,818.874817 987.281433,819.958496 
	C997.588135,821.710022 1007.922852,823.296448 1018.238525,824.996338 
	C1019.410645,825.189514 1020.536255,825.664307 1021.528564,826.773315 
	C1003.039307,825.830078 985.018005,821.950684 966.532104,818.541504 
z"/>
<path fill="#43362B" opacity="1.000000" stroke="none" 
	d="
M1069.701172,835.509277 
	C1086.290039,838.072021 1102.457275,840.533875 1118.624390,842.995789 
	C1118.519287,843.705811 1118.414185,844.415833 1118.309082,845.125793 
	C1098.591064,842.674194 1078.988892,839.396729 1059.365723,836.268372 
	C1059.439453,835.557922 1059.513184,834.847473 1059.586914,834.137085 
	C1062.817871,834.560852 1066.048706,834.984619 1069.701172,835.509277 
z"/>
<path fill="#43362B" opacity="1.000000" stroke="none" 
	d="
M791.697266,787.979004 
	C782.875244,786.774841 774.158813,787.547363 766.324951,783.367065 
	C785.916443,785.616943 805.850708,785.727051 824.704834,792.482483 
	C824.624023,793.031738 824.543213,793.580994 824.462402,794.130249 
	C819.245239,793.057190 814.040710,791.917175 808.807434,790.929382 
	C803.269409,789.883972 797.703979,788.983398 791.697266,787.979004 
z"/>
<path fill="#43362B" opacity="1.000000" stroke="none" 
	d="
M945.640381,904.187073 
	C966.351074,906.464478 986.655334,908.772461 1006.959595,911.080383 
	C1006.945801,911.698547 1006.932068,912.316711 1006.918274,912.934875 
	C1005.464294,912.934875 1003.995422,913.071411 1002.558655,912.914246 
	C984.250549,910.911804 965.944458,908.890137 947.648376,906.781555 
	C946.436096,906.641846 943.570190,907.360657 945.640381,904.187073 
z"/>
<path fill="#43362B" opacity="1.000000" stroke="none" 
	d="
M820.860474,692.299255 
	C828.300049,693.126465 835.291443,693.913635 842.282837,694.700806 
	C842.206848,695.306030 842.130859,695.911255 842.054932,696.516479 
	C822.278809,695.607056 802.748535,692.572510 783.239868,689.351440 
	C783.283813,688.695557 783.327759,688.039673 783.371643,687.383850 
	C787.317932,687.893738 791.268250,688.375000 795.209473,688.921509 
	C799.324280,689.492004 803.424255,690.172607 807.542114,690.718384 
	C811.825012,691.286072 816.121643,691.750000 820.860474,692.299255 
z"/>
<path fill="#43362B" opacity="1.000000" stroke="none" 
	d="
M868.859619,801.043579 
	C866.552429,800.686829 864.684631,800.351685 862.816772,800.016541 
	C862.914795,799.420410 863.012817,798.824341 863.110901,798.228210 
	C882.801453,800.025757 902.313416,803.007812 921.622192,807.337280 
	C921.553711,807.817383 921.485229,808.297485 921.416748,808.777588 
	C904.044189,806.206787 886.671570,803.635986 868.859619,801.043579 
z"/>
<path fill="#43362B" opacity="1.000000" stroke="none" 
	d="
M1084.511353,737.941284 
	C1084.943848,737.294800 1085.640259,736.578857 1086.223877,736.661438 
	C1103.022827,739.037781 1119.811157,741.490173 1136.596558,743.960449 
	C1137.015991,744.022156 1137.385132,744.424622 1138.170654,744.911865 
	C1137.400879,745.357483 1136.864746,745.947083 1136.423828,745.882935 
	C1119.184814,743.373779 1101.954346,740.804871 1084.511353,737.941284 
z"/>
<path fill="#43362B" opacity="1.000000" stroke="none" 
	d="
M896.978027,707.134094 
	C912.074280,708.750000 926.716125,710.323547 941.357910,711.897034 
	C941.269165,712.632751 941.180420,713.368469 941.091614,714.104187 
	C921.947327,712.126953 902.803040,710.149780 883.658752,708.172546 
	C883.702454,707.483032 883.746155,706.793518 883.789856,706.104004 
	C888.034424,706.433228 892.279053,706.762451 896.978027,707.134094 
z"/>
<path fill="#43362B" opacity="1.000000" stroke="none" 
	d="
M886.780579,894.036438 
	C874.172363,892.516907 862.017456,891.019531 849.862488,889.522156 
	C849.959290,888.799133 850.056030,888.076050 850.152771,887.353027 
	C869.457458,889.543030 888.762085,891.732971 908.066711,893.922974 
	C908.003662,894.662170 907.940613,895.401367 907.877502,896.140564 
	C900.996277,895.446594 894.115051,894.752625 886.780579,894.036438 
z"/>
<path fill="#43362B" opacity="1.000000" stroke="none" 
	d="
M950.041077,997.880249 
	C943.049683,996.526245 936.486511,995.221741 929.923279,993.917236 
	C930.035828,993.305664 930.148315,992.694031 930.260803,992.082458 
	C951.716064,995.426758 973.171326,998.771057 994.626587,1002.115417 
	C994.560059,1002.686584 994.493530,1003.257751 994.427002,1003.828918 
	C979.635010,1003.172180 965.092346,1000.173279 950.041077,997.880249 
z"/>
<path fill="#43362B" opacity="1.000000" stroke="none" 
	d="
M879.810303,982.299316 
	C885.382507,983.309875 890.526794,984.241455 895.671021,985.172974 
	C895.539917,985.899170 895.408813,986.625305 895.277710,987.351440 
	C873.502441,983.591431 851.727173,979.831360 829.951904,976.071350 
	C830.071594,975.322510 830.191284,974.573730 830.310974,973.824890 
	C846.668091,976.623352 863.025269,979.421814 879.810303,982.299316 
z"/>
<path fill="#43362B" opacity="1.000000" stroke="none" 
	d="
M794.723022,968.840576 
	C772.150879,964.920654 749.993591,960.979980 727.836304,957.039307 
	C727.926575,956.381348 728.016846,955.723389 728.107178,955.065491 
	C731.055237,955.439636 734.024170,955.695190 736.948059,956.207336 
	C755.419861,959.443237 773.887817,962.702454 792.331970,966.090759 
	C793.481934,966.302002 797.104553,965.005371 794.723022,968.840576 
z"/>
<path fill="#43362B" opacity="1.000000" stroke="none" 
	d="
M788.749878,876.041382 
	C774.479797,873.947144 760.652954,871.881348 746.826172,869.815613 
	C746.928711,869.112976 747.031311,868.410339 747.133850,867.707703 
	C768.603027,870.674133 790.072144,873.640564 811.541321,876.607056 
	C811.490662,877.191101 811.440002,877.775208 811.389343,878.359253 
	C807.775513,878.095886 804.152649,877.919006 800.550232,877.545288 
	C796.754395,877.151489 792.978027,876.569641 788.749878,876.041382 
z"/>
<path fill="#43362B" opacity="1.000000" stroke="none" 
	d="
M988.238464,723.721191 
	C985.645203,723.360718 983.488403,723.037842 981.331665,722.715027 
	C981.447510,721.950439 981.563354,721.185852 981.679199,720.421326 
	C1001.264343,722.844543 1020.849548,725.267822 1040.434692,727.691040 
	C1040.350952,728.451599 1040.267090,729.212158 1040.183350,729.972717 
	C1023.013916,727.901428 1005.844421,725.830139 988.238464,723.721191 
z"/>
<path fill="#363138" opacity="1.000000" stroke="none" 
	d="
M653.598267,1062.385742 
	C651.045227,1058.256470 650.734253,1054.481812 654.506592,1051.440308 
	C657.801514,1048.783569 661.409607,1049.155151 664.470276,1051.903442 
	C667.736755,1054.836426 668.083801,1058.545166 665.906067,1062.273315 
	C663.202942,1066.900879 658.846130,1066.974365 653.598267,1062.385742 
M659.606934,1063.762207 
	C663.654297,1063.505005 665.305420,1060.792114 664.591858,1057.399780 
	C664.174133,1055.414062 661.883057,1052.477661 660.333069,1052.413330 
	C658.368042,1052.331543 655.370483,1054.293213 654.489746,1056.161743 
	C653.101562,1059.106567 654.744080,1061.876831 657.942871,1063.275757 
	C658.244202,1063.407471 658.557922,1063.510864 659.606934,1063.762207 
z"/>
<path fill="#A3D7E4" opacity="1.000000" stroke="none" 
	d="
M659.236450,1063.694824 
	C658.557922,1063.510864 658.244202,1063.407471 657.942871,1063.275757 
	C654.744080,1061.876831 653.101562,1059.106567 654.489746,1056.161743 
	C655.370483,1054.293213 658.368042,1052.331543 660.333069,1052.413330 
	C661.883057,1052.477661 664.174133,1055.414062 664.591858,1057.399780 
	C665.305420,1060.792114 663.654297,1063.505005 659.236450,1063.694824 
z"/>
</svg>