<svg version="1.1" id="Layer_1" xmlns="http://www.w3.org/2000/svg" xmlns:xlink="http://www.w3.org/1999/xlink" x="0px" y="0px"
	 width="100%" viewBox="0 0 1024 1024" enable-background="new 0 0 1024 1024" xml:space="preserve">
<path fill="#000000" opacity="1.000000" stroke="none" 
	d="
M779.300537,237.000061 
	C779.811523,271.997833 777.849060,306.443542 777.023682,340.912048 
	C776.421753,366.047119 775.231201,391.170258 774.106628,416.289978 
	C773.101257,438.749786 772.656006,461.220459 772.366028,483.695587 
	C772.297302,489.016968 772.953003,494.353394 772.777100,499.666351 
	C772.515625,507.564117 770.005432,510.162872 762.023254,510.134094 
	C754.382202,510.106567 746.725647,509.467010 739.107971,508.754578 
	C713.585205,506.367645 688.098694,503.008240 662.391479,504.432495 
	C625.950134,506.451447 589.476135,506.803955 553.002258,507.591064 
	C528.344421,508.123138 503.687256,507.833801 479.039795,508.459930 
	C444.570557,509.335541 410.078094,509.843597 375.648682,511.568268 
	C348.737244,512.916321 321.921722,516.082153 295.035706,518.061707 
	C267.922760,520.057800 240.811310,519.915527 213.676315,517.635498 
	C194.269089,516.004822 174.781448,515.324646 155.327621,514.258240 
	C146.349884,513.766113 137.357727,513.493958 128.392792,512.839050 
	C125.865707,512.654419 122.370674,512.664307 121.480927,509.796021 
	C120.578384,506.886505 123.596725,505.145050 125.564705,503.526123 
	C136.540817,494.496613 148.627792,487.052765 160.917969,480.042786 
	C207.660782,453.382080 254.352509,426.600708 302.797150,403.086884 
	C339.969513,385.044312 377.922913,368.695770 415.619995,351.795898 
	C448.465729,337.070953 480.743195,321.189758 512.899780,305.025818 
	C545.050659,288.864746 578.327271,275.055176 610.484314,258.877441 
	C634.322693,246.884644 656.738342,232.367828 680.323486,219.931686 
	C706.468933,206.145462 733.327881,194.114197 761.885132,186.172745 
	C763.648438,185.682388 765.428955,185.224609 767.228088,184.898087 
	C776.089172,183.289963 778.706665,185.015366 778.969482,194.009338 
	C779.383057,208.164047 779.219421,222.335632 779.300537,237.000061 
M627.129517,496.665192 
	C630.790588,496.621307 634.461182,496.732361 638.111206,496.508728 
	C665.111084,494.853882 692.024902,495.357788 718.795959,499.580872 
	C722.830627,500.217346 725.204712,499.435486 724.755249,494.542694 
	C724.284058,489.413544 724.131531,484.233276 724.208252,479.080841 
	C724.319458,471.606995 724.369324,464.095245 726.394226,456.801453 
	C727.968445,451.130981 729.709045,450.088287 735.379395,450.958527 
	C744.567627,452.368591 753.927673,452.087494 763.862610,454.275726 
	C762.455627,365.710724 769.533081,277.979675 772.653870,190.138168 
	C770.044678,189.683060 768.415649,190.657272 766.700195,191.166443 
	C735.531677,200.417236 706.568787,214.589096 678.429688,230.630829 
	C656.871582,242.920837 636.189148,256.712585 614.102661,268.093170 
	C571.610474,289.988312 527.835449,309.244873 485.346375,331.183105 
	C440.198029,354.494507 393.128845,373.746918 346.735504,394.414062 
	C344.535339,395.394165 341.899628,395.816376 340.706055,398.013519 
	C362.009918,429.961121 370.915314,463.708710 357.662720,501.628204 
	C447.420898,496.110931 536.827026,497.294861 627.129517,496.665192 
M233.821365,449.393127 
	C199.522263,467.731506 164.314606,484.444946 131.774460,506.115997 
	C132.743683,507.251038 133.813126,506.899750 134.717529,506.900909 
	C163.193985,506.937347 191.625671,508.378265 220.058670,509.685333 
	C261.280762,511.580322 302.188568,507.523499 343.109985,503.539459 
	C347.118774,503.149139 349.513123,501.199554 350.559357,497.377502 
	C352.544037,490.127106 353.671539,482.776550 353.724792,475.234711 
	C353.802917,464.166443 351.834991,453.359497 349.447815,442.656036 
	C346.579926,429.797089 342.637482,417.276337 335.832062,405.810760 
	C333.578918,402.014740 331.468140,401.038635 327.055939,403.058838 
	C295.705719,417.413361 264.736725,432.513611 233.821365,449.393127 
M749.940857,461.490021 
	C747.128906,461.744904 744.296997,462.336945 741.509888,462.172180 
	C737.735657,461.949005 736.190430,463.382416 735.731995,467.107513 
	C734.495667,477.152618 734.382507,487.318085 732.388916,497.282959 
	C731.709045,500.681702 733.885681,501.463806 736.789673,501.727692 
	C745.391113,502.509186 753.996521,503.316345 762.558289,504.434937 
	C766.336975,504.928650 766.754761,503.331299 766.504822,500.237396 
	C765.809021,491.626953 765.103455,483.008911 764.768982,474.379608 
	C764.252991,461.065277 764.382568,461.060242 749.940857,461.490021 
z"/>
<path fill="#000000" opacity="1.000000" stroke="none" 
	d="
M471.073792,738.797729 
	C472.837708,742.277283 471.315308,743.839722 468.346863,744.431091 
	C465.120575,745.073853 464.189117,746.980408 464.268036,750.136719 
	C464.457367,757.708069 463.100403,765.036194 459.780334,771.906982 
	C456.581848,778.526184 451.539429,783.029419 443.993713,783.141235 
	C436.250275,783.255981 430.300903,779.496399 426.595276,772.580017 
	C423.536682,766.871338 422.337250,760.703186 422.681000,754.270203 
	C422.872498,750.686462 422.371246,748.031494 417.871796,747.943054 
	C415.995575,747.906250 414.319611,746.835266 414.405823,744.474121 
	C414.489166,742.191406 416.089752,741.107361 418.009613,741.060730 
	C422.025726,740.963135 422.687103,738.576111 423.141235,735.227173 
	C424.272736,726.883118 424.688904,718.468079 427.420135,710.305786 
	C430.233704,701.897400 437.362274,698.035217 445.219391,702.303955 
	C455.763672,708.032410 461.325134,717.593079 463.089966,729.119629 
	C463.877197,734.261169 464.984253,738.024109 471.073792,738.797729 
M443.468170,737.753540 
	C445.944122,737.477356 448.419159,737.192993 450.896301,736.927917 
	C452.629517,736.742432 453.439178,735.889404 453.677246,734.062805 
	C454.710205,726.136597 447.991272,712.554749 441.011932,708.725647 
	C437.153870,706.608887 431.700958,709.599915 431.520905,714.074951 
	C431.327637,718.878479 431.353607,723.692078 431.343018,728.501404 
	C431.318420,739.670044 431.332825,739.670105 443.468170,737.753540 
M433.233185,761.172363 
	C433.871002,763.964172 434.946320,766.591614 436.742523,768.813354 
	C439.791443,772.584595 445.413757,773.150818 448.022736,769.583130 
	C452.688354,763.203003 453.674530,755.791870 453.412018,747.742065 
	C448.673615,748.307373 444.584106,749.061218 440.470245,749.233582 
	C430.191406,749.664185 431.406189,747.581787 432.660156,758.942017 
	C432.714142,759.430908 432.923370,759.902588 433.233185,761.172363 
z"/>
<path fill="#000000" opacity="1.000000" stroke="none" 
	d="
M672.000000,743.317749 
	C651.339417,743.604309 631.211548,742.925720 611.123413,741.190979 
	C608.642395,740.976807 606.160522,740.588440 603.729370,740.052551 
	C602.367188,739.752319 601.348755,738.699524 601.447632,737.163025 
	C601.549500,735.580078 602.721069,734.920105 604.168335,734.739868 
	C606.314575,734.472656 608.463928,734.056458 610.615601,734.032654 
	C642.418640,733.680847 674.184448,731.403687 706.005127,732.094116 
	C726.312256,732.534668 746.615356,733.156311 766.919922,733.711914 
	C769.254761,733.775757 772.243958,733.643127 772.362549,736.706604 
	C772.495911,740.149170 769.261292,740.021912 766.830139,740.255188 
	C735.452148,743.266113 703.981262,743.458923 672.000000,743.317749 
z"/>
<path fill="#000000" opacity="1.000000" stroke="none" 
	d="
M266.023743,733.983398 
	C262.511292,736.500549 259.304596,738.818604 257.789368,742.729736 
	C259.470306,744.172974 261.181793,743.582458 262.747528,743.398315 
	C272.932861,742.200867 282.286438,744.808411 290.940857,749.895996 
	C296.669952,753.263794 300.961639,758.134521 300.041718,765.301697 
	C299.081573,772.782593 294.342010,777.589722 287.122986,779.619446 
	C276.401001,782.634155 266.714935,780.232483 258.110901,773.335754 
	C256.843567,772.319946 255.840775,770.894226 254.952621,769.506470 
	C253.960983,767.956970 252.970306,766.091797 254.788864,764.551697 
	C256.634430,762.988770 258.240265,764.304260 259.581879,765.608765 
	C265.166168,771.038574 271.990143,772.415344 279.422150,771.669067 
	C281.216827,771.488892 283.053375,771.060547 284.714722,770.370728 
	C287.289551,769.301514 289.358276,767.425232 289.488953,764.481934 
	C289.607788,761.805603 287.410675,760.479309 285.356171,759.303772 
	C277.068817,754.562378 268.048584,753.753784 258.764313,754.417297 
	C257.768524,754.488403 256.775024,754.725525 255.783936,754.706238 
	C251.720276,754.627258 247.510590,754.457214 245.321075,750.316833 
	C243.273849,746.445312 244.925644,742.857544 247.186371,739.594116 
	C253.097336,731.061279 260.686615,724.866272 271.227692,723.184204 
	C277.042175,722.256409 282.084259,724.180115 286.162537,728.406006 
	C287.454620,729.744873 288.589417,731.427185 286.994965,733.250427 
	C285.609680,734.834412 283.898865,734.284424 282.501282,733.225281 
	C276.927521,729.001465 271.602997,730.376648 266.023743,733.983398 
z"/>
<path fill="#000000" opacity="1.000000" stroke="none" 
	d="
M353.393555,723.139587 
	C360.105896,727.763489 362.329224,734.655579 364.044281,741.596924 
	C367.040466,753.723633 368.232513,766.119934 368.337250,778.608398 
	C368.354828,780.701660 368.809662,783.505005 365.956146,783.904175 
	C362.764893,784.350708 362.401001,781.329346 362.032501,779.146606 
	C360.068939,767.515259 358.150024,755.869324 354.534576,744.614502 
	C353.100159,740.149353 351.817596,735.394104 347.081421,732.253052 
	C342.166046,737.939453 342.251709,744.747620 341.366638,751.164185 
	C340.436981,757.903992 340.018127,764.712830 339.186005,771.468140 
	C338.823029,774.414917 337.617035,777.127380 334.036774,777.156799 
	C330.416138,777.186646 329.152924,774.482971 328.935913,771.505493 
	C328.151093,760.736633 327.487946,749.956909 326.964386,739.172241 
	C326.780121,735.376770 327.712311,732.193726 332.672882,734.010742 
	C339.885284,721.559998 343.781342,719.467651 353.393555,723.139587 
z"/>
<path fill="#000000" opacity="1.000000" stroke="none" 
	d="
M450.288391,566.842224 
	C453.009094,557.960327 458.498810,552.122498 466.561432,548.571533 
	C471.098145,546.573425 475.562347,546.543823 480.016083,548.762695 
	C480.757690,549.132202 481.454651,549.657776 482.237518,549.867554 
	C489.408020,551.789490 490.947510,553.394653 491.231995,560.706848 
	C491.490234,567.345032 491.320648,574.000183 491.329651,580.647827 
	C491.332214,582.540039 491.224976,584.605957 488.864746,584.877747 
	C486.577789,585.141113 485.738953,583.190857 485.325897,581.389954 
	C484.518433,577.869324 483.934479,574.297302 483.205627,570.471680 
	C480.370697,574.039978 477.727173,577.552734 474.878510,580.890442 
	C472.827789,583.293274 470.438232,585.381836 467.594116,586.867126 
	C460.634705,590.501770 454.318085,588.205078 451.343109,580.917847 
	C449.536224,576.491821 449.129974,571.923828 450.288391,566.842224 
M476.698700,560.303650 
	C477.351990,559.006470 478.483826,557.841736 477.883057,556.201233 
	C472.657410,554.324097 468.738495,555.829590 464.313202,561.381042 
	C459.875397,566.948181 459.160461,571.685730 462.409790,576.737915 
	C468.833740,572.980591 472.194946,566.585999 476.698700,560.303650 
z"/>
<path fill="#000000" opacity="1.000000" stroke="none" 
	d="
M515.904846,554.754333 
	C518.471008,554.511719 520.560242,555.776917 523.266174,554.791748 
	C523.915527,549.306702 523.640259,543.444946 525.460449,537.912476 
	C526.212097,535.627869 526.100830,532.484070 529.707642,532.895020 
	C533.054016,533.276306 532.945801,536.218201 533.209717,538.658264 
	C534.481079,550.411316 534.573242,562.204956 534.331055,574.007751 
	C534.320801,574.506470 534.383301,575.021912 534.280090,575.501099 
	C533.555969,578.862610 535.163086,583.900574 530.626709,584.826660 
	C525.415405,585.890625 527.207520,579.892578 524.913086,577.198364 
	C522.434570,579.289612 520.165222,581.714417 517.219849,583.245544 
	C509.429016,587.295471 501.960510,585.484558 498.320129,578.577026 
	C493.943573,570.272644 496.222656,561.652710 503.933960,557.525330 
	C507.525574,555.603027 511.464600,555.012390 515.904846,554.754333 
M511.166443,574.286133 
	C516.493469,572.306213 520.737854,569.252197 522.485413,563.004150 
	C517.715942,562.868835 513.539734,563.481873 509.897675,565.977722 
	C506.179199,568.525879 506.472961,571.619202 511.166443,574.286133 
z"/>
<path fill="#000000" opacity="1.000000" stroke="none" 
	d="
M362.956879,250.676575 
	C371.323700,249.400314 378.249390,252.008636 383.905823,257.323334 
	C391.955719,264.886963 388.579712,278.257416 376.621918,283.096954 
	C370.172791,285.707062 368.764587,289.081238 369.121643,295.253571 
	C369.435699,300.682220 368.591217,306.186890 368.128296,311.646942 
	C367.946533,313.790802 367.693085,316.199219 364.739716,316.342682 
	C361.781738,316.486359 361.383301,314.109650 360.907715,311.997009 
	C358.753510,302.427826 358.856812,292.565063 357.119965,282.906097 
	C356.333588,278.532837 358.071503,273.741760 358.393616,269.121368 
	C358.641907,265.560059 359.062714,262.139404 357.479340,258.437439 
	C355.792236,254.492996 359.058258,252.159225 362.956879,250.676575 
M370.784668,275.195251 
	C373.744904,272.872681 377.723755,270.731476 376.390930,266.269806 
	C375.256348,262.471863 371.611053,260.819641 367.115906,259.828796 
	C368.090118,265.379913 366.480682,270.816376 370.784668,275.195251 
z"/>
<path fill="#000000" opacity="1.000000" stroke="none" 
	d="
M733.662964,808.962646 
	C729.190186,809.867126 727.955261,812.240356 727.833557,816.458679 
	C727.637817,823.244141 727.729370,830.092590 726.426941,836.833496 
	C726.028259,838.896912 725.903320,840.968445 723.257690,841.121399 
	C720.259277,841.294739 720.037842,838.988770 719.540527,836.797485 
	C717.951843,829.797302 717.750793,822.621582 716.694824,815.561890 
	C715.336487,806.481628 716.774170,797.539490 717.460449,788.547852 
	C717.547302,787.410583 717.589905,786.164429 717.227356,785.115967 
	C715.264893,779.441101 716.798584,776.533447 722.589172,775.256287 
	C730.680237,773.471802 743.127686,779.945190 745.843262,787.349915 
	C748.565979,794.773926 744.515442,803.079285 735.803955,807.917786 
	C735.222778,808.240540 734.611816,808.509644 733.662964,808.962646 
M734.139099,789.294556 
	C731.880798,787.089233 729.352173,785.383850 725.306641,784.294800 
	C726.781616,790.031799 725.331543,795.399963 728.003784,800.262512 
	C733.989197,797.707336 735.876709,794.612793 734.139099,789.294556 
z"/>
<path fill="#000000" opacity="1.000000" stroke="none" 
	d="
M352.072845,285.295410 
	C356.514465,302.395905 339.813843,317.073303 326.907654,316.328003 
	C325.912933,316.270569 324.892395,316.305847 323.932007,316.086884 
	C322.266113,315.707092 320.573883,315.069824 320.531372,313.021484 
	C320.483093,310.696960 322.190552,309.834045 324.167877,309.788879 
	C327.250000,309.718475 330.169556,309.066620 332.686462,307.357086 
	C341.938843,301.072693 346.221924,293.197632 338.480103,280.525574 
	C338.169861,280.458954 337.791504,280.252319 337.556610,280.359650 
	C329.794800,283.906219 324.269135,283.377045 319.796875,278.625000 
	C315.672058,274.242126 314.137421,263.157806 316.873932,257.843353 
	C317.552673,256.525208 318.458069,255.709106 319.995636,255.912277 
	C321.524933,256.114349 322.423126,257.193604 322.602966,258.562653 
	C322.969666,261.354431 323.073914,264.180084 323.314392,266.989349 
	C323.579987,270.091553 324.973236,272.721588 328.113159,273.203583 
	C331.612885,273.740814 332.274384,270.446381 333.081146,268.035919 
	C334.023956,265.218994 334.744843,262.292480 334.671722,259.255310 
	C334.590515,255.882217 335.731323,253.229401 339.419098,252.790970 
	C343.417999,252.315536 345.346313,254.872650 345.625275,258.383575 
	C346.355530,267.573578 348.694061,276.335297 352.072845,285.295410 
z"/>
<path fill="#000000" opacity="1.000000" stroke="none" 
	d="
M710.511841,809.907104 
	C714.807129,825.196838 701.652222,839.444885 688.170044,841.183716 
	C686.383667,841.414062 684.489746,841.305725 682.713623,840.981567 
	C680.896362,840.649963 678.943542,839.831848 679.053406,837.567688 
	C679.164185,835.285034 681.029846,834.791382 683.018066,834.678955 
	C688.277710,834.381470 692.603333,832.095947 696.097107,828.239929 
	C702.148560,821.560669 702.374756,815.559937 697.064026,805.326172 
	C696.747009,805.280334 696.367859,805.105835 696.120300,805.219177 
	C683.390503,811.043030 673.239868,803.937988 674.395325,789.992981 
	C674.560059,788.004456 674.622864,785.996582 674.958191,784.036255 
	C675.252869,782.313599 676.084778,780.790466 678.190430,780.904358 
	C680.223022,781.014343 681.015442,782.440247 681.193542,784.263367 
	C681.498840,787.388245 681.011169,790.563843 682.178406,793.640930 
	C683.074585,796.003479 684.178162,797.883850 687.006165,797.887024 
	C689.720642,797.890137 690.594971,795.786255 691.423523,793.776855 
	C692.780579,790.485962 692.640259,786.931396 693.096741,783.479065 
	C693.521667,780.265015 694.702698,777.627319 698.614014,777.669250 
	C702.404968,777.709961 703.999695,780.167908 704.232788,783.433228 
	C704.878052,792.472229 707.115784,801.098206 710.511841,809.907104 
z"/>
<path fill="#000000" opacity="1.000000" stroke="none" 
	d="
M394.623932,706.761902 
	C397.569214,700.882141 401.004486,695.812561 405.550476,691.548889 
	C407.077393,690.116760 408.813263,688.762451 410.783478,690.436218 
	C412.792114,692.142639 411.502899,693.925964 410.437469,695.734253 
	C395.441772,721.185181 394.513184,747.885803 403.605865,775.393433 
	C404.863586,779.198303 407.305603,782.443787 409.692993,785.657349 
	C411.060669,787.498352 413.179016,789.537598 410.624023,791.670837 
	C408.230194,793.669434 406.270691,791.525696 404.584625,789.988159 
	C397.108856,783.170471 392.518890,774.559631 389.811401,764.970581 
	C384.213165,745.143372 386.113190,725.848389 394.623932,706.761902 
z"/>
<path fill="#000000" opacity="1.000000" stroke="none" 
	d="
M482.154724,704.867310 
	C480.287933,700.517151 478.128021,696.776672 475.528564,693.288208 
	C474.306091,691.647644 473.874481,689.859802 475.499115,688.340759 
	C477.312622,686.645020 478.873535,687.946716 480.276276,689.212219 
	C489.304169,697.356689 494.463593,707.620972 496.262482,719.509888 
	C500.016479,744.320007 492.418640,766.485901 479.941223,787.430725 
	C478.996094,789.017212 477.738922,790.763611 475.571716,789.630188 
	C473.089478,788.331970 473.595886,786.117798 474.441193,783.957764 
	C479.429382,771.210999 483.095520,758.102722 485.169678,744.561401 
	C487.211884,731.228821 487.066254,718.055420 482.154724,704.867310 
z"/>
<path fill="#000000" opacity="1.000000" stroke="none" 
	d="
M671.795349,692.947754 
	C670.180359,685.546448 668.589111,678.567017 670.481873,671.359741 
	C672.364258,664.191833 677.231750,659.460632 683.600525,658.740967 
	C690.637451,657.945801 698.195312,662.017273 701.902588,668.600342 
	C705.155090,674.375854 704.472351,681.360413 700.028198,686.773193 
	C696.545044,691.015442 692.152588,694.083740 686.769165,695.129578 
	C682.536438,695.951965 681.766357,698.196960 682.591309,701.888611 
	C683.205994,704.639099 683.640625,707.432800 684.072144,710.220154 
	C684.373718,712.167419 684.086060,714.069763 681.891418,714.659912 
	C679.674194,715.256226 678.445557,713.704834 677.833557,711.869324 
	C675.783142,705.719116 673.851074,699.529480 671.795349,692.947754 
M693.555847,678.160828 
	C693.866333,676.191528 693.078308,674.607666 691.839539,673.162659 
	C688.279114,669.009338 683.030762,669.002808 681.359558,673.396790 
	C679.505493,678.271851 679.943542,683.315002 681.085632,688.819214 
	C687.061462,687.036682 691.308167,684.315796 693.555847,678.160828 
z"/>
<path fill="#000000" opacity="1.000000" stroke="none" 
	d="
M842.923950,367.756897 
	C841.702393,362.775177 841.465698,358.132721 841.666809,353.457672 
	C842.030090,345.011871 846.728088,338.562317 853.669739,336.948486 
	C861.289856,335.176880 869.864319,339.344849 873.795715,346.731415 
	C877.317383,353.348236 875.619263,361.703735 869.594116,367.159729 
	C866.190430,370.241974 862.187805,372.385590 857.718811,373.193573 
	C854.401489,373.793335 853.670044,375.322937 854.259827,378.334808 
	C854.897217,381.589539 855.191589,384.910065 855.759827,388.180267 
	C856.121338,390.261353 855.751221,391.968262 853.545044,392.494781 
	C851.330383,393.023407 850.224487,391.571869 849.569275,389.640686 
	C847.164673,382.552185 844.704407,375.481567 842.923950,367.756897 
M862.035828,349.459839 
	C857.027344,346.783051 854.009705,347.485657 852.799133,352.120697 
	C851.589539,356.752106 851.910522,361.514862 852.802368,366.437714 
	C856.675964,366.189911 859.130615,364.266022 861.421509,362.135376 
	C866.279297,357.617462 866.524292,354.688354 862.035828,349.459839 
z"/>
<path fill="#000000" opacity="1.000000" stroke="none" 
	d="
M804.381714,362.793518 
	C806.064331,354.802551 809.087830,348.169861 816.254944,344.217133 
	C816.544250,344.057587 816.825134,343.868835 817.074402,343.652740 
	C825.043579,336.745178 830.692993,337.686157 836.415466,346.879608 
	C843.754883,358.670868 837.903198,377.959717 825.296753,383.529663 
	C814.757080,388.186462 806.339050,383.869202 804.092529,372.592133 
	C803.471497,369.474915 803.478333,366.322479 804.381714,362.793518 
M823.219482,371.697784 
	C831.036682,363.374207 832.035095,353.390961 825.842102,347.259064 
	C816.047791,350.738770 813.589478,358.360291 814.175842,367.720001 
	C814.591675,374.357849 816.567871,375.409393 823.219482,371.697784 
z"/>
<path fill="#000000" opacity="1.000000" stroke="none" 
	d="
M647.726562,707.314392 
	C635.701843,708.718079 631.019043,697.209106 632.122986,688.097046 
	C633.210938,679.117249 635.943665,670.816040 644.811523,666.169250 
	C645.623352,665.743835 646.138123,664.734558 646.764099,663.974365 
	C649.455322,660.706055 652.793884,659.992004 656.579285,661.685913 
	C663.496216,664.780884 666.604614,670.810486 667.903015,677.734497 
	C670.266418,690.338684 660.760803,704.301086 647.726562,707.314392 
M657.179871,684.404724 
	C658.488037,678.861084 658.616211,673.563721 654.312744,669.281128 
	C643.628113,673.223816 641.403259,681.548523 642.427429,691.412720 
	C642.925354,696.208923 645.539124,697.383362 649.673279,695.009277 
	C653.521484,692.799316 655.376465,689.091431 657.179871,684.404724 
z"/>
<path fill="#000000" opacity="1.000000" stroke="none" 
	d="
M878.981567,380.623138 
	C877.995667,368.593658 877.526489,356.960480 875.017639,345.555023 
	C874.089722,341.336823 875.712158,338.487640 879.688538,336.814362 
	C888.588257,333.069336 900.384766,337.928955 903.934387,346.861664 
	C907.776306,356.529968 903.015869,368.172089 893.217896,370.785065 
	C887.991943,372.178833 886.684204,374.928314 886.541443,379.434906 
	C886.472961,381.595306 886.398499,383.761627 886.172058,385.908997 
	C885.980652,387.724548 885.074951,389.082245 883.029968,389.128632 
	C880.948853,389.175873 880.134827,387.784882 879.810669,385.997620 
	C879.514038,384.362244 879.291992,382.713379 878.981567,380.623138 
M889.103821,347.184418 
	C888.292419,347.007202 887.040527,346.794159 887.054321,347.775269 
	C887.131775,353.271271 887.433289,358.764130 887.665100,364.424255 
	C893.252136,363.358093 895.019348,359.800140 895.450684,355.705536 
	C895.880859,351.622864 893.455322,348.891571 889.103821,347.184418 
z"/>
<path fill="#000000" opacity="1.000000" stroke="none" 
	d="
M704.788818,660.849976 
	C714.274963,655.398071 725.058411,657.757690 730.610779,666.173889 
	C735.631042,673.783508 733.788513,684.471680 726.394958,690.423523 
	C725.495483,691.147644 724.478699,692.182556 723.468445,692.240662 
	C715.218445,692.715515 714.682983,698.561218 714.512329,704.736633 
	C714.489380,705.568237 714.386353,706.397278 714.346497,707.228760 
	C714.251465,709.211975 713.727661,710.997070 711.411194,711.181274 
	C708.713989,711.395752 708.074524,709.317200 707.846191,707.269470 
	C707.090698,700.495728 706.451721,693.708801 705.787415,686.925049 
	C705.155884,680.475525 704.811279,673.989685 703.226624,667.665894 
	C702.633179,665.297546 702.703247,663.033997 704.788818,660.849976 
M721.114075,671.422607 
	C719.293518,670.371460 716.453857,667.538818 715.699097,670.996094 
	C714.619995,675.939148 715.424316,681.293396 715.424316,686.788635 
	C723.543823,684.113464 725.461121,678.597229 721.114075,671.422607 
z"/>
<path fill="#000000" opacity="1.000000" stroke="none" 
	d="
M310.298981,265.306274 
	C310.271057,270.260406 310.292145,274.751648 310.175476,279.239319 
	C310.118835,281.418671 309.969482,283.911621 307.159698,284.242828 
	C304.116272,284.601532 303.891052,282.088226 303.570129,279.914551 
	C302.939880,275.646088 302.349792,271.371521 301.695068,267.106873 
	C301.397095,265.166168 301.244904,263.125732 299.209808,261.709473 
	C295.421906,263.147400 294.651123,266.742371 293.779633,269.987213 
	C292.881775,273.330261 292.658295,276.850464 292.061951,280.279663 
	C291.501801,283.500732 289.999542,286.164825 286.365875,286.104980 
	C282.749908,286.045502 280.932587,283.397125 280.917419,280.121887 
	C280.848236,265.169312 280.331055,250.201691 281.759491,235.276276 
	C281.936920,233.422119 282.826721,231.986740 284.818237,231.995239 
	C287.429413,232.006378 287.978638,234.074387 288.212219,236.132477 
	C288.864197,241.876816 289.438110,247.630020 290.098785,253.912140 
	C295.312805,251.755127 300.125977,249.314789 305.007507,252.941345 
	C308.966736,255.882660 309.792633,260.312775 310.298981,265.306274 
z"/>
<path fill="#000000" opacity="1.000000" stroke="none" 
	d="
M668.857544,790.491333 
	C669.538025,795.615723 668.419556,800.224487 668.317322,804.877136 
	C668.274231,806.838989 667.914001,808.757690 665.620789,809.015381 
	C662.962341,809.314087 662.274963,807.166870 661.981079,805.146973 
	C661.383057,801.037598 661.136292,796.873718 660.445923,792.782654 
	C660.100403,790.735107 660.036743,788.422913 657.890930,786.611755 
	C654.953613,787.547424 653.835754,790.143738 652.900330,792.763245 
	C651.439087,796.854980 650.748108,801.129150 650.347595,805.446655 
	C650.043396,808.726501 648.302368,810.946533 645.016541,810.913025 
	C641.453979,810.876648 639.672485,808.469910 639.686951,804.958801 
	C639.744568,790.964661 639.850342,776.970581 639.978027,762.976868 
	C639.988525,761.823669 640.249695,760.663574 640.479309,759.523804 
	C640.815125,757.856628 641.830078,756.796875 643.581360,756.872314 
	C645.367188,756.949280 646.140198,758.149658 646.351746,759.839966 
	C646.970947,764.787109 647.619507,769.730591 648.269775,774.673828 
	C648.416748,775.790771 648.107788,777.038147 649.414368,778.170532 
	C649.983398,778.023132 650.831787,777.974976 651.501160,777.603882 
	C660.114380,772.829346 668.029968,778.542297 668.462097,788.081726 
	C668.492004,788.741821 668.679077,789.394897 668.857544,790.491333 
z"/>
<path fill="#000000" opacity="1.000000" stroke="none" 
	d="
M314.842621,744.367126 
	C317.228973,756.135803 320.171326,767.378601 320.604431,779.056030 
	C320.685028,781.229614 320.603760,783.345337 320.429657,785.493713 
	C320.258636,787.604431 320.011414,789.712341 317.341675,789.748962 
	C314.857880,789.783020 314.191772,787.795654 313.671021,785.747559 
	C311.341583,776.586670 308.968384,767.436890 306.590546,758.288391 
	C304.139038,748.856506 304.037811,739.270630 304.752075,729.643860 
	C304.921783,727.356506 305.003540,724.668274 308.189117,724.446167 
	C311.610352,724.207520 311.502075,727.206665 311.961151,729.304810 
	C313.023285,734.158997 313.818298,739.071594 314.842621,744.367126 
z"/>
<path fill="#000000" opacity="1.000000" stroke="none" 
	d="
M549.895020,603.869507 
	C540.556641,612.156494 529.721436,610.998291 525.441895,601.541870 
	C524.615845,599.716614 523.481262,597.713440 525.680664,596.164856 
	C527.700073,594.742859 529.258972,595.903564 530.924683,597.369507 
	C535.753235,601.618896 540.744873,600.141418 543.335876,593.663452 
	C546.184998,586.540100 546.022888,578.989319 546.016968,571.489807 
	C546.015808,569.991943 545.855530,568.494934 545.800232,566.996277 
	C545.723328,564.911804 546.578186,563.409180 548.688416,562.926636 
	C550.801453,562.443420 551.774841,563.930908 552.376404,565.528931 
	C557.274170,578.538818 558.800110,591.374939 549.895020,603.869507 
z"/>
<path fill="#000000" opacity="1.000000" stroke="none" 
	d="
M551.575745,759.081238 
	C543.481018,759.267944 535.789001,760.172668 528.285828,757.996094 
	C526.176758,757.384155 523.407104,757.156860 523.670776,753.795776 
	C523.922546,750.587036 526.510742,750.503784 528.761841,750.077393 
	C539.306946,748.079773 549.868225,747.896667 560.481384,749.655640 
	C562.765503,750.034241 564.234436,750.805054 564.511780,753.215149 
	C564.791504,755.645203 563.050293,756.462646 561.267944,756.945129 
	C558.224915,757.768982 555.113770,758.341064 551.575745,759.081238 
z"/>
<path fill="#000000" opacity="1.000000" stroke="none" 
	d="
M532.881836,732.719849 
	C541.180786,730.488037 549.104004,728.632996 557.329956,730.740112 
	C559.728760,731.354492 562.448608,731.670776 562.287354,735.173279 
	C562.139954,738.375977 559.602356,738.684570 557.337463,739.036560 
	C548.856018,740.354492 540.519104,743.234314 531.731995,741.432312 
	C529.170715,740.907104 526.006165,741.191406 525.829346,737.481018 
	C525.662598,733.983582 528.794189,734.043091 531.055054,733.266418 
	C531.526611,733.104370 532.004700,732.961792 532.881836,732.719849 
z"/>
<path fill="#000000" opacity="1.000000" stroke="none" 
	d="
M313.084656,696.325745 
	C314.848389,701.588318 314.763702,706.452393 313.222076,711.331299 
	C312.553802,713.446228 311.308289,714.790588 308.978516,714.802490 
	C306.798859,714.813599 305.754730,713.337341 305.042358,711.573059 
	C303.102905,706.769958 302.940338,701.883667 304.852386,697.065125 
	C306.646637,692.543396 309.226837,692.242371 313.084656,696.325745 
z"/>
<path fill="#000000" opacity="1.000000" stroke="none" 
	d="
M548.102417,546.795532 
	C552.311340,546.955627 553.755371,549.439209 553.721497,552.755066 
	C553.688965,555.931030 551.345825,557.531677 548.503113,557.855103 
	C545.483032,558.198547 543.928711,555.919800 543.323730,553.414062 
	C542.475220,549.899902 544.218323,547.689026 548.102417,546.795532 
z"/>
<path fill="#000000" opacity="1.000000" stroke="none" 
	d="
M288.223236,441.560547 
	C289.302948,438.174744 290.064819,435.107758 291.271484,432.227051 
	C293.099731,427.862488 299.318481,424.940399 304.359375,426.361694 
	C316.617432,429.817902 323.547852,438.395020 326.212433,450.527557 
	C327.011536,454.166077 327.617188,457.340515 332.210327,457.589355 
	C333.940521,457.683044 334.834686,458.994080 334.929474,460.656281 
	C335.030426,462.426971 333.862396,463.706970 332.335907,463.847626 
	C327.473419,464.295654 327.300507,467.460754 327.235229,471.266449 
	C327.143127,476.638092 325.705475,481.816254 323.206482,486.572540 
	C319.687958,493.269196 314.147247,497.376038 306.428558,497.175537 
	C298.586029,496.971802 292.386597,493.476288 288.755096,486.161865 
	C286.723969,482.070892 285.789520,477.737000 285.499207,473.198456 
	C285.300476,470.091217 284.748138,467.173828 280.519501,467.151733 
	C278.657257,467.142029 277.453186,465.820587 277.289551,463.933899 
	C277.086517,461.592590 278.676239,460.614746 280.659302,460.436951 
	C285.093658,460.039398 286.261169,457.125824 286.641327,453.327911 
	C287.021606,449.528778 287.608307,445.750305 288.223236,441.560547 
M312.098083,441.468842 
	C309.758484,438.400116 307.135162,435.622620 303.538666,434.041595 
	C300.306641,432.620819 295.085266,434.550171 295.016235,437.591553 
	C294.864197,444.290161 293.350281,451.027557 294.835876,457.813171 
	C299.424408,458.161011 303.671967,457.323761 307.951385,456.952850 
	C317.644867,456.112762 318.278870,455.133728 314.627930,445.999298 
	C314.078674,444.625061 313.233063,443.369263 312.098083,441.468842 
M311.281097,483.955841 
	C314.983459,480.109985 315.554810,475.067383 316.484528,470.181335 
	C316.764771,468.708588 316.279724,467.332275 314.479584,467.473663 
	C308.094910,467.975128 301.720795,468.610687 295.428619,469.187561 
	C294.830505,482.308777 301.340637,488.582550 311.281097,483.955841 
z"/>
</svg>